<?xml version="1.0" standalone="no"?>
<!DOCTYPE svg PUBLIC "-//W3C//DTD SVG 20010904//EN"
 "http://www.w3.org/TR/2001/REC-SVG-20010904/DTD/svg10.dtd">
<svg version="1.0" xmlns="http://www.w3.org/2000/svg"
 width="829.000000pt" height="844.000000pt" viewBox="0 0 829.000000 844.000000"
 preserveAspectRatio="xMidYMid meet">

<g transform="translate(0.000000,844.000000) scale(0.100000,-0.100000)"
fill="#000000" stroke="none">
<path d="M0 4220 l0 -4220 4145 0 4145 0 0 4220 0 4220 -4145 0 -4145 0 0
-4220z m4165 3604 c42 -53 85 -106 95 -118 129 -152 166 -200 219 -277 68 -99
114 -191 125 -252 10 -53 28 -90 36 -76 5 6 12 -2 18 -20 9 -27 8 -32 -9 -41
-14 -8 -19 -21 -19 -53 0 -195 -101 -359 -285 -461 -60 -35 -87 -55 -91 -72
l-6 -24 -164 0 -164 0 -12 25 c-7 16 -38 39 -82 62 -84 44 -197 153 -239 230
-58 108 -73 280 -36 413 38 140 113 257 325 512 74 89 149 181 166 205 17 24
34 43 38 43 4 0 42 -43 85 -96z m1102 -1339 c122 -41 120 -38 76 -113 -55 -94
-142 -178 -222 -215 -56 -27 -78 -32 -146 -32 -68 0 -89 4 -137 28 -62 31 -98
71 -98 110 0 33 34 113 66 155 26 33 80 66 149 89 66 21 215 11 312 -22z
m-1992 -2 c80 -42 141 -127 152 -211 4 -33 1 -43 -28 -74 -69 -72 -209 -98
-321 -59 -78 27 -129 63 -181 129 -48 61 -107 151 -107 163 0 8 125 51 195 68
22 6 87 9 145 8 84 -2 113 -7 145 -24z m999 -119 c20 -19 20 -27 1 -64 l-16
-30 -162 0 c-89 0 -172 3 -183 6 -44 12 -56 87 -16 97 9 3 94 5 189 6 144 1
174 -2 187 -15z m-57 -160 c3 -7 0 -29 -7 -49 -10 -31 -15 -35 -46 -35 l-34 0
0 -84 0 -84 108 -4 c80 -4 122 -10 167 -28 67 -26 155 -102 176 -152 12 -29
14 -30 68 -26 40 3 68 12 96 31 53 36 89 35 126 -4 31 -34 32 -57 1 -91 -21
-25 -82 -23 -142 3 -65 28 -125 20 -114 -14 3 -12 9 -25 13 -28 13 -13 75 -29
112 -29 49 0 99 -40 99 -80 0 -44 -31 -74 -74 -73 -49 1 -86 48 -86 109 0 17
-8 27 -26 34 -35 14 -41 8 -49 -47 -4 -27 -17 -73 -30 -104 -22 -56 -84 -159
-95 -159 -4 0 -15 35 -26 78 l-20 77 -50 5 c-102 11 -172 90 -194 222 l-12 68
-34 0 c-44 0 -153 -42 -207 -79 -136 -95 -298 -332 -342 -502 -34 -129 -2
-250 83 -315 56 -44 158 -80 282 -99 217 -35 353 -76 511 -156 114 -57 191
-113 275 -201 131 -138 184 -267 191 -468 4 -101 1 -143 -15 -217 -39 -172
-125 -317 -261 -435 -61 -54 -163 -128 -175 -128 -3 0 11 22 32 50 47 62 125
216 149 295 14 47 18 92 17 210 0 183 -17 248 -28 108 -8 -110 -27 -185 -69
-278 -45 -100 -97 -184 -166 -269 -57 -70 -176 -186 -191 -186 -4 0 -17 37
-29 83 -46 173 -151 335 -286 444 -39 30 -161 115 -272 189 -409 271 -559 472
-592 796 -23 231 51 484 215 736 145 222 351 422 537 522 65 35 208 88 281
104 15 4 26 9 23 12 -3 3 -21 1 -41 -4 l-36 -10 0 89 0 89 -35 0 c-39 0 -58
24 -53 68 l3 27 115 5 c128 6 149 3 157 -16z m1548 -202 c0 -19 19 -32 114
-77 l112 -55 -33 -46 c-18 -26 -72 -84 -120 -130 -182 -172 -365 -215 -557
-128 -64 28 -136 95 -146 136 -10 38 31 132 82 189 94 104 181 135 358 127 61
-3 121 -2 135 3 39 11 55 6 55 -19z m-2997 3 c87 -21 130 -45 185 -104 150
-160 100 -296 -132 -365 -140 -41 -302 0 -440 113 -42 34 -197 210 -190 214 2
2 58 28 124 59 103 48 172 72 270 92 44 9 123 5 183 -9z m1995 -67 c38 -45 12
-101 -63 -131 -85 -35 -82 -37 -74 40 4 40 13 76 23 87 34 39 81 41 114 4z
m-674 -330 l39 -12 6 -151 c3 -82 8 -264 11 -403 l5 -253 -23 6 c-56 17 -93
30 -100 36 -12 9 3 789 15 789 4 0 26 -5 47 -12z m-1635 -262 c143 -51 265
-187 266 -295 1 -116 -156 -248 -340 -287 -190 -40 -422 31 -600 184 -67 58
-139 132 -140 144 0 6 99 83 187 144 24 16 43 33 43 37 0 5 6 14 13 21 16 16
50 29 42 16 -8 -13 -11 -14 86 20 48 16 110 34 140 39 84 15 229 4 303 -23z
m3637 13 c93 -24 173 -61 264 -122 65 -44 185 -137 185 -143 0 -7 -101 -97
-173 -155 -222 -178 -469 -231 -692 -148 -124 46 -235 161 -235 243 0 81 78
193 188 268 112 77 293 99 463 57z m-101 -820 c41 -11 110 -36 152 -56 64 -30
80 -34 93 -23 12 10 15 10 15 -1 1 -11 3 -10 10 1 5 9 20 15 37 14 15 -1 33
-3 40 -3 7 -1 10 -8 6 -18 -5 -12 -2 -15 13 -11 10 3 26 7 34 9 18 5 23 -40 6
-60 -9 -12 -7 -13 11 -9 28 7 41 -21 17 -35 -15 -8 -13 -11 12 -23 l29 -12
-29 -1 c-23 -1 -26 -4 -17 -15 10 -11 9 -15 -4 -18 -13 -2 -7 -16 28 -61 44
-56 167 -265 167 -283 0 -13 -215 -90 -344 -124 -363 -93 -660 -46 -836 132
-95 97 -150 222 -150 342 0 59 1 60 53 111 58 56 153 113 232 140 113 38 286
39 425 4z m-3428 10 c139 -29 317 -158 319 -232 0 -18 2 -40 4 -49 6 -32 -25
-140 -58 -202 -17 -33 -55 -83 -83 -112 -227 -233 -620 -256 -1091 -64 -53 22
-98 40 -99 40 -4 0 88 164 109 195 160 231 363 378 592 428 42 9 256 7 307 -4z
m-1127 -1851 l39 -13 -1 -70 c-1 -54 -4 -71 -16 -73 -11 -2 -19 9 -27 38 -14
54 -56 80 -126 80 -64 0 -104 -27 -104 -71 0 -40 24 -61 129 -114 112 -56 154
-92 170 -146 16 -54 0 -128 -36 -160 -23 -21 -25 -21 -19 -5 4 11 2 22 -5 27
-7 4 -14 20 -16 36 -6 49 -9 62 -16 69 -4 4 -7 18 -7 31 0 25 -31 45 -38 25
-3 -9 -9 -9 -24 -1 -32 17 -30 5 3 -13 16 -9 29 -13 29 -7 0 6 4 8 10 4 5 -3
7 -12 3 -20 -3 -8 0 -15 6 -15 7 0 10 -17 10 -42 -2 -30 -3 -35 -6 -15 -6 39
-47 74 -148 127 -115 60 -150 100 -150 175 0 57 18 91 66 127 60 45 182 56
274 26z m536 -16 c74 -30 117 -101 104 -170 -12 -64 -54 -107 -125 -126 l-25
-7 25 20 c20 16 22 21 8 21 -12 0 -16 5 -12 18 5 14 4 14 -4 2 -6 -8 -8 -18
-6 -22 3 -4 0 -8 -6 -8 -7 0 -23 -9 -37 -20 l-25 -19 36 1 c45 2 55 -7 128
-115 41 -59 73 -94 95 -105 18 -9 33 -22 33 -29 0 -20 -158 -18 -187 2 -12 9
-51 64 -87 124 -61 101 -68 109 -101 113 l-35 4 0 -95 c0 -97 12 -131 47 -131
7 0 13 -7 13 -15 0 -12 -17 -14 -95 -14 -87 1 -121 11 -77 22 13 4 12 5 -4 6
-12 0 -24 -6 -28 -14 -3 -8 -15 -15 -26 -15 -11 0 -20 7 -20 15 0 8 9 15 19
15 11 0 27 7 35 16 14 14 16 48 14 257 l-3 242 -32 10 c-29 8 -41 23 -29 36 9
8 382 -8 407 -19z m3666 -45 c18 -39 64 -155 103 -257 71 -185 104 -240 145
-240 8 0 15 -7 15 -15 0 -13 -22 -15 -134 -15 -79 0 -137 4 -141 10 -3 6 1 10
9 10 9 0 22 10 31 23 13 20 13 28 -2 75 l-17 52 -118 0 -118 0 -11 -27 c-6
-16 -13 -45 -16 -65 -5 -33 -3 -38 21 -44 14 -3 26 -12 26 -20 0 -11 -21 -14
-95 -14 -103 0 -122 12 -63 40 40 19 53 49 237 533 9 24 16 27 53 27 l43 0 32
-73z m1363 54 c0 -12 -9 -21 -25 -25 -13 -3 -28 -14 -32 -24 -5 -9 -7 -119 -5
-244 l3 -228 89 0 c107 0 138 10 153 50 8 20 18 30 32 30 20 0 21 -3 12 -70
l-10 -69 -233 -1 c-201 0 -234 2 -234 15 0 8 8 15 18 15 40 0 42 15 42 268 l0
244 -30 11 c-16 6 -30 17 -30 24 0 9 33 13 123 16 67 1 123 4 125 5 1 1 2 -7
2 -17z m-4550 -5 c0 -8 -13 -19 -30 -25 l-30 -10 0 -238 c0 -131 4 -243 8
-249 4 -6 17 -14 30 -18 12 -4 22 -14 22 -22 0 -11 -23 -14 -125 -14 -104 0
-125 2 -125 15 0 8 8 15 18 15 40 0 42 15 42 265 0 250 -2 265 -42 265 -10 0
-18 7 -18 15 0 13 21 15 125 15 101 0 125 -3 125 -14z m520 -5 c0 -14 -8 -21
-27 -23 -17 -2 -29 -10 -31 -21 -3 -17 122 -343 139 -361 5 -6 11 -1 15 10 3
10 35 92 70 182 34 90 60 170 57 178 -3 8 -16 17 -29 20 -13 3 -24 12 -24 20
0 11 20 14 90 14 74 0 90 -3 90 -15 0 -9 -12 -20 -26 -25 -15 -6 -32 -25 -41
-48 -9 -20 -57 -140 -107 -267 l-91 -230 -40 -3 c-46 -3 -36 -20 -126 213
-112 292 -125 319 -158 334 -17 8 -31 21 -31 28 0 10 30 13 135 13 127 0 135
-1 135 -19z m850 -46 c0 -57 -2 -65 -19 -65 -12 0 -21 9 -25 25 -10 38 -38 46
-139 43 l-92 -3 -1 -72 c-2 -122 -2 -123 70 -123 81 0 104 8 108 34 2 11 10
21 18 21 11 0 15 -14 17 -60 2 -69 -4 -105 -16 -105 -5 0 -12 11 -15 25 -7 29
-45 39 -127 33 l-54 -3 -3 -108 -3 -107 105 0 c115 0 153 11 162 47 4 14 14
23 26 23 17 0 19 -6 16 -62 l-3 -63 -242 -3 c-212 -2 -243 0 -243 13 0 8 8 15
18 15 40 0 42 15 42 261 0 254 -3 269 -51 269 -10 0 -19 7 -19 15 0 13 33 15
235 15 l235 0 0 -65z m355 55 c3 -5 -10 -16 -30 -24 l-35 -15 0 -240 0 -241
99 0 c96 0 100 1 120 26 12 15 21 33 21 40 0 8 9 14 20 14 19 0 20 -5 14 -57
-3 -32 -7 -63 -9 -70 -3 -8 -65 -12 -229 -13 -197 0 -226 1 -226 15 0 8 8 15
18 15 40 0 42 15 42 268 l0 244 -30 11 c-16 6 -30 17 -30 24 0 16 245 19 255
3z m504 -73 c19 -45 58 -136 87 -201 l53 -119 49 105 c27 58 66 148 87 201
l37 97 110 0 c99 0 109 -2 106 -17 -2 -10 -12 -19 -23 -21 -43 -8 -45 -17 -45
-202 0 -97 3 -205 7 -240 6 -57 9 -64 35 -74 15 -6 28 -16 28 -23 0 -10 -30
-13 -125 -13 -104 0 -125 2 -125 15 0 8 9 15 20 15 10 0 24 9 30 19 11 22 14
290 3 366 l-6 48 -35 -74 c-39 -83 -151 -345 -159 -371 -3 -12 -15 -18 -33
-18 -26 0 -31 8 -85 138 -65 154 -136 315 -141 321 -2 2 -4 -89 -4 -203 l0
-207 35 -15 c20 -8 33 -19 30 -24 -3 -6 -49 -10 -101 -10 -77 0 -94 3 -94 15
0 8 9 15 19 15 48 0 51 16 51 263 0 128 -4 237 -8 243 -4 7 -16 13 -27 15 -11
3 -21 12 -23 22 -3 15 7 17 105 17 l108 0 34 -83z m1391 70 c0 -8 -11 -19 -25
-25 -33 -15 -31 -26 15 -97 22 -33 49 -77 60 -97 11 -21 22 -38 24 -38 7 0
113 175 120 198 6 17 2 24 -18 34 -14 6 -26 17 -26 25 0 10 21 13 90 13 66 0
90 -3 90 -13 0 -7 -13 -17 -28 -23 -21 -8 -49 -46 -115 -155 l-87 -144 0 -94
c0 -100 12 -131 52 -131 10 0 18 -7 18 -15 0 -13 -21 -15 -130 -15 -109 0
-130 2 -130 15 0 8 9 15 19 15 36 0 51 38 51 131 0 68 -4 91 -18 110 -10 13
-51 77 -92 143 -58 94 -80 121 -106 132 -19 8 -34 21 -34 29 0 13 22 15 135
15 106 0 135 -3 135 -13z m610 -2 c0 -8 -7 -15 -15 -15 -8 0 -24 -9 -34 -19
-17 -17 -19 -32 -17 -128 2 -59 4 -166 5 -236 l1 -129 30 -11 c17 -6 30 -17
30 -24 0 -10 -30 -13 -125 -13 -104 0 -125 2 -125 15 0 8 6 15 14 15 8 0 22 7
30 16 14 13 16 50 16 247 0 128 -4 237 -8 244 -4 6 -20 15 -35 18 -15 4 -27
13 -27 21 0 11 26 14 130 14 109 0 130 -2 130 -15z m-5555 -424 c6 -29 44 -70
82 -90 12 -6 50 -11 85 -11 l63 -1 -24 -19 c-13 -11 -30 -20 -37 -20 -8 0 -23
-5 -34 -12 -20 -13 -91 -3 -152 21 -27 10 -28 13 -28 86 0 67 2 75 19 75 13 0
21 -9 26 -29z m1595 -503 l-1 -63 -30 35 c-30 35 -30 35 -115 35 l-86 0 -1
-83 -2 -82 76 0 c45 0 80 5 87 12 9 9 12 -1 12 -45 0 -56 -13 -76 -23 -37 -4
15 -14 20 -44 21 -21 0 -53 2 -70 3 l-33 2 0 -93 0 -93 100 0 c99 0 100 0 122
30 29 40 40 38 33 -7 -14 -79 5 -73 -207 -73 l-191 0 21 23 c21 22 22 32 22
225 l0 202 -27 17 c-30 20 -37 19 280 31 l77 3 0 -63z m259 52 c3 0 -5 -9 -17
-20 -12 -12 -22 -22 -22 -23 0 -4 28 -87 68 -206 l38 -114 16 44 c49 131 89
250 94 278 6 28 10 31 44 31 l37 0 33 -97 c18 -54 45 -134 60 -177 15 -43 29
-75 32 -70 7 13 85 253 92 286 5 22 1 31 -19 44 -41 27 -29 35 45 33 65 -2
102 -17 71 -27 -30 -10 -49 -53 -117 -255 l-71 -212 -35 -3 -36 -3 -58 165
c-33 91 -61 166 -64 166 -3 0 -18 -37 -34 -83 -91 -261 -85 -247 -121 -247
l-32 0 -76 218 c-59 166 -83 222 -103 240 -37 32 -22 39 84 35 48 -1 89 -3 91
-3z m1009 -52 c3 -64 -5 -72 -31 -29 -14 24 -25 30 -71 35 -30 4 -70 4 -90 1
l-36 -7 0 -79 0 -79 80 0 c54 0 80 4 80 12 0 30 13 -6 15 -44 4 -53 -3 -66
-22 -39 -12 18 -25 21 -84 21 l-69 0 0 -90 0 -90 100 0 c87 0 103 3 120 20 11
11 20 25 20 30 0 6 6 10 13 10 11 0 12 -11 4 -55 l-10 -55 -189 0 c-103 0
-188 4 -188 9 0 5 7 14 15 21 12 10 15 47 15 216 l0 204 -25 16 c-14 9 -22 20
-20 25 3 4 88 7 188 6 l182 -2 3 -57z m287 53 c6 -1 0 -9 -12 -19 -26 -20 -29
-58 -25 -284 l2 -138 90 0 89 0 17 31 c21 41 34 26 27 -33 l-6 -48 -180 0
-180 0 19 21 c17 19 19 41 22 207 2 102 1 196 -3 209 -3 13 -17 28 -31 33 -14
6 -23 13 -20 17 3 7 159 10 191 4z m402 -23 l-27 -20 0 -199 0 -199 90 0 c89
0 90 0 105 30 21 40 39 39 31 -1 -3 -17 -6 -42 -6 -55 l0 -24 -182 0 -181 0
21 23 c21 22 22 32 22 225 l0 202 -27 17 -27 18 44 5 c25 3 72 3 105 1 l59 -3
-27 -20z m596 26 c13 -5 17 -18 17 -60 0 -59 -12 -69 -32 -26 -12 25 -18 27
-97 34 -47 4 -88 5 -93 2 -4 -3 -8 -41 -8 -85 l0 -79 73 0 c43 0 78 5 85 12 9
9 12 -1 11 -47 0 -58 -1 -59 -16 -37 -13 19 -24 22 -84 22 l-69 0 0 -90 0 -90
100 0 101 0 17 30 c18 32 47 42 39 13 -3 -10 -8 -35 -12 -55 l-6 -38 -190 0
-190 0 20 26 c20 25 21 40 21 225 l0 199 -25 16 c-14 9 -23 20 -20 24 6 9 334
13 358 4z m452 -21 c104 -54 97 -198 -11 -233 -36 -12 -43 -24 -20 -33 8 -3
40 -40 71 -82 31 -42 70 -84 86 -93 16 -10 29 -20 29 -24 0 -5 -33 -8 -73 -8
-85 0 -91 4 -170 126 -38 59 -51 72 -77 76 l-31 5 3 -86 c3 -78 5 -87 26 -96
42 -18 22 -25 -75 -25 l-96 0 21 23 c21 22 22 32 22 214 0 105 -3 199 -6 208
-4 9 -18 21 -31 26 -49 19 -10 25 139 24 134 -1 158 -4 193 -22z m335 14 c0
-5 -10 -17 -22 -26 l-21 -18 54 -91 c30 -50 56 -91 59 -92 7 0 101 155 107
178 3 14 -1 22 -16 27 -42 13 -20 25 46 25 l66 0 -20 -22 c-11 -13 -52 -77
-92 -142 l-71 -119 0 -78 c0 -75 13 -109 41 -109 5 0 9 -4 9 -10 0 -6 -40 -10
-100 -10 -60 0 -100 4 -100 10 0 6 4 10 9 10 5 0 17 7 25 16 22 21 22 144 0
185 -42 82 -147 231 -169 241 -14 6 -25 17 -25 24 0 9 27 12 110 11 60 -1 110
-6 110 -10z m-3812 -18 l-28 -21 0 -161 c0 -137 -3 -168 -19 -203 -19 -41 -52
-76 -38 -40 4 10 3 15 -3 11 -6 -3 -10 -13 -10 -21 0 -8 -5 -14 -11 -14 -7 0
-9 10 -4 27 l6 26 -25 -24 c-14 -13 -26 -30 -26 -36 0 -9 -16 -13 -46 -13 -50
0 -115 37 -133 77 -19 41 15 45 56 7 54 -51 121 -54 142 -8 12 26 16 350 5
378 -3 9 -12 16 -19 16 -8 0 -17 5 -20 10 -4 6 31 10 97 10 l103 -1 -27 -20z
m-128 -449 c0 -5 -4 -10 -10 -10 -5 0 -10 5 -10 10 0 6 5 10 10 10 6 0 10 -4
10 -10z m1030 -362 c0 -21 -4 -23 -50 -20 l-50 4 0 -111 0 -111 -25 0 -25 0 0
110 0 110 -50 0 c-43 0 -50 3 -50 20 0 19 7 20 125 20 123 0 125 0 125 -22z
m170 -109 c0 -130 0 -130 -22 -127 -22 3 -23 7 -26 131 l-3 127 26 0 25 0 0
-131z m374 109 c14 -13 26 -30 27 -38 5 -43 -3 -62 -31 -78 -16 -9 -30 -20
-30 -24 0 -4 18 -26 40 -50 l40 -43 -33 -3 c-24 -3 -35 2 -47 19 -40 61 -62
79 -96 79 l-34 0 0 -50 c0 -44 -3 -50 -20 -50 -27 0 -29 6 -32 143 l-3 117 97
0 c86 0 100 -2 122 -22z m216 -70 c0 -110 11 -128 75 -128 24 0 47 6 53 13 6
7 13 56 14 108 3 93 3 94 29 97 l27 3 0 -93 c0 -110 -12 -141 -64 -158 -52
-17 -136 -5 -163 24 -19 20 -22 36 -24 125 l-2 101 28 0 27 0 0 -92z m539 77
c46 -23 55 -75 22 -116 -16 -20 -31 -25 -93 -29 l-73 -5 -3 -47 c-3 -43 -5
-48 -28 -48 -24 0 -24 1 -24 99 0 54 -3 113 -6 130 l-6 31 91 0 c61 0 101 -5
120 -15z m211 -70 c0 -78 2 -88 25 -110 16 -17 35 -25 59 -25 57 0 66 18 66
126 l0 95 27 -3 c21 -2 28 -8 27 -23 -1 -11 -2 -55 -2 -98 -2 -72 -4 -81 -31
-108 -26 -25 -37 -29 -86 -29 -110 0 -134 29 -135 163 0 97 0 97 25 97 25 0
25 -1 25 -85z m549 70 c53 -27 56 -81 6 -122 l-35 -29 47 -47 46 -47 -35 0
c-30 0 -41 8 -77 50 -33 39 -49 50 -72 50 -28 0 -29 -1 -29 -50 0 -46 -2 -50
-24 -50 -15 0 -26 7 -29 18 -7 27 -9 221 -2 232 10 16 172 12 204 -5z m-2511
-82 c-3 -17 -24 -18 -288 -15 -157 1 -346 6 -420 10 -129 7 -123 7 140 12 597
12 572 12 568 -7z m3427 6 c205 -2 224 -3 130 -9 -151 -10 -742 -17 -750 -8
-4 4 -4 12 1 19 5 9 52 10 193 6 102 -4 294 -8 426 -8z"/>
<path d="M4048 7721 c-13 -15 -78 -91 -145 -168 -128 -148 -194 -242 -233
-333 -18 -43 -24 -79 -28 -170 -4 -106 -2 -120 22 -184 45 -118 123 -203 264
-285 l52 -30 0 27 c0 62 59 208 92 229 29 17 95 -110 105 -198 3 -33 9 -58 12
-57 128 60 252 171 297 265 23 48 29 75 32 156 9 201 -38 317 -212 527 -88
107 -219 250 -228 250 -4 0 -17 -13 -30 -29z m284 -464 c5 -7 7 -23 6 -37 l-3
-25 -244 -3 c-171 -2 -248 1 -257 9 -8 6 -14 24 -14 40 0 35 -1 35 285 31 156
-2 222 -7 227 -15z m-210 -134 c22 -20 23 -42 2 -71 -30 -43 -94 -14 -94 43 0
44 56 61 92 28z m-168 -18 c12 -33 -4 -45 -65 -45 -44 0 -61 4 -65 15 -13 33
4 45 65 45 43 0 60 -4 65 -15z m384 -17 l-3 -33 -60 0 -60 0 -3 33 -3 32 66 0
66 0 -3 -32z m6 -114 c10 -26 7 -51 -9 -64 -11 -9 -71 -11 -261 -5 -265 8
-269 9 -246 61 l12 24 249 0 c218 0 250 -2 255 -16z"/>
<path d="M3840 6940 c0 -12 7 -20 18 -20 14 0 15 2 2 10 -12 8 -10 10 8 10 13
0 20 4 17 10 -12 19 -45 11 -45 -10z"/>
<path d="M3660 7343 c-17 -21 -33 -49 -37 -63 -3 -14 -12 -32 -20 -41 -8 -9
-11 -24 -7 -34 5 -12 4 -16 -3 -12 -12 8 -40 -90 -29 -100 3 -4 6 3 6 15 0 12
5 22 10 22 6 0 10 -7 10 -15 0 -8 5 -15 10 -15 16 0 12 32 -7 52 -15 16 -15
18 -1 13 11 -5 19 2 26 22 6 15 11 22 11 15 1 -7 -3 -21 -7 -30 -5 -9 -6 -28
-1 -42 7 -24 7 -23 8 7 1 18 6 44 13 58 9 21 9 28 -1 35 -11 6 -9 10 8 19 11
7 21 19 21 27 0 8 -4 12 -10 9 -6 -3 -7 1 -4 10 4 8 15 20 26 26 12 7 17 16
13 26 -3 9 0 20 7 25 9 5 9 8 1 8 -6 0 -26 -17 -43 -37z m30 -2 c0 -5 -7 -11
-14 -14 -10 -4 -13 -1 -9 9 6 15 23 19 23 5z m-78 -123 c-7 -7 -12 -8 -12 -2
0 14 12 26 19 19 2 -3 -1 -11 -7 -17z"/>
<path d="M3574 7030 l-9 -65 -6 50 c-4 28 -5 10 -3 -43 4 -92 28 -182 50 -189
19 -6 25 27 8 50 -15 22 -15 21 -9 -8 4 -23 2 -21 -10 10 -10 25 -14 61 -12
95 l3 55 2 -62 c2 -51 5 -61 17 -57 9 4 15 0 15 -9 0 -9 4 -18 9 -22 6 -3 5
10 0 31 -6 20 -8 43 -5 52 4 12 2 12 -10 -3 -15 -19 -16 -19 -9 12 11 53 14
163 4 163 -5 0 -9 -8 -10 -17 0 -15 -2 -15 -9 2 -6 15 -10 4 -16 -45z m13 -22
c-3 -8 -6 -5 -6 6 -1 11 2 17 5 13 3 -3 4 -12 1 -19z"/>
<path d="M3617 6763 c-9 -15 55 -98 101 -133 25 -19 50 -40 56 -45 23 -22 73
-53 109 -68 45 -19 49 -14 5 9 -17 9 -36 20 -42 25 -48 40 -60 49 -68 49 -4 0
-7 6 -5 13 1 6 -5 11 -14 9 -8 -1 -28 11 -42 28 -30 33 -37 61 -10 39 15 -13
15 -12 3 8 -11 17 -16 19 -24 8 -9 -12 -13 -11 -26 3 -13 14 -12 15 2 9 12 -4
15 -2 11 9 -3 7 -11 14 -18 14 -8 0 -17 4 -20 10 -3 6 1 7 9 4 9 -3 16 -1 16
5 0 12 -36 15 -43 4z"/>
<path d="M4466 6754 c-9 -24 -2 -26 12 -4 7 11 8 20 3 20 -5 0 -12 -7 -15 -16z"/>
<path d="M4426 6683 c-6 -14 -5 -15 5 -6 7 7 10 15 7 18 -3 3 -9 -2 -12 -12z"/>
<path d="M4967 6405 c-49 -17 -85 -50 -104 -95 -14 -32 -14 -35 7 -52 74 -60
195 -40 272 47 55 60 50 74 -36 100 -60 18 -89 18 -139 0z"/>
<path d="M3033 6398 c-18 -6 -33 -17 -33 -25 0 -33 61 -102 112 -127 57 -29
95 -32 163 -14 38 10 45 16 45 38 0 37 -45 97 -90 120 -43 22 -140 26 -197 8z"/>
<path d="M3868 5803 c7 -3 16 -2 19 1 4 3 -2 6 -13 5 -11 0 -14 -3 -6 -6z"/>
<path d="M3830 5789 c0 -5 5 -7 10 -4 6 3 10 8 10 11 0 2 -4 4 -10 4 -5 0 -10
-5 -10 -11z"/>
<path d="M4420 5650 c-24 -24 -25 -38 -4 -68 17 -24 53 -29 72 -10 18 18 14
63 -6 81 -24 22 -38 21 -62 -3z"/>
<path d="M3191 4321 c-25 -16 65 -159 167 -265 70 -72 172 -153 312 -247 329
-219 440 -331 518 -521 18 -42 37 -99 43 -127 11 -55 35 -62 37 -11 1 34 21
78 22 48 0 -10 5 -18 11 -18 6 0 9 6 6 14 -7 18 17 28 32 13 8 -8 9 -4 6 12
-3 18 -2 21 10 11 10 -9 15 -7 19 8 4 11 20 33 36 50 45 48 150 221 150 248 0
8 5 14 12 14 6 0 8 3 5 6 -3 4 -2 14 2 23 6 11 4 21 -6 30 -12 11 -15 11 -11
1 5 -17 -46 -70 -67 -70 -9 0 -14 -4 -11 -9 3 -4 -14 -14 -37 -21 -23 -7 -44
-15 -47 -19 -3 -4 -25 -14 -49 -24 -58 -22 -68 -16 -202 100 -111 98 -205 177
-234 198 -16 11 -34 26 -41 33 -7 6 -16 12 -19 12 -13 0 -187 132 -214 163 -8
9 -21 17 -28 17 -6 0 -16 6 -20 13 -4 6 -35 35 -68 62 -32 28 -93 84 -135 126
-41 42 -93 84 -115 94 -22 10 -47 24 -55 31 -9 8 -21 10 -29 5z"/>
<path d="M4320 4321 c0 -6 -15 -11 -32 -11 -49 0 -128 -40 -128 -65 0 -12 -4
-25 -9 -30 -15 -15 -17 -98 -3 -103 7 -2 12 -12 12 -23 0 -10 6 -19 13 -20 45
-3 61 -7 65 -17 2 -7 10 -12 17 -12 7 0 12 -7 11 -17 0 -10 10 -19 27 -24 15
-4 27 -3 27 2 0 5 7 9 16 9 24 0 88 32 98 49 5 8 22 28 39 44 22 21 26 32 18
40 -6 6 -11 33 -11 59 0 26 -4 48 -8 48 -4 0 -25 16 -46 35 -38 35 -106 58
-106 36z"/>
<path d="M3479 4231 c51 -72 278 -251 317 -251 11 0 13 7 8 28 -4 15 -9 32
-13 39 -9 17 -170 123 -187 123 -8 0 -14 5 -14 10 0 6 -5 10 -11 10 -6 0 -25
11 -43 25 -18 14 -38 25 -44 25 -7 0 -12 5 -12 10 0 6 -5 10 -11 10 -6 0 -1
-13 10 -29z"/>
<path d="M4704 3840 c14 -56 18 -169 8 -235 -8 -51 -8 -72 0 -80 8 -7 9 -6 4
2 -4 7 3 51 15 98 21 85 21 175 -2 175 -5 0 -9 8 -9 18 0 9 -5 24 -11 32 -8
12 -9 9 -5 -10z"/>
<path d="M4682 3468 c-7 -28 -11 -53 -8 -55 2 -2 9 19 16 47 7 28 10 53 8 55
-3 3 -10 -18 -16 -47z"/>
<path d="M4617 3307 c-17 -32 -17 -32 2 -10 10 12 22 19 25 15 4 -3 4 1 0 11
-3 9 -7 17 -8 17 0 0 -9 -15 -19 -33z"/>
<path d="M4600 3253 c-21 -21 -26 -32 -15 -26 25 14 60 51 54 58 -3 2 -21 -12
-39 -32z"/>
<path d="M5393 5865 c-36 -18 -62 -41 -82 -72 -17 -26 -31 -50 -31 -53 0 -14
78 -61 122 -74 68 -21 160 -4 226 41 53 36 102 86 102 104 0 6 -30 24 -67 41
-96 45 -197 50 -270 13z"/>
<path d="M2280 5884 l-25 -15 25 7 c28 7 35 12 29 18 -2 2 -15 -2 -29 -10z"/>
<path d="M2589 5881 c-36 -9 -139 -54 -139 -62 0 -3 25 -33 55 -67 67 -73 120
-97 215 -96 71 0 180 41 180 67 0 20 -50 92 -82 116 -55 44 -151 61 -229 42z"/>
<path d="M2234 5859 c-3 -6 -1 -16 6 -22 10 -9 11 -9 5 2 -6 11 -4 13 10 7 15
-5 16 -4 5 9 -15 18 -17 18 -26 4z"/>
<path d="M2207 5209 c-69 -10 -161 -57 -208 -106 l-34 -35 48 -43 c96 -84 215
-125 317 -107 70 13 170 62 199 98 24 31 20 43 -37 106 -44 49 -90 73 -167 87
-32 6 -59 10 -59 10 -1 -1 -27 -5 -59 -10z"/>
<path d="M1795 5188 c-16 -12 -54 -39 -83 -61 l-53 -40 25 -16 c14 -9 26 -19
26 -23 0 -5 5 -8 11 -8 8 0 8 5 -1 15 -9 11 -10 18 -1 28 6 8 8 17 4 21 -4 4
0 4 10 0 16 -6 25 10 10 19 -5 2 -2 2 5 0 14 -3 92 64 92 79 0 13 -13 9 -45
-14z"/>
<path d="M1750 5006 c0 -3 9 -10 20 -16 11 -6 20 -8 20 -6 0 3 -9 10 -20 16
-11 6 -20 8 -20 6z"/>
<path d="M5803 5206 c-66 -22 -129 -70 -168 -129 -18 -28 -18 -28 11 -58 16
-16 51 -44 78 -61 43 -28 59 -32 135 -36 70 -3 98 0 151 18 64 21 136 67 175
110 l20 22 -45 40 c-100 88 -252 129 -357 94z"/>
<path d="M5497 5137 l-17 -32 20 24 c17 20 26 41 18 41 -2 0 -11 -15 -21 -33z"/>
<path d="M5675 4365 c-73 -16 -175 -72 -175 -97 0 -38 42 -125 77 -162 137
-141 331 -171 554 -85 l86 33 -44 76 c-47 81 -131 169 -191 199 -51 26 -155
51 -205 50 -23 0 -69 -7 -102 -14z"/>
<path d="M6515 3940 c-3 -5 -2 -10 4 -10 5 0 13 5 16 10 3 6 2 10 -4 10 -5 0
-13 -4 -16 -10z"/>
<path d="M1962 4395 c-17 -14 -34 -25 -39 -25 -8 0 -106 -100 -143 -146 -34
-41 -80 -113 -80 -123 0 -6 -4 -11 -9 -11 -5 0 -15 -14 -22 -32 -7 -17 -28
-51 -45 -74 l-33 -43 67 -25 c109 -41 182 -65 182 -60 0 3 8 0 18 -5 26 -14
142 -40 137 -30 -7 11 -136 53 -159 51 -10 0 -15 2 -12 5 7 7 -60 33 -86 33
-10 0 -18 5 -18 10 0 6 -9 10 -20 10 -11 0 -20 5 -20 10 0 6 -9 10 -19 10 -32
0 -31 25 5 64 18 20 38 46 44 56 6 11 16 20 23 20 12 1 67 83 67 101 0 5 5 9
12 9 6 0 9 3 5 6 -3 3 4 17 16 31 42 49 155 161 173 171 16 10 17 11 2 12 -9
0 -30 -11 -46 -25z"/>
<path d="M2240 4347 c-75 -31 -83 -36 -136 -87 -45 -43 -92 -108 -127 -176
l-16 -31 67 -26 c150 -59 275 -71 381 -38 140 44 236 140 255 257 7 40 6 42
-29 63 -111 65 -288 82 -395 38z"/>
<path d="M2030 3811 c8 -5 41 -11 73 -13 33 -3 53 -2 45 2 -7 4 -40 10 -73 13
-33 3 -53 2 -45 -2z"/>
<path d="M1225 2681 c-76 -20 -109 -55 -111 -121 -1 -35 3 -51 14 -55 8 -3 17
-3 20 0 3 3 0 5 -6 5 -12 0 17 89 38 115 25 30 68 45 133 45 58 0 68 -3 96
-29 28 -26 31 -27 31 -10 0 38 -139 70 -215 50z"/>
<path d="M1238 2453 c7 -3 16 -2 19 1 4 3 -2 6 -13 5 -11 0 -14 -3 -6 -6z"/>
<path d="M1396 2365 c25 -19 40 -19 24 0 -7 8 -20 15 -28 15 -13 0 -12 -3 4
-15z"/>
<path d="M1415 2320 c3 -5 8 -10 11 -10 2 0 4 5 4 10 0 6 -5 10 -11 10 -5 0
-7 -4 -4 -10z"/>
<path d="M1471 2247 c-1 -10 -5 -15 -11 -12 -6 4 -7 -1 -3 -11 6 -15 7 -15 15
0 5 9 7 22 4 29 -2 7 -5 4 -5 -6z"/>
<path d="M1435 2210 c-3 -5 -1 -10 4 -10 6 0 11 5 11 10 0 6 -2 10 -4 10 -3 0
-8 -4 -11 -10z"/>
<path d="M1635 2660 c3 -5 8 -10 11 -10 2 0 4 5 4 10 0 6 -5 10 -11 10 -5 0
-7 -4 -4 -10z"/>
<path d="M1734 2624 c12 -12 16 -38 16 -115 l0 -99 60 0 c68 0 103 13 119 44
19 34 21 87 6 123 -18 44 -64 63 -150 63 -60 0 -65 -1 -51 -16z"/>
<path d="M1638 2153 c6 -2 18 -2 25 0 6 3 1 5 -13 5 -14 0 -19 -2 -12 -5z"/>
<path d="M5481 2460 c-25 -60 -42 -112 -39 -115 3 -3 44 -5 90 -3 l84 3 -40
112 c-23 62 -43 113 -46 113 -3 0 -25 -49 -49 -110z"/>
<path d="M1104 2171 c1 -17 26 -28 26 -11 0 6 -4 9 -9 5 -5 -3 -11 0 -14 7 -2
9 -4 8 -3 -1z"/>
<path d="M5530 1665 l0 -95 55 0 c47 0 60 4 82 26 22 22 25 32 20 77 -6 67
-30 87 -103 87 l-54 0 0 -95z"/>
<path d="M3530 920 l0 -40 58 0 c60 0 82 11 82 42 0 25 -31 38 -89 38 l-51 0
0 -40z"/>
<path d="M4307 953 c-4 -3 -7 -22 -7 -40 l0 -34 63 3 c57 3 62 5 65 27 3 15
-3 30 -14 38 -18 13 -96 18 -107 6z"/>
<path d="M5060 920 l0 -40 49 0 c67 0 81 7 81 40 0 33 -14 40 -81 40 l-49 0 0
-40z"/>
</g>
</svg>
