<?xml version="1.0" encoding="UTF-8"?>
<svg xmlns="http://www.w3.org/2000/svg" xmlns:xlink="http://www.w3.org/1999/xlink"
  viewBox="0 0 1080 1920" width="1080" height="1920">
  <defs>
    <linearGradient id="bgGrad" x1="0%" y1="0%" x2="100%" y2="100%">
      <stop offset="0%" stop-color="#0a1f2e"/>
      <stop offset="100%" stop-color="#051018"/>
    </linearGradient>
    <linearGradient id="goldGrad" x1="0%" y1="0%" x2="100%" y2="0%">
      <stop offset="0%" stop-color="#D4AF37"/>
      <stop offset="50%" stop-color="#F3E5AB"/>
      <stop offset="100%" stop-color="#D4AF37"/>
    </linearGradient>
  </defs>
  <rect width="1080" height="1920" fill="url(#bgGrad)"/><circle cx="490.471004369176" cy="1397.6445270680306" r="117.63087667304173" fill="#D4AF37" opacity="0.08745649974556313"/><circle cx="736.6977403654696" cy="993.6444604710159" r="41.87119879002795" fill="#D4AF37" opacity="0.08019710711687533"/><circle cx="33.355497544031124" cy="152.63184621243911" r="53.62109364347634" fill="#D4AF37" opacity="0.10296863147334068"/><circle cx="525.4716685092744" cy="786.3768444828473" r="146.30284125572334" fill="#D4AF37" opacity="0.07041754039974654"/><circle cx="811.2226389639291" cy="531.3691910089639" r="106.83367958928801" fill="#D4AF37" opacity="0.07143014228104627"/><circle cx="916.820371967573" cy="1137.765219377135" r="135.00401610043275" fill="#D4AF37" opacity="0.08203074860110017"/><circle cx="489.504429948986" cy="1317.2600424636714" r="172.46153366981216" fill="#D4AF37" opacity="0.05306058975221644"/><circle cx="471.9898724481369" cy="237.85065583684542" r="49.66548451191325" fill="#D4AF37" opacity="0.05688714463905165"/><circle cx="26.885309337531506" cy="749.1596047106755" r="180.45712797013775" fill="#D4AF37" opacity="0.042909345182505755"/><circle cx="808.3810284439297" cy="106.57276878745553" r="184.0449336022557" fill="#D4AF37" opacity="0.03179953757375435"/><circle cx="57.94430807041405" cy="1404.4333125319642" r="185.89064663824686" fill="#D4AF37" opacity="0.11105521468078272"/><circle cx="659.9185188486414" cy="1298.7548029597426" r="174.33151719563782" fill="#D4AF37" opacity="0.09176796072327342"/>
  <text x="540" y="80" text-anchor="middle" fill="#ffffff" font-size="24" font-weight="bold" letter-spacing="2">TODAY'S GOLD RATE</text><text x="540" y="120" text-anchor="middle" fill="#D4AF37" font-size="28" font-weight="bold" font-family="Georgia, serif">15th June 2026</text>
    <g transform="translate(540, 480)">
      <circle cx="0" cy="-180" r="150" fill="#0a1f2e" fill-opacity="0.7" stroke="#D4AF37" stroke-width="4"/>
      <text x="0" y="-220" text-anchor="middle" fill="#F3E5AB" font-size="16" font-weight="bold">8GM</text>
      <text x="0" y="-165" text-anchor="middle" fill="#ffffff" font-size="42" font-weight="bold" font-family="'Book Antiqua', serif">₹97,216</text>
      <text x="0" y="-130" text-anchor="middle" fill="#8ecae6" font-size="14" font-weight="bold">22K</text>

      <circle cx="-170" cy="80" r="115" fill="#0a1f2e" fill-opacity="0.7" stroke="#D4AF37" stroke-width="3"/>
      <text x="-170" y="50" text-anchor="middle" fill="#F3E5AB" font-size="14" font-weight="bold">1GM</text>
      <text x="-170" y="95" text-anchor="middle" fill="#ffffff" font-size="30" font-weight="bold" font-family="'Book Antiqua', serif">₹12,152</text>
      <text x="-170" y="125" text-anchor="middle" fill="#8ecae6" font-size="12" font-weight="bold">22K</text>

      <circle cx="170" cy="80" r="115" fill="#0a1f2e" fill-opacity="0.7" stroke="#D4AF37" stroke-width="3"/>
      <text x="170" y="50" text-anchor="middle" fill="#F3E5AB" font-size="14" font-weight="bold">1GM</text>
      <text x="170" y="95" text-anchor="middle" fill="#ffffff" font-size="30" font-weight="bold" font-family="'Book Antiqua', serif">₹217</text>
      <text x="170" y="125" text-anchor="middle" fill="#8ecae6" font-size="12" font-weight="bold">SILVER</text>
    </g>
  
    <circle cx="540" cy="1050" r="110" fill="#D4AF37" opacity="0.08"/>
    <circle cx="540" cy="1050" r="100" fill="none" stroke="#D4AF37" stroke-width="2" opacity="0.4"/>
    <g transform="translate(540, 1050)"><circle cx="0" cy="0" r="45" fill="none" stroke="#D4AF37" stroke-width="5.434990394334299"/><polygon points="0,-8.474142327414958 -5.084485396448975,0 5.084485396448975,0" fill="#F3E5AB"/><circle cx="0" cy="-2.5422426982244875" r="5.606760072155632" fill="#F3E5AB" opacity="0.95"/></g>
  
    
    <g transform="translate(540, 1350) scale(0.55)">
      <circle cx="0" cy="0" r="50" fill="none" stroke="url(#goldGrad)" stroke-width="3"/>
      <path d="M0,-35 L6,-18 L0,-22 L-6,-18 Z" fill="url(#goldGrad)"/>
      <rect x="-2" y="-22" width="4" height="14" fill="url(#goldGrad)"/>
      <ellipse cx="0" cy="5" rx="14" ry="18" fill="url(#goldGrad)"/>
      <circle cx="0" cy="-10" r="9" fill="url(#goldGrad)"/>
      <g fill="none" stroke="url(#goldGrad)" stroke-width="2" opacity="0.8">
        <path d="M-12,8 Q-28,-5 -32,-22"/>
        <path d="M-6,12 Q-16,-2 -18,-25"/>
        <path d="M0,14 Q0,-2 0,-28"/>
        <path d="M6,12 Q16,-2 18,-25"/>
        <path d="M12,8 Q28,-5 32,-22"/>
      </g>
    </g>
  
    <text x="540" y="1415" text-anchor="middle" fill="url(#goldGrad)" font-size="26" font-family="'Book Antiqua', serif" font-weight="bold" letter-spacing="3">SRI VELMAYIL JEWELLERY</text>
    <text x="540" y="1442" text-anchor="middle" fill="#8ecae6" font-size="13" font-family="'Segoe UI', sans-serif" letter-spacing="8" opacity="0.85">— TIRUPUR —</text>
  
    <rect x="0" y="1820" width="1080" height="120" fill="#0a1f2e" fill-opacity="0.85"/>
    <line x1="60" y1="1840" x2="1020" y2="1840" stroke="#D4AF37" stroke-width="1" opacity="0.3"/>
    <g transform="translate(80, 1875)">
      <polygon points="0,-12 -14,12 14,12" fill="none" stroke="#D4AF37" stroke-width="2"/>
      <text x="0" y="28" text-anchor="middle" fill="#D4AF37" font-size="9" font-weight="bold">916 BIS HUID</text>
    </g>
    <text x="540" y="1880" text-anchor="middle" fill="#ffffff" font-size="16" font-weight="bold">📞 9443476183</text>
    <text x="1000" y="1875" text-anchor="end" fill="#8ecae6" font-size="12" opacity="0.85">📍 89 New Market Street, Tirupur</text>
  
</svg>