<?xml version="1.0" encoding="UTF-8"?>
<svg xmlns="http://www.w3.org/2000/svg" xmlns:xlink="http://www.w3.org/1999/xlink"
  viewBox="0 0 1080 1920" width="1080" height="1920">
  <defs>
    <linearGradient id="bgGrad" x1="0%" y1="0%" x2="100%" y2="100%">
      <stop offset="0%" stop-color="#0a1628"/>
      <stop offset="100%" stop-color="#050d18"/>
    </linearGradient>
    <linearGradient id="goldGrad" x1="0%" y1="0%" x2="100%" y2="0%">
      <stop offset="0%" stop-color="#D4AF37"/>
      <stop offset="50%" stop-color="#F3E5AB"/>
      <stop offset="100%" stop-color="#D4AF37"/>
    </linearGradient>
  </defs>
  <rect width="1080" height="1920" fill="url(#bgGrad)"/><ellipse cx="483.1800732791238" cy="511.104484974504" rx="31.382551879047" ry="125.78966094254484" fill="none" stroke="#D4AF37" stroke-width="1" opacity="0.08" transform="rotate(307.326603296517 483.1800732791238 511.104484974504)"/><ellipse cx="954.6660503509138" cy="1052.9941839845796" rx="56.90773473764559" ry="128.936249398567" fill="none" stroke="#D4AF37" stroke-width="1" opacity="0.08" transform="rotate(166.17522618377137 954.6660503509138 1052.9941839845796)"/><ellipse cx="81.0839623036645" cy="1596.7328986495108" rx="41.714326345095714" ry="118.82972697618392" fill="none" stroke="#D4AF37" stroke-width="1" opacity="0.08" transform="rotate(44.8861305461136 81.0839623036645 1596.7328986495108)"/><ellipse cx="603.5956639643719" cy="341.9164040888812" rx="30.75562165654788" ry="149.5204206085954" fill="none" stroke="#D4AF37" stroke-width="1" opacity="0.08" transform="rotate(158.8366895716979 603.5956639643719 341.9164040888812)"/><ellipse cx="504.7296174473405" cy="1192.3287814039074" rx="41.193613276065896" ry="115.90554217892284" fill="none" stroke="#D4AF37" stroke-width="1" opacity="0.08" transform="rotate(17.790671808450178 504.7296174473405 1192.3287814039074)"/><ellipse cx="623.4712884234929" cy="927.9077446161842" rx="58.78832104968682" ry="141.56168657034794" fill="none" stroke="#D4AF37" stroke-width="1" opacity="0.08" transform="rotate(69.06501538033133 623.4712884234929 927.9077446161842)"/><ellipse cx="407.14732226649977" cy="80.08995302029882" rx="33.95455237380653" ry="85.49179245297964" fill="none" stroke="#D4AF37" stroke-width="1" opacity="0.08" transform="rotate(162.2250482833246 407.14732226649977 80.08995302029882)"/><ellipse cx="709.1641369174832" cy="74.04813147526993" rx="39.556253938522424" ry="81.52847026151463" fill="none" stroke="#D4AF37" stroke-width="1" opacity="0.08" transform="rotate(116.00088452547871 709.1641369174832 74.04813147526993)"/>
  
    
    <g transform="translate(540, 120) scale(0.55)">
      <circle cx="0" cy="0" r="50" fill="none" stroke="url(#goldGrad)" stroke-width="3"/>
      <path d="M0,-35 L6,-18 L0,-22 L-6,-18 Z" fill="url(#goldGrad)"/>
      <rect x="-2" y="-22" width="4" height="14" fill="url(#goldGrad)"/>
      <ellipse cx="0" cy="5" rx="14" ry="18" fill="url(#goldGrad)"/>
      <circle cx="0" cy="-10" r="9" fill="url(#goldGrad)"/>
      <g fill="none" stroke="url(#goldGrad)" stroke-width="2" opacity="0.8">
        <path d="M-12,8 Q-28,-5 -32,-22"/>
        <path d="M-6,12 Q-16,-2 -18,-25"/>
        <path d="M0,14 Q0,-2 0,-28"/>
        <path d="M6,12 Q16,-2 18,-25"/>
        <path d="M12,8 Q28,-5 32,-22"/>
      </g>
    </g>
  
    <text x="540" y="185" text-anchor="middle" fill="url(#goldGrad)" font-size="22" font-family="Garamond, serif" font-weight="700" letter-spacing="3">SRI VELMAYIL JEWELLERY</text>
    <text x="540" y="212" text-anchor="middle" fill="#8fa8c8" font-size="13" font-family="Tahoma, sans-serif" letter-spacing="8" opacity="0.85">— TIRUPUR —</text>
  
    <text x="80" y="280" text-anchor="start" fill="#8fa8c8" font-size="18" font-family="Tahoma, sans-serif">Today's</text>
    <text x="200" y="280" text-anchor="start" fill="#ffffff" font-size="22" font-weight="700" font-family="Tahoma, sans-serif"> GOLD RATE</text>
    <text x="80" y="325" text-anchor="start" fill="#ffffff" font-size="28" font-weight="700" font-family="Garamond, serif">15TH JUNE 2026</text>
  
      <g transform="translate(60, 340)">
        <rect width="300" height="120" rx="8" fill="#0a1628" fill-opacity="0.6" stroke="#D4AF37" stroke-width="2"/>
        <text x="150" y="35" text-anchor="middle" fill="#F3E5AB" font-size="14" font-weight="bold" letter-spacing="1">1GM 22K</text>
        <text x="150" y="80" text-anchor="middle" fill="#ffffff" font-size="40" font-weight="700" font-family="Garamond, serif">₹12,152</text>
        <line x1="300" y1="20" x2="300" y2="100" stroke="#D4AF37" stroke-width="1" stroke-dasharray="4,4" opacity="0.4"/>
      </g>
    
      <g transform="translate(390, 340)">
        <rect width="300" height="120" rx="8" fill="#0a1628" fill-opacity="0.6" stroke="#D4AF37" stroke-width="2"/>
        <text x="150" y="35" text-anchor="middle" fill="#F3E5AB" font-size="14" font-weight="bold" letter-spacing="1">8GM 22K</text>
        <text x="150" y="80" text-anchor="middle" fill="#ffffff" font-size="40" font-weight="700" font-family="Garamond, serif">₹97,216</text>
        <line x1="300" y1="20" x2="300" y2="100" stroke="#D4AF37" stroke-width="1" stroke-dasharray="4,4" opacity="0.4"/>
      </g>
    
      <g transform="translate(720, 340)">
        <rect width="300" height="120" rx="8" fill="#0a1628" fill-opacity="0.6" stroke="#D4AF37" stroke-width="2"/>
        <text x="150" y="35" text-anchor="middle" fill="#F3E5AB" font-size="14" font-weight="bold" letter-spacing="1">1GM SILVER</text>
        <text x="150" y="80" text-anchor="middle" fill="#ffffff" font-size="40" font-weight="700" font-family="Garamond, serif">₹217</text>
        
      </g>
    
    <circle cx="540" cy="900" r="150" fill="#D4AF37" opacity="0.08"/>
    <circle cx="540" cy="900" r="140" fill="none" stroke="#D4AF37" stroke-width="2" opacity="0.4"/>
    <g transform="translate(540, 900)"><path d="M-104.99611469450976,-42 Q0,84 104.99611469450976,-42" fill="none" stroke="#D4AF37" stroke-width="4.062458077503795"/><circle cx="-89.24669749033329" cy="-13.999999999999998" r="6.969978804672117" fill="#F3E5AB" opacity="0.9"/><circle cx="-82.45319715554535" cy="-22.036352079666884" r="4.4337781839387285" fill="#F3E5AB" opacity="0.9"/><circle cx="-63.106944993919114" cy="-28.849242404917497" r="6.509965368090166" fill="#F3E5AB" opacity="0.9"/><circle cx="-34.153232522849635" cy="-33.401470182737015" r="4.9879531515650015" fill="#F3E5AB" opacity="0.9"/><circle cx="-1.6394352362401317e-14" cy="-35" r="4.528641924754383" fill="#F3E5AB" opacity="0.9"/><circle cx="34.153232522849606" cy="-33.401470182737015" r="4.884856513594143" fill="#F3E5AB" opacity="0.9"/><circle cx="63.10694499391909" cy="-28.8492424049175" r="7.783448356933378" fill="#F3E5AB" opacity="0.9"/><circle cx="82.45319715554533" cy="-22.036352079666898" r="4.41653667242875" fill="#F3E5AB" opacity="0.9"/><circle cx="0" cy="49" r="11.09782233098319" fill="#D4AF37" stroke="#F3E5AB" stroke-width="1"/></g>
  <ellipse cx="80.16584530488201" cy="762.9176318002097" rx="12" ry="8" fill="#D4AF37" opacity="0.12" transform="rotate(0 80.16584530488201 762.9176318002097)"/><ellipse cx="74.30798092861296" cy="777.0597674239407" rx="12" ry="8" fill="#D4AF37" opacity="0.12" transform="rotate(45.00331476267378 74.30798092861296 777.0597674239407)"/><ellipse cx="60.16584530488201" cy="782.9176318002097" rx="12" ry="8" fill="#D4AF37" opacity="0.12" transform="rotate(90.00662952534756 60.16584530488201 782.9176318002097)"/><ellipse cx="46.02370968115106" cy="777.0597674239407" rx="12" ry="8" fill="#D4AF37" opacity="0.12" transform="rotate(135.00994428802136 46.02370968115106 777.0597674239407)"/><ellipse cx="40.16584530488201" cy="762.9176318002097" rx="12" ry="8" fill="#D4AF37" opacity="0.12" transform="rotate(180.01325905069513 40.16584530488201 762.9176318002097)"/><ellipse cx="46.02370968115106" cy="748.7754961764788" rx="12" ry="8" fill="#D4AF37" opacity="0.12" transform="rotate(225.01657381336892 46.02370968115106 748.7754961764788)"/><ellipse cx="60.165845304882005" cy="742.9176318002097" rx="12" ry="8" fill="#D4AF37" opacity="0.12" transform="rotate(270.0198885760427 60.165845304882005 742.9176318002097)"/><ellipse cx="74.30798092861296" cy="748.7754961764788" rx="12" ry="8" fill="#D4AF37" opacity="0.12" transform="rotate(315.0232033387165 74.30798092861296 748.7754961764788)"/><circle cx="60.16584530488201" cy="762.9176318002097" r="8" fill="#F3E5AB" opacity="0.2"/><ellipse cx="963.9526658122918" cy="1156.1283083298508" rx="12" ry="8" fill="#D4AF37" opacity="0.12" transform="rotate(0 963.9526658122918 1156.1283083298508)"/><ellipse cx="953.9526658122918" cy="1173.4488164055397" rx="12" ry="8" fill="#D4AF37" opacity="0.12" transform="rotate(60.00441968356504 953.9526658122918 1173.4488164055397)"/><ellipse cx="933.9526658122918" cy="1173.4488164055397" rx="12" ry="8" fill="#D4AF37" opacity="0.12" transform="rotate(120.00883936713008 933.9526658122918 1173.4488164055397)"/><ellipse cx="923.9526658122918" cy="1156.1283083298508" rx="12" ry="8" fill="#D4AF37" opacity="0.12" transform="rotate(180.01325905069513 923.9526658122918 1156.1283083298508)"/><ellipse cx="933.9526658122918" cy="1138.807800254162" rx="12" ry="8" fill="#D4AF37" opacity="0.12" transform="rotate(240.01767873426016 933.9526658122918 1138.807800254162)"/><ellipse cx="953.9526658122918" cy="1138.807800254162" rx="12" ry="8" fill="#D4AF37" opacity="0.12" transform="rotate(300.02209841782525 953.9526658122918 1138.807800254162)"/><circle cx="943.9526658122918" cy="1156.1283083298508" r="8" fill="#F3E5AB" opacity="0.2"/><ellipse cx="61.43381100281496" cy="714.2175217366009" rx="12" ry="8" fill="#D4AF37" opacity="0.12" transform="rotate(0 61.43381100281496 714.2175217366009)"/><ellipse cx="55.575946626545914" cy="728.3596573603319" rx="12" ry="8" fill="#D4AF37" opacity="0.12" transform="rotate(45.00331476267378 55.575946626545914 728.3596573603319)"/><ellipse cx="41.43381100281496" cy="734.2175217366009" rx="12" ry="8" fill="#D4AF37" opacity="0.12" transform="rotate(90.00662952534756 41.43381100281496 734.2175217366009)"/><ellipse cx="27.291675379084012" cy="728.3596573603319" rx="12" ry="8" fill="#D4AF37" opacity="0.12" transform="rotate(135.00994428802136 27.291675379084012 728.3596573603319)"/><ellipse cx="21.433811002814963" cy="714.2175217366009" rx="12" ry="8" fill="#D4AF37" opacity="0.12" transform="rotate(180.01325905069513 21.433811002814963 714.2175217366009)"/><ellipse cx="27.29167537908401" cy="700.07538611287" rx="12" ry="8" fill="#D4AF37" opacity="0.12" transform="rotate(225.01657381336892 27.29167537908401 700.07538611287)"/><ellipse cx="41.433811002814956" cy="694.2175217366009" rx="12" ry="8" fill="#D4AF37" opacity="0.12" transform="rotate(270.0198885760427 41.433811002814956 694.2175217366009)"/><ellipse cx="55.575946626545914" cy="700.07538611287" rx="12" ry="8" fill="#D4AF37" opacity="0.12" transform="rotate(315.0232033387165 55.575946626545914 700.07538611287)"/><circle cx="41.43381100281496" cy="714.2175217366009" r="8" fill="#F3E5AB" opacity="0.2"/><ellipse cx="970.4190983766867" cy="1163.1034545703824" rx="12" ry="8" fill="#D4AF37" opacity="0.12" transform="rotate(0 970.4190983766867 1163.1034545703824)"/><ellipse cx="964.5612340004177" cy="1177.2455901941132" rx="12" ry="8" fill="#D4AF37" opacity="0.12" transform="rotate(45.00331476267378 964.5612340004177 1177.2455901941132)"/><ellipse cx="950.4190983766867" cy="1183.1034545703824" rx="12" ry="8" fill="#D4AF37" opacity="0.12" transform="rotate(90.00662952534756 950.4190983766867 1183.1034545703824)"/><ellipse cx="936.2769627529558" cy="1177.2455901941134" rx="12" ry="8" fill="#D4AF37" opacity="0.12" transform="rotate(135.00994428802136 936.2769627529558 1177.2455901941134)"/><ellipse cx="930.4190983766867" cy="1163.1034545703824" rx="12" ry="8" fill="#D4AF37" opacity="0.12" transform="rotate(180.01325905069513 930.4190983766867 1163.1034545703824)"/><ellipse cx="936.2769627529558" cy="1148.9613189466515" rx="12" ry="8" fill="#D4AF37" opacity="0.12" transform="rotate(225.01657381336892 936.2769627529558 1148.9613189466515)"/><ellipse cx="950.4190983766867" cy="1143.1034545703824" rx="12" ry="8" fill="#D4AF37" opacity="0.12" transform="rotate(270.0198885760427 950.4190983766867 1143.1034545703824)"/><ellipse cx="964.5612340004177" cy="1148.9613189466513" rx="12" ry="8" fill="#D4AF37" opacity="0.12" transform="rotate(315.0232033387165 964.5612340004177 1148.9613189466513)"/><circle cx="950.4190983766867" cy="1163.1034545703824" r="8" fill="#F3E5AB" opacity="0.2"/>
    <rect x="0" y="1820" width="1080" height="120" fill="#0a1628" fill-opacity="0.85"/>
    <line x1="60" y1="1840" x2="1020" y2="1840" stroke="#D4AF37" stroke-width="1" opacity="0.3"/>
    <g transform="translate(80, 1875)">
      <polygon points="0,-12 -14,12 14,12" fill="none" stroke="#D4AF37" stroke-width="2"/>
      <text x="0" y="28" text-anchor="middle" fill="#D4AF37" font-size="9" font-weight="bold">916 BIS HUID</text>
    </g>
    <text x="540" y="1880" text-anchor="middle" fill="#ffffff" font-size="16" font-weight="bold">📞 9443476183</text>
    <text x="1000" y="1875" text-anchor="end" fill="#8fa8c8" font-size="12" opacity="0.85">📍 89 New Market Street, Tirupur</text>
  
</svg>