<?xml version="1.0" encoding="UTF-8"?>
<svg xmlns="http://www.w3.org/2000/svg" xmlns:xlink="http://www.w3.org/1999/xlink"
  viewBox="0 0 1080 1920" width="1080" height="1920">
  <defs>
    <linearGradient id="bgGrad" x1="0%" y1="0%" x2="100%" y2="100%">
      <stop offset="0%" stop-color="#1a0b2e"/>
      <stop offset="100%" stop-color="#0c0418"/>
    </linearGradient>
    <linearGradient id="goldGrad" x1="0%" y1="0%" x2="100%" y2="0%">
      <stop offset="0%" stop-color="#D4AF37"/>
      <stop offset="50%" stop-color="#F3E5AB"/>
      <stop offset="100%" stop-color="#D4AF37"/>
    </linearGradient>
  </defs>
  <rect width="1080" height="1920" fill="url(#bgGrad)"/><polygon points="436.3793127018766,1820.0591280516787 442.2999493221752,1825.9797646719774 436.3793127018766,1831.900401292276 430.45867608157795,1825.9797646719774" fill="#F3E5AB" opacity="0.26047584843866145"/><polygon points="423.30888167331824,1048.5968930223928 427.83096241003926,1053.1189737591137 423.30888167331824,1057.6410544958346 418.7868009365972,1053.1189737591137" fill="#F3E5AB" opacity="0.1458215226380355"/><polygon points="80.39867986030754,315.82746594755673 85.67385394654596,321.1026400337951 80.39867986030754,326.3778141200335 75.12350577406912,321.1026400337951" fill="#F3E5AB" opacity="0.23881548106560066"/><polygon points="978.4495116942091,1278.2590182407375 981.8684297705706,1281.677936317099 978.4495116942091,1285.0968543934605 975.0305936178477,1281.677936317099" fill="#F3E5AB" opacity="0.38170972054983465"/><polygon points="342.9843268385011,1023.103644668221 346.70191347850664,1026.8212313082265 342.9843268385011,1030.538817948232 339.26674019849554,1026.8212313082265" fill="#F3E5AB" opacity="0.3609007326987579"/><polygon points="571.0131862675895,243.25965883327618 574.1990073548621,246.44547992054885 571.0131862675895,249.63130100782152 567.8273651803169,246.44547992054885" fill="#F3E5AB" opacity="0.25712768617749937"/><polygon points="882.0817321558312,1895.3643136912624 884.8043376326601,1898.0869191680913 882.0817321558312,1900.8095246449202 879.3591266790023,1898.0869191680913" fill="#F3E5AB" opacity="0.16227060334037116"/><polygon points="655.3159276352412,92.27877722706532 660.4577526417168,97.42060223354083 655.3159276352412,102.56242724001635 650.1741026287657,97.42060223354083" fill="#F3E5AB" opacity="0.1489667911538545"/><polygon points="305.4991946793154,359.3254898128337 310.5666584228786,364.39295355639695 305.4991946793154,369.46041729996017 300.43173093575217,364.39295355639695" fill="#F3E5AB" opacity="0.31473590239392213"/><polygon points="238.7239266547597,55.945841148445226 241.51918807767254,58.74110257135806 238.7239266547597,61.5363639942709 235.92866523184688,58.74110257135806" fill="#F3E5AB" opacity="0.2469069982384397"/><polygon points="237.31412943202454,172.83335481661683 239.73403461625242,175.2532600008447 237.31412943202454,177.67316518507258 234.89422424779667,175.2532600008447" fill="#F3E5AB" opacity="0.20098445019776418"/><polygon points="524.3617127503843,258.0768235512793 528.1703005863077,261.8854113872027 524.3617127503843,265.69399922312607 520.5531249144609,261.8854113872027" fill="#F3E5AB" opacity="0.1701831635275699"/><polygon points="966.3523433416639,783.1069950471698 972.2861171758605,789.0407688813664 966.3523433416639,794.974542715563 960.4185695074673,789.0407688813664" fill="#F3E5AB" opacity="0.3202623895558179"/><polygon points="899.9347991868246,1567.8314650262066 903.9634979422796,1571.8601637816616 899.9347991868246,1575.8888625371167 895.9061004313697,1571.8601637816616" fill="#F3E5AB" opacity="0.12549987679859612"/><polygon points="635.1534082322878,535.1814055044031 639.2353649225414,539.2633621946567 635.1534082322878,543.3453188849103 631.0714515420342,539.2633621946567" fill="#F3E5AB" opacity="0.35845810781089416"/><polygon points="739.5058899927008,413.48343644615585 744.681603344792,418.6591497982472 739.5058899927008,423.83486315033855 734.3301766406095,418.6591497982472" fill="#F3E5AB" opacity="0.2660736287162394"/><polygon points="1078.1239751708918,1541.8993608317332 1082.2703241373135,1546.045709798155 1078.1239751708918,1550.1920587645768 1073.97762620447,1546.045709798155" fill="#F3E5AB" opacity="0.22653198691693321"/><polygon points="803.1796937465479,210.1332247202594 808.3619610819611,215.31549205567268 803.1796937465479,220.49775939108596 797.9974264111346,215.31549205567268" fill="#F3E5AB" opacity="0.12753345167965952"/><polygon points="557.0082446159872,346.7870469249664 561.4591596680314,351.2379619770105 557.0082446159872,355.68887702905465 552.5573295639431,351.2379619770105" fill="#F3E5AB" opacity="0.13969688707934402"/><polygon points="1028.0994471237989,614.0965153017049 1031.6175372280343,617.6146054059403 1028.0994471237989,621.1326955101757 1024.5813570195635,617.6146054059403" fill="#F3E5AB" opacity="0.2905300981276949"/><polygon points="141.6963196747902,156.515088620144 145.27388394183842,160.09265288719223 141.6963196747902,163.67021715424045 138.118755407742,160.09265288719223" fill="#F3E5AB" opacity="0.259199142790585"/><polygon points="935.9783398881353,1397.7895147556342 939.0059396578055,1400.8171145253043 935.9783398881353,1403.8447142949744 932.9507401184652,1400.8171145253043" fill="#F3E5AB" opacity="0.31520140815079345"/><polygon points="324.2428342292484,1684.2192720903263 327.7049945869529,1687.6814324480308 324.2428342292484,1691.1435928057354 320.78067387154385,1687.6814324480308" fill="#F3E5AB" opacity="0.2896863851134539"/><polygon points="932.6716745576557,518.1322693416217 935.1357486817387,520.5963434657048 932.6716745576557,523.0604175897878 930.2076004335727,520.5963434657048" fill="#F3E5AB" opacity="0.37703733521237726"/><polygon points="599.3751386733494,951.3931445101211 604.3543395477853,956.3723453845571 599.3751386733494,961.351546258993 594.3959377989135,956.3723453845571" fill="#F3E5AB" opacity="0.35718284748232265"/><polygon points="259.6246934119842,549.4211724208865 265.27657951719743,555.0730585260997 259.6246934119842,560.7249446313128 253.972807306771,555.0730585260997" fill="#F3E5AB" opacity="0.1937329781183349"/><polygon points="252.59345664884287,1662.740929784943 257.82118930837254,1667.9686624444728 252.59345664884287,1673.1963951040025 247.36572398931324,1667.9686624444728" fill="#F3E5AB" opacity="0.137711106788098"/><polygon points="758.0658250470327,89.94319657976106 761.1432232699759,93.02059480270427 758.0658250470327,96.09799302564747 754.9884268240895,93.02059480270427" fill="#F3E5AB" opacity="0.3873966909827634"/><polygon points="994.2676053515333,1590.0868355595383 996.4364393189888,1592.2556695269939 994.2676053515333,1594.4245034944495 992.0987713840778,1592.2556695269939" fill="#F3E5AB" opacity="0.2194390755793444"/><polygon points="405.16083032373416,240.21905555223958 410.4182762861422,245.47650151464762 405.16083032373416,250.73394747705566 399.9033843613261,245.47650151464762" fill="#F3E5AB" opacity="0.3920722002555358"/>
  <polygon points="540,250 1020,450 1020,1100 60,1100 60,450" fill="none" stroke="#D4AF37" stroke-width="2" opacity="0.3"/>
    
    <g transform="translate(540, 100) scale(0.55)">
      <circle cx="0" cy="0" r="50" fill="none" stroke="url(#goldGrad)" stroke-width="3"/>
      <path d="M0,-35 L6,-18 L0,-22 L-6,-18 Z" fill="url(#goldGrad)"/>
      <rect x="-2" y="-22" width="4" height="14" fill="url(#goldGrad)"/>
      <ellipse cx="0" cy="5" rx="14" ry="18" fill="url(#goldGrad)"/>
      <circle cx="0" cy="-10" r="9" fill="url(#goldGrad)"/>
      <g fill="none" stroke="url(#goldGrad)" stroke-width="2" opacity="0.8">
        <path d="M-12,8 Q-28,-5 -32,-22"/>
        <path d="M-6,12 Q-16,-2 -18,-25"/>
        <path d="M0,14 Q0,-2 0,-28"/>
        <path d="M6,12 Q16,-2 18,-25"/>
        <path d="M12,8 Q28,-5 32,-22"/>
      </g>
    </g>
  
    <text x="540" y="165" text-anchor="middle" fill="url(#goldGrad)" font-size="24" font-family="Cambria, serif" font-weight="900" letter-spacing="3">SRI VELMAYIL JEWELLERY</text>
    <text x="540" y="192" text-anchor="middle" fill="#F3E5AB" font-size="13" font-family="Calibri, sans-serif" letter-spacing="8" opacity="0.85">— TIRUPUR —</text>
  
    <circle cx="540" cy="600" r="140" fill="#D4AF37" opacity="0.08"/>
    <circle cx="540" cy="600" r="130" fill="none" stroke="#D4AF37" stroke-width="2" opacity="0.4"/>
    <g transform="translate(540, 600)"><line x1="0" y1="-65" x2="0" y2="-13" stroke="#D4AF37" stroke-width="2"/><circle cx="0" cy="19.5" r="45.5" fill="none" stroke="#D4AF37" stroke-width="3.475816345285453"/><circle cx="0" cy="19.5" r="11.045185001609088" fill="#F3E5AB" opacity="0.8"/></g>
  
      <g transform="translate(60, 1250)">
        <rect width="300" height="120" rx="8" fill="#1a0b2e" fill-opacity="0.6" stroke="#D4AF37" stroke-width="2"/>
        <text x="150" y="35" text-anchor="middle" fill="#F3E5AB" font-size="14" font-weight="bold" letter-spacing="1">1GM 22K</text>
        <text x="150" y="80" text-anchor="middle" fill="#ffffff" font-size="42" font-weight="900" font-family="Cambria, serif">₹12,152</text>
        <line x1="300" y1="20" x2="300" y2="100" stroke="#D4AF37" stroke-width="1" stroke-dasharray="4,4" opacity="0.4"/>
      </g>
    
      <g transform="translate(390, 1250)">
        <rect width="300" height="120" rx="8" fill="#1a0b2e" fill-opacity="0.6" stroke="#D4AF37" stroke-width="2"/>
        <text x="150" y="35" text-anchor="middle" fill="#F3E5AB" font-size="14" font-weight="bold" letter-spacing="1">8GM 22K</text>
        <text x="150" y="80" text-anchor="middle" fill="#ffffff" font-size="42" font-weight="900" font-family="Cambria, serif">₹97,216</text>
        <line x1="300" y1="20" x2="300" y2="100" stroke="#D4AF37" stroke-width="1" stroke-dasharray="4,4" opacity="0.4"/>
      </g>
    
      <g transform="translate(720, 1250)">
        <rect width="300" height="120" rx="8" fill="#1a0b2e" fill-opacity="0.6" stroke="#D4AF37" stroke-width="2"/>
        <text x="150" y="35" text-anchor="middle" fill="#F3E5AB" font-size="14" font-weight="bold" letter-spacing="1">1GM SILVER</text>
        <text x="150" y="80" text-anchor="middle" fill="#ffffff" font-size="42" font-weight="900" font-family="Cambria, serif">₹217</text>
        
      </g>
    
    <text x="540" y="1180" text-anchor="middle" fill="#F3E5AB" font-size="18" font-family="Calibri, sans-serif">Today's</text>
    <text x="540" y="1180" text-anchor="middle" fill="#ffffff" font-size="22" font-weight="900" font-family="Calibri, sans-serif"> GOLD RATE</text>
    <text x="540" y="1225" text-anchor="middle" fill="#ffffff" font-size="30" font-weight="900" font-family="Cambria, serif">15TH JUNE 2026</text>
  
    <rect x="0" y="1820" width="1080" height="120" fill="#1a0b2e" fill-opacity="0.85"/>
    <line x1="60" y1="1840" x2="1020" y2="1840" stroke="#D4AF37" stroke-width="1" opacity="0.3"/>
    <g transform="translate(80, 1875)">
      <polygon points="0,-12 -14,12 14,12" fill="none" stroke="#D4AF37" stroke-width="2"/>
      <text x="0" y="28" text-anchor="middle" fill="#D4AF37" font-size="9" font-weight="bold">916 BIS HUID</text>
    </g>
    <text x="540" y="1880" text-anchor="middle" fill="#ffffff" font-size="16" font-weight="bold">📞 9443476183</text>
    <text x="1000" y="1875" text-anchor="end" fill="#F3E5AB" font-size="12" opacity="0.85">📍 89 New Market Street, Tirupur</text>
  
</svg>