<?xml version="1.0" encoding="UTF-8"?>
<svg xmlns="http://www.w3.org/2000/svg" xmlns:xlink="http://www.w3.org/1999/xlink"
  viewBox="0 0 1080 1920" width="1080" height="1920">
  <defs>
    <linearGradient id="bgGrad" x1="0%" y1="0%" x2="100%" y2="100%">
      <stop offset="0%" stop-color="#1f1008"/>
      <stop offset="100%" stop-color="#0d0804"/>
    </linearGradient>
    <linearGradient id="goldGrad" x1="0%" y1="0%" x2="100%" y2="0%">
      <stop offset="0%" stop-color="#D4AF37"/>
      <stop offset="50%" stop-color="#F3E5AB"/>
      <stop offset="100%" stop-color="#D4AF37"/>
    </linearGradient>
  </defs>
  <rect width="1080" height="1920" fill="url(#bgGrad)"/><circle cx="540" cy="864" r="100" fill="none" stroke="#D4AF37" stroke-width="0.8" opacity="0.13"/><circle cx="540" cy="864" r="160" fill="none" stroke="#D4AF37" stroke-width="0.8" opacity="0.118"/><circle cx="540" cy="864" r="220" fill="none" stroke="#D4AF37" stroke-width="0.8" opacity="0.10599999999999998"/><circle cx="540" cy="864" r="280" fill="none" stroke="#D4AF37" stroke-width="0.8" opacity="0.094"/><circle cx="540" cy="864" r="340" fill="none" stroke="#D4AF37" stroke-width="0.8" opacity="0.08199999999999999"/><circle cx="540" cy="864" r="400" fill="none" stroke="#D4AF37" stroke-width="0.8" opacity="0.06999999999999999"/><circle cx="540" cy="864" r="460" fill="none" stroke="#D4AF37" stroke-width="0.8" opacity="0.057999999999999996"/><circle cx="540" cy="864" r="520" fill="none" stroke="#D4AF37" stroke-width="0.8" opacity="0.045999999999999985"/><circle cx="540" cy="864" r="580" fill="none" stroke="#D4AF37" stroke-width="0.8" opacity="0.03399999999999999"/>
  
    
    <g transform="translate(540, 120) scale(0.55)">
      <circle cx="0" cy="0" r="50" fill="none" stroke="url(#goldGrad)" stroke-width="3"/>
      <path d="M0,-35 L6,-18 L0,-22 L-6,-18 Z" fill="url(#goldGrad)"/>
      <rect x="-2" y="-22" width="4" height="14" fill="url(#goldGrad)"/>
      <ellipse cx="0" cy="5" rx="14" ry="18" fill="url(#goldGrad)"/>
      <circle cx="0" cy="-10" r="9" fill="url(#goldGrad)"/>
      <g fill="none" stroke="url(#goldGrad)" stroke-width="2" opacity="0.8">
        <path d="M-12,8 Q-28,-5 -32,-22"/>
        <path d="M-6,12 Q-16,-2 -18,-25"/>
        <path d="M0,14 Q0,-2 0,-28"/>
        <path d="M6,12 Q16,-2 18,-25"/>
        <path d="M12,8 Q28,-5 32,-22"/>
      </g>
    </g>
  
    <text x="540" y="185" text-anchor="middle" fill="url(#goldGrad)" font-size="26" font-family="Georgia, serif" font-weight="bold" letter-spacing="3">SRI VELMAYIL JEWELLERY</text>
    <text x="540" y="212" text-anchor="middle" fill="#c4a882" font-size="13" font-family="Arial, sans-serif" letter-spacing="8" opacity="0.85">— TIRUPUR —</text>
  
    <text x="80" y="280" text-anchor="start" fill="#c4a882" font-size="18" font-family="Arial, sans-serif">Today's</text>
    <text x="200" y="280" text-anchor="start" fill="#ffffff" font-size="22" font-weight="bold" font-family="Arial, sans-serif"> GOLD RATE</text>
    <text x="80" y="325" text-anchor="start" fill="#ffffff" font-size="32" font-weight="bold" font-family="Georgia, serif">15TH JUNE 2026</text>
  
      <g transform="translate(60, 340)">
        <rect width="300" height="120" rx="8" fill="#1f1008" fill-opacity="0.6" stroke="#D4AF37" stroke-width="2"/>
        <text x="150" y="35" text-anchor="middle" fill="#F3E5AB" font-size="14" font-weight="bold" letter-spacing="1">1GM 22K</text>
        <text x="150" y="80" text-anchor="middle" fill="#ffffff" font-size="36" font-weight="bold" font-family="Georgia, serif">₹12,152</text>
        <line x1="300" y1="20" x2="300" y2="100" stroke="#D4AF37" stroke-width="1" stroke-dasharray="4,4" opacity="0.4"/>
      </g>
    
      <g transform="translate(390, 340)">
        <rect width="300" height="120" rx="8" fill="#1f1008" fill-opacity="0.6" stroke="#D4AF37" stroke-width="2"/>
        <text x="150" y="35" text-anchor="middle" fill="#F3E5AB" font-size="14" font-weight="bold" letter-spacing="1">8GM 22K</text>
        <text x="150" y="80" text-anchor="middle" fill="#ffffff" font-size="36" font-weight="bold" font-family="Georgia, serif">₹97,216</text>
        <line x1="300" y1="20" x2="300" y2="100" stroke="#D4AF37" stroke-width="1" stroke-dasharray="4,4" opacity="0.4"/>
      </g>
    
      <g transform="translate(720, 340)">
        <rect width="300" height="120" rx="8" fill="#1f1008" fill-opacity="0.6" stroke="#D4AF37" stroke-width="2"/>
        <text x="150" y="35" text-anchor="middle" fill="#F3E5AB" font-size="14" font-weight="bold" letter-spacing="1">1GM SILVER</text>
        <text x="150" y="80" text-anchor="middle" fill="#ffffff" font-size="36" font-weight="bold" font-family="Georgia, serif">₹217</text>
        
      </g>
    
    <circle cx="540" cy="900" r="150" fill="#D4AF37" opacity="0.08"/>
    <circle cx="540" cy="900" r="140" fill="none" stroke="#D4AF37" stroke-width="2" opacity="0.4"/>
    <g transform="translate(540, 900)"><line x1="0" y1="-70" x2="0" y2="-14" stroke="#D4AF37" stroke-width="2"/><circle cx="0" cy="21" r="49" fill="none" stroke="#D4AF37" stroke-width="2.0903936159707546"/><circle cx="0" cy="21" r="10.29160407864638" fill="#F3E5AB" opacity="0.8"/></g>
  <ellipse cx="114.81232494564011" cy="1147.1779721036348" rx="12" ry="8" fill="#D4AF37" opacity="0.12" transform="rotate(0 114.81232494564011 1147.1779721036348)"/><ellipse cx="100.99266483313906" cy="1166.1991024295378" rx="12" ry="8" fill="#D4AF37" opacity="0.12" transform="rotate(72.00530362027806 100.99266483313906 1166.1991024295378)"/><ellipse cx="78.63198505814117" cy="1158.9336771494843" rx="12" ry="8" fill="#D4AF37" opacity="0.12" transform="rotate(144.0106072405561 78.63198505814117 1158.9336771494843)"/><ellipse cx="78.63198505814117" cy="1135.4222670577853" rx="12" ry="8" fill="#D4AF37" opacity="0.12" transform="rotate(216.01591086083417 78.63198505814117 1135.4222670577853)"/><ellipse cx="100.99266483313906" cy="1128.1568417777316" rx="12" ry="8" fill="#D4AF37" opacity="0.12" transform="rotate(288.0212144811122 100.99266483313906 1128.1568417777316)"/><circle cx="94.81232494564011" cy="1147.1779721036348" r="8" fill="#F3E5AB" opacity="0.2"/><ellipse cx="1036.0427652215983" cy="990.1366702002815" rx="12" ry="8" fill="#D4AF37" opacity="0.12" transform="rotate(0 1036.0427652215983 990.1366702002815)"/><ellipse cx="1030.1849008453291" cy="1004.2788058240125" rx="12" ry="8" fill="#D4AF37" opacity="0.12" transform="rotate(45.00331476267378 1030.1849008453291 1004.2788058240125)"/><ellipse cx="1016.0427652215983" cy="1010.1366702002815" rx="12" ry="8" fill="#D4AF37" opacity="0.12" transform="rotate(90.00662952534756 1016.0427652215983 1010.1366702002815)"/><ellipse cx="1001.9006295978674" cy="1004.2788058240125" rx="12" ry="8" fill="#D4AF37" opacity="0.12" transform="rotate(135.00994428802136 1001.9006295978674 1004.2788058240125)"/><ellipse cx="996.0427652215983" cy="990.1366702002815" rx="12" ry="8" fill="#D4AF37" opacity="0.12" transform="rotate(180.01325905069513 996.0427652215983 990.1366702002815)"/><ellipse cx="1001.9006295978674" cy="975.9945345765506" rx="12" ry="8" fill="#D4AF37" opacity="0.12" transform="rotate(225.01657381336892 1001.9006295978674 975.9945345765506)"/><ellipse cx="1016.0427652215983" cy="970.1366702002815" rx="12" ry="8" fill="#D4AF37" opacity="0.12" transform="rotate(270.0198885760427 1016.0427652215983 970.1366702002815)"/><ellipse cx="1030.1849008453291" cy="975.9945345765506" rx="12" ry="8" fill="#D4AF37" opacity="0.12" transform="rotate(315.0232033387165 1030.1849008453291 975.9945345765506)"/><circle cx="1016.0427652215983" cy="990.1366702002815" r="8" fill="#F3E5AB" opacity="0.2"/><ellipse cx="96.05062079248077" cy="791.3065550246337" rx="12" ry="8" fill="#D4AF37" opacity="0.12" transform="rotate(0 96.05062079248077 791.3065550246337)"/><ellipse cx="82.23096067997972" cy="810.3276853505367" rx="12" ry="8" fill="#D4AF37" opacity="0.12" transform="rotate(72.00530362027806 82.23096067997972 810.3276853505367)"/><ellipse cx="59.870280904981826" cy="803.0622600704831" rx="12" ry="8" fill="#D4AF37" opacity="0.12" transform="rotate(144.0106072405561 59.870280904981826 803.0622600704831)"/><ellipse cx="59.870280904981826" cy="779.5508499787842" rx="12" ry="8" fill="#D4AF37" opacity="0.12" transform="rotate(216.01591086083417 59.870280904981826 779.5508499787842)"/><ellipse cx="82.23096067997972" cy="772.2854246987306" rx="12" ry="8" fill="#D4AF37" opacity="0.12" transform="rotate(288.0212144811122 82.23096067997972 772.2854246987306)"/><circle cx="76.05062079248077" cy="791.3065550246337" r="8" fill="#F3E5AB" opacity="0.2"/><ellipse cx="956.4907736624505" cy="1093.18038926011" rx="12" ry="8" fill="#D4AF37" opacity="0.12" transform="rotate(0 956.4907736624505 1093.18038926011)"/><ellipse cx="948.9605696996251" cy="1108.8170189094706" rx="12" ry="8" fill="#D4AF37" opacity="0.12" transform="rotate(51.43235972877004 948.9605696996251 1108.8170189094706)"/><ellipse cx="932.0403549833242" cy="1112.6789475037465" rx="12" ry="8" fill="#D4AF37" opacity="0.12" transform="rotate(102.86471945754008 932.0403549833242 1112.6789475037465)"/><ellipse cx="918.4713963044021" cy="1101.8580640424611" rx="12" ry="8" fill="#D4AF37" opacity="0.12" transform="rotate(154.29707918631013 918.4713963044021 1101.8580640424611)"/><ellipse cx="918.4713963044021" cy="1084.5027144777587" rx="12" ry="8" fill="#D4AF37" opacity="0.12" transform="rotate(205.72943891508015 918.4713963044021 1084.5027144777587)"/><ellipse cx="932.0403549833242" cy="1073.6818310164733" rx="12" ry="8" fill="#D4AF37" opacity="0.12" transform="rotate(257.1617986438502 932.0403549833242 1073.6818310164733)"/><ellipse cx="948.9605696996251" cy="1077.5437596107492" rx="12" ry="8" fill="#D4AF37" opacity="0.12" transform="rotate(308.59415837262026 948.9605696996251 1077.5437596107492)"/><circle cx="936.4907736624505" cy="1093.18038926011" r="8" fill="#F3E5AB" opacity="0.2"/>
    <rect x="0" y="1820" width="1080" height="120" fill="#1f1008" fill-opacity="0.85"/>
    <line x1="60" y1="1840" x2="1020" y2="1840" stroke="#D4AF37" stroke-width="1" opacity="0.3"/>
    <g transform="translate(80, 1875)">
      <polygon points="0,-12 -14,12 14,12" fill="none" stroke="#D4AF37" stroke-width="2"/>
      <text x="0" y="28" text-anchor="middle" fill="#D4AF37" font-size="9" font-weight="bold">916 BIS HUID</text>
    </g>
    <text x="540" y="1880" text-anchor="middle" fill="#ffffff" font-size="16" font-weight="bold">📞 9443476183</text>
    <text x="1000" y="1875" text-anchor="end" fill="#c4a882" font-size="12" opacity="0.85">📍 89 New Market Street, Tirupur</text>
  
</svg>