<?xml version="1.0" encoding="UTF-8"?>
<svg xmlns="http://www.w3.org/2000/svg" xmlns:xlink="http://www.w3.org/1999/xlink"
  viewBox="0 0 1080 1920" width="1080" height="1920">
  <defs>
    <linearGradient id="bgGrad" x1="0%" y1="0%" x2="100%" y2="100%">
      <stop offset="0%" stop-color="#1f1008"/>
      <stop offset="100%" stop-color="#0d0804"/>
    </linearGradient>
    <linearGradient id="goldGrad" x1="0%" y1="0%" x2="100%" y2="0%">
      <stop offset="0%" stop-color="#D4AF37"/>
      <stop offset="50%" stop-color="#F3E5AB"/>
      <stop offset="100%" stop-color="#D4AF37"/>
    </linearGradient>
  </defs>
  <rect width="1080" height="1920" fill="url(#bgGrad)"/><ellipse cx="627.3137203113304" cy="536.3570045459616" rx="33.96318312637804" ry="76.59449757225299" fill="none" stroke="#D4AF37" stroke-width="1" opacity="0.08" transform="rotate(334.88508540660615 627.3137203113304 536.3570045459616)"/><ellipse cx="520.891875904884" cy="266.244815537934" rx="60.64134605754292" ry="130.3860131282229" fill="none" stroke="#D4AF37" stroke-width="1" opacity="0.08" transform="rotate(70.89119806037397 520.891875904884 266.244815537934)"/><ellipse cx="685.1041899482759" cy="1184.219646364655" rx="41.96880751472787" ry="77.54675578563172" fill="none" stroke="#D4AF37" stroke-width="1" opacity="0.08" transform="rotate(273.3002245922575 685.1041899482759 1184.219646364655)"/><ellipse cx="350.6262015091499" cy="879.2435064159739" rx="59.313033287704954" ry="85.47113101973304" fill="none" stroke="#D4AF37" stroke-width="1" opacity="0.08" transform="rotate(213.19821465127 350.6262015091499 879.2435064159739)"/><ellipse cx="427.1843781575415" cy="1649.5089829429137" rx="40.871834318034196" ry="101.25544095528818" fill="none" stroke="#D4AF37" stroke-width="1" opacity="0.08" transform="rotate(80.78606795592799 427.1843781575415 1649.5089829429137)"/><ellipse cx="634.3389613314894" cy="1164.3139307613615" rx="79.58958907480313" ry="64.00245013088217" fill="none" stroke="#D4AF37" stroke-width="1" opacity="0.08" transform="rotate(156.72009104557344 634.3389613314894 1164.3139307613615)"/><ellipse cx="703.7153815140159" cy="470.080090006888" rx="75.73135659632399" ry="72.43862604949496" fill="none" stroke="#D4AF37" stroke-width="1" opacity="0.08" transform="rotate(303.9544835164719 703.7153815140159 470.080090006888)"/><ellipse cx="489.01469965373605" cy="124.55414247191898" rx="45.14287960263238" ry="71.47995760802175" fill="none" stroke="#D4AF37" stroke-width="1" opacity="0.08" transform="rotate(294.59253016355683 489.01469965373605 124.55414247191898)"/>
  <polygon points="540,250 1020,450 1020,1100 60,1100 60,450" fill="none" stroke="#D4AF37" stroke-width="2" opacity="0.3"/>
    
    <g transform="translate(540, 100) scale(0.55)">
      <circle cx="0" cy="0" r="50" fill="none" stroke="url(#goldGrad)" stroke-width="3"/>
      <path d="M0,-35 L6,-18 L0,-22 L-6,-18 Z" fill="url(#goldGrad)"/>
      <rect x="-2" y="-22" width="4" height="14" fill="url(#goldGrad)"/>
      <ellipse cx="0" cy="5" rx="14" ry="18" fill="url(#goldGrad)"/>
      <circle cx="0" cy="-10" r="9" fill="url(#goldGrad)"/>
      <g fill="none" stroke="url(#goldGrad)" stroke-width="2" opacity="0.8">
        <path d="M-12,8 Q-28,-5 -32,-22"/>
        <path d="M-6,12 Q-16,-2 -18,-25"/>
        <path d="M0,14 Q0,-2 0,-28"/>
        <path d="M6,12 Q16,-2 18,-25"/>
        <path d="M12,8 Q28,-5 32,-22"/>
      </g>
    </g>
  
    <text x="540" y="165" text-anchor="middle" fill="url(#goldGrad)" font-size="24" font-family="'Times New Roman', serif" font-weight="800" letter-spacing="3">SRI VELMAYIL JEWELLERY</text>
    <text x="540" y="192" text-anchor="middle" fill="#c4a882" font-size="13" font-family="Helvetica, sans-serif" letter-spacing="8" opacity="0.85">— TIRUPUR —</text>
  
    <circle cx="540" cy="600" r="140" fill="#D4AF37" opacity="0.08"/>
    <circle cx="540" cy="600" r="130" fill="none" stroke="#D4AF37" stroke-width="2" opacity="0.4"/>
    <g transform="translate(540, 600)"><circle cx="-26" cy="0" r="65" fill="none" stroke="#D4AF37" stroke-width="7.268228562798564"/><circle cx="26" cy="0" r="65" fill="none" stroke="#D4AF37" stroke-width="7.268228562798564"/><circle cx="65" cy="0" r="3" fill="#F3E5AB"/><circle cx="32.50000000000001" cy="56.29165124598851" r="3" fill="#F3E5AB"/><circle cx="-32.499999999999986" cy="56.29165124598852" r="3" fill="#F3E5AB"/><circle cx="-65" cy="7.960204194457796e-15" r="3" fill="#F3E5AB"/><circle cx="-32.50000000000003" cy="-56.291651245988504" r="3" fill="#F3E5AB"/><circle cx="32.50000000000001" cy="-56.29165124598851" r="3" fill="#F3E5AB"/></g>
  
      <g transform="translate(60, 1250)">
        <rect width="300" height="120" rx="8" fill="#1f1008" fill-opacity="0.6" stroke="#D4AF37" stroke-width="2"/>
        <text x="150" y="35" text-anchor="middle" fill="#F3E5AB" font-size="14" font-weight="bold" letter-spacing="1">1GM 22K</text>
        <text x="150" y="80" text-anchor="middle" fill="#ffffff" font-size="38" font-weight="800" font-family="'Times New Roman', serif">₹12,152</text>
        <line x1="300" y1="20" x2="300" y2="100" stroke="#D4AF37" stroke-width="1" stroke-dasharray="4,4" opacity="0.4"/>
      </g>
    
      <g transform="translate(390, 1250)">
        <rect width="300" height="120" rx="8" fill="#1f1008" fill-opacity="0.6" stroke="#D4AF37" stroke-width="2"/>
        <text x="150" y="35" text-anchor="middle" fill="#F3E5AB" font-size="14" font-weight="bold" letter-spacing="1">8GM 22K</text>
        <text x="150" y="80" text-anchor="middle" fill="#ffffff" font-size="38" font-weight="800" font-family="'Times New Roman', serif">₹97,216</text>
        <line x1="300" y1="20" x2="300" y2="100" stroke="#D4AF37" stroke-width="1" stroke-dasharray="4,4" opacity="0.4"/>
      </g>
    
      <g transform="translate(720, 1250)">
        <rect width="300" height="120" rx="8" fill="#1f1008" fill-opacity="0.6" stroke="#D4AF37" stroke-width="2"/>
        <text x="150" y="35" text-anchor="middle" fill="#F3E5AB" font-size="14" font-weight="bold" letter-spacing="1">1GM SILVER</text>
        <text x="150" y="80" text-anchor="middle" fill="#ffffff" font-size="38" font-weight="800" font-family="'Times New Roman', serif">₹217</text>
        
      </g>
    
    <text x="540" y="1180" text-anchor="middle" fill="#c4a882" font-size="18" font-family="Helvetica, sans-serif">Today's</text>
    <text x="540" y="1180" text-anchor="middle" fill="#ffffff" font-size="22" font-weight="800" font-family="Helvetica, sans-serif"> GOLD RATE</text>
    <text x="540" y="1225" text-anchor="middle" fill="#ffffff" font-size="30" font-weight="800" font-family="'Times New Roman', serif">15TH JUNE 2026</text>
  
    <rect x="0" y="1820" width="1080" height="120" fill="#1f1008" fill-opacity="0.85"/>
    <line x1="60" y1="1840" x2="1020" y2="1840" stroke="#D4AF37" stroke-width="1" opacity="0.3"/>
    <g transform="translate(80, 1875)">
      <polygon points="0,-12 -14,12 14,12" fill="none" stroke="#D4AF37" stroke-width="2"/>
      <text x="0" y="28" text-anchor="middle" fill="#D4AF37" font-size="9" font-weight="bold">916 BIS HUID</text>
    </g>
    <text x="540" y="1880" text-anchor="middle" fill="#ffffff" font-size="16" font-weight="bold">📞 9443476183</text>
    <text x="1000" y="1875" text-anchor="end" fill="#c4a882" font-size="12" opacity="0.85">📍 89 New Market Street, Tirupur</text>
  
</svg>