<?xml version="1.0" encoding="UTF-8"?>
<svg xmlns="http://www.w3.org/2000/svg" xmlns:xlink="http://www.w3.org/1999/xlink"
  viewBox="0 0 1080 1920" width="1080" height="1920">
  <defs>
    <linearGradient id="bgGrad" x1="0%" y1="0%" x2="100%" y2="100%">
      <stop offset="0%" stop-color="#1f1008"/>
      <stop offset="100%" stop-color="#0d0804"/>
    </linearGradient>
    <linearGradient id="goldGrad" x1="0%" y1="0%" x2="100%" y2="0%">
      <stop offset="0%" stop-color="#D4AF37"/>
      <stop offset="50%" stop-color="#F3E5AB"/>
      <stop offset="100%" stop-color="#D4AF37"/>
    </linearGradient>
  </defs>
  <rect width="1080" height="1920" fill="url(#bgGrad)"/><polygon points="419.40067715887045,1396.5601913077387 422.28258201692495,1399.4420961657931 419.40067715887045,1402.3240010238476 416.51877230081595,1399.4420961657931" fill="#F3E5AB" opacity="0.26312302934296716"/><polygon points="751.5188584397723,311.1476976584156 755.8491477089461,315.47798692758937 751.5188584397723,319.80827619676313 747.1885691705985,315.47798692758937" fill="#F3E5AB" opacity="0.1878820052723233"/><polygon points="478.31137910328005,955.1063171933464 482.0553687774161,958.8503068674825 478.31137910328005,962.5942965416185 474.567389429144,958.8503068674825" fill="#F3E5AB" opacity="0.34258531452397384"/><polygon points="472.97395331130735,837.1196036684508 477.16644505520026,841.3120954123438 472.97395331130735,845.5045871562367 468.78146156741445,841.3120954123438" fill="#F3E5AB" opacity="0.19065653145374412"/><polygon points="951.572813253452,784.6256234446778 956.7664886329012,789.819298824127 951.572813253452,795.0129742035763 946.3791378740027,789.819298824127" fill="#F3E5AB" opacity="0.10765815336039118"/><polygon points="38.10893736603571,96.11932842258301 43.177990649992594,101.1883817065399 38.10893736603571,106.25743499049679 33.03988408207883,101.1883817065399" fill="#F3E5AB" opacity="0.2183913061100909"/><polygon points="729.6595689185518,1896.8134936139113 732.1839526185616,1899.3378773139211 729.6595689185518,1901.862261013931 727.135185218542,1899.3378773139211" fill="#F3E5AB" opacity="0.19876549485955902"/><polygon points="186.02524594033625,1785.7280495816171 189.302557734123,1789.005361375404 186.02524594033625,1792.2826731691907 182.74793414654948,1789.005361375404" fill="#F3E5AB" opacity="0.38345046121017123"/><polygon points="906.8460798513573,708.9553246041344 912.6737181159423,714.7829628687193 906.8460798513573,720.6106011333043 901.0184415867724,714.7829628687193" fill="#F3E5AB" opacity="0.3337235670850832"/><polygon points="1051.1730636946606,752.8674146541091 1055.0731894253504,756.7675403847988 1051.1730636946606,760.6676661154886 1047.272937963971,756.7675403847988" fill="#F3E5AB" opacity="0.3559879102334268"/><polygon points="319.7074952160078,572.9746166458117 322.51607042971636,575.7831918595202 319.7074952160078,578.5917670732288 316.8989200022993,575.7831918595202" fill="#F3E5AB" opacity="0.22927313314683098"/><polygon points="336.78048550782773,1897.3349350908165 341.0024335561343,1901.556883139123 336.78048550782773,1905.7788311874297 332.5585374595212,1901.556883139123" fill="#F3E5AB" opacity="0.12106463519955486"/><polygon points="119.97353464362541,57.18481808824913 125.37408268393398,62.5853661285577 119.97353464362541,67.98591416886627 114.57298660331685,62.5853661285577" fill="#F3E5AB" opacity="0.1758188617190522"/><polygon points="675.3983996951937,1099.533196601582 679.6995914836409,1103.8343883900293 675.3983996951937,1108.1355801784766 671.0972079067465,1103.8343883900293" fill="#F3E5AB" opacity="0.10978012952001778"/><polygon points="988.7008114612669,376.7505934878724 993.352784463533,381.4025664901385 988.7008114612669,386.0545394924046 984.0488384590008,381.4025664901385" fill="#F3E5AB" opacity="0.3782694727445669"/><polygon points="630.1029166114544,1310.675627180073 634.4904176373876,1315.0631282060062 630.1029166114544,1319.4506292319395 625.7154155855211,1315.0631282060062" fill="#F3E5AB" opacity="0.3047316610391547"/><polygon points="810.1001903136263,1548.9001904510894 814.8012680511933,1553.6012681886566 810.1001903136263,1558.3023459262238 805.3991125760592,1553.6012681886566" fill="#F3E5AB" opacity="0.1760159090869277"/><polygon points="717.7887969443469,485.2458079506138 723.7662388866452,491.22324989291207 717.7887969443469,497.2006918352103 711.8113550020487,491.22324989291207" fill="#F3E5AB" opacity="0.1650043286522891"/><polygon points="819.9125933460077,977.3413784963462 822.0528177749858,979.4816029253243 819.9125933460077,981.6218273543024 817.7723689170297,979.4816029253243" fill="#F3E5AB" opacity="0.1564006030153489"/><polygon points="809.7724275568243,1354.5525790774752 815.5612925696756,1360.3414440903266 809.7724275568243,1366.130309103178 803.9835625439729,1360.3414440903266" fill="#F3E5AB" opacity="0.3590704484461532"/><polygon points="1069.298477367776,884.4934323714053 1072.8214071195773,888.0163621232066 1069.298477367776,891.5392918750078 1065.7755476159748,888.0163621232066" fill="#F3E5AB" opacity="0.39102684323771564"/><polygon points="317.35571909449595,1343.0509287110074 321.10797221316767,1346.803181829679 317.35571909449595,1350.5554349483507 313.60346597582424,1346.803181829679" fill="#F3E5AB" opacity="0.25886373297205545"/><polygon points="81.94019684748743,296.7826041009115 85.41755093579884,300.2599581892229 81.94019684748743,303.73731227753433 78.46284275917601,300.2599581892229" fill="#F3E5AB" opacity="0.24176364940755413"/><polygon points="77.96459177319387,549.654554485953 81.02430219484893,552.714264907608 77.96459177319387,555.7739753292631 74.90488135153882,552.714264907608" fill="#F3E5AB" opacity="0.29148098257508226"/><polygon points="435.1499590791296,1571.5120739131348 437.6241779212134,1573.9862927552185 435.1499590791296,1576.4605115973022 432.6757402370458,1573.9862927552185" fill="#F3E5AB" opacity="0.2647079871638752"/><polygon points="529.7087592908263,662.2514008453595 534.3403937726657,666.883035327199 529.7087592908263,671.5146698090384 525.0771248089868,666.883035327199" fill="#F3E5AB" opacity="0.24105602385574584"/><polygon points="462.93907461961646,524.3672913111442 466.6286026431514,528.0568193346792 462.93907461961646,531.7463473582142 459.24954659608153,528.0568193346792" fill="#F3E5AB" opacity="0.3923132225799498"/><polygon points="389.99506062827544,222.90517813982922 392.8487788707472,225.758896382301 389.99506062827544,228.6126146247728 387.1413423858037,225.758896382301" fill="#F3E5AB" opacity="0.1331894384074858"/><polygon points="413.6162496671232,1361.8059127161334 417.70077350149006,1365.8904365505002 413.6162496671232,1369.974960384867 409.53172583275636,1365.8904365505002" fill="#F3E5AB" opacity="0.29440743955262705"/><polygon points="381.0145943435045,691.9210751577476 386.5025884793164,697.4090692935596 381.0145943435045,702.8970634293715 375.5266002076926,697.4090692935596" fill="#F3E5AB" opacity="0.3038083448110226"/>
  <text x="540" y="80" text-anchor="middle" fill="#ffffff" font-size="24" font-weight="bold" letter-spacing="2">TODAY'S GOLD RATE</text><text x="540" y="120" text-anchor="middle" fill="#D4AF37" font-size="28" font-weight="bold" font-family="Georgia, serif">15th June 2026</text>
    <g transform="translate(540, 480)">
      <circle cx="0" cy="-180" r="150" fill="#1f1008" fill-opacity="0.7" stroke="#D4AF37" stroke-width="4"/>
      <text x="0" y="-220" text-anchor="middle" fill="#F3E5AB" font-size="16" font-weight="bold">8GM</text>
      <text x="0" y="-165" text-anchor="middle" fill="#ffffff" font-size="44" font-weight="800" font-family="'Times New Roman', serif">₹97,216</text>
      <text x="0" y="-130" text-anchor="middle" fill="#c4a882" font-size="14" font-weight="bold">22K</text>

      <circle cx="-170" cy="80" r="115" fill="#1f1008" fill-opacity="0.7" stroke="#D4AF37" stroke-width="3"/>
      <text x="-170" y="50" text-anchor="middle" fill="#F3E5AB" font-size="14" font-weight="bold">1GM</text>
      <text x="-170" y="95" text-anchor="middle" fill="#ffffff" font-size="32" font-weight="800" font-family="'Times New Roman', serif">₹12,152</text>
      <text x="-170" y="125" text-anchor="middle" fill="#c4a882" font-size="12" font-weight="bold">22K</text>

      <circle cx="170" cy="80" r="115" fill="#1f1008" fill-opacity="0.7" stroke="#D4AF37" stroke-width="3"/>
      <text x="170" y="50" text-anchor="middle" fill="#F3E5AB" font-size="14" font-weight="bold">1GM</text>
      <text x="170" y="95" text-anchor="middle" fill="#ffffff" font-size="32" font-weight="800" font-family="'Times New Roman', serif">₹217</text>
      <text x="170" y="125" text-anchor="middle" fill="#c4a882" font-size="12" font-weight="bold">SILVER</text>
    </g>
  
    <circle cx="540" cy="1050" r="110" fill="#D4AF37" opacity="0.08"/>
    <circle cx="540" cy="1050" r="100" fill="none" stroke="#D4AF37" stroke-width="2" opacity="0.4"/>
    <g transform="translate(540, 1050)"><ellipse cx="0" cy="0" rx="40" ry="15" fill="none" stroke="#D4AF37" stroke-width="2.459655072036809"/><ellipse cx="0" cy="25" rx="35" ry="15" fill="none" stroke="#D4AF37" stroke-width="2.459655072036809"/><ellipse cx="0" cy="50" rx="30" ry="15" fill="none" stroke="#D4AF37" stroke-width="2.459655072036809"/><circle cx="0" cy="50" r="16.07772535186049" fill="#D4AF37" stroke="#F3E5AB" stroke-width="1"/></g>
  
    
    <g transform="translate(540, 1350) scale(0.55)">
      <circle cx="0" cy="0" r="50" fill="none" stroke="url(#goldGrad)" stroke-width="3"/>
      <path d="M0,-35 L6,-18 L0,-22 L-6,-18 Z" fill="url(#goldGrad)"/>
      <rect x="-2" y="-22" width="4" height="14" fill="url(#goldGrad)"/>
      <ellipse cx="0" cy="5" rx="14" ry="18" fill="url(#goldGrad)"/>
      <circle cx="0" cy="-10" r="9" fill="url(#goldGrad)"/>
      <g fill="none" stroke="url(#goldGrad)" stroke-width="2" opacity="0.8">
        <path d="M-12,8 Q-28,-5 -32,-22"/>
        <path d="M-6,12 Q-16,-2 -18,-25"/>
        <path d="M0,14 Q0,-2 0,-28"/>
        <path d="M6,12 Q16,-2 18,-25"/>
        <path d="M12,8 Q28,-5 32,-22"/>
      </g>
    </g>
  
    <text x="540" y="1415" text-anchor="middle" fill="url(#goldGrad)" font-size="24" font-family="'Times New Roman', serif" font-weight="800" letter-spacing="3">SRI VELMAYIL JEWELLERY</text>
    <text x="540" y="1442" text-anchor="middle" fill="#c4a882" font-size="13" font-family="Helvetica, sans-serif" letter-spacing="8" opacity="0.85">— TIRUPUR —</text>
  
    <rect x="0" y="1820" width="1080" height="120" fill="#1f1008" fill-opacity="0.85"/>
    <line x1="60" y1="1840" x2="1020" y2="1840" stroke="#D4AF37" stroke-width="1" opacity="0.3"/>
    <g transform="translate(80, 1875)">
      <polygon points="0,-12 -14,12 14,12" fill="none" stroke="#D4AF37" stroke-width="2"/>
      <text x="0" y="28" text-anchor="middle" fill="#D4AF37" font-size="9" font-weight="bold">916 BIS HUID</text>
    </g>
    <text x="540" y="1880" text-anchor="middle" fill="#ffffff" font-size="16" font-weight="bold">📞 9443476183</text>
    <text x="1000" y="1875" text-anchor="end" fill="#c4a882" font-size="12" opacity="0.85">📍 89 New Market Street, Tirupur</text>
  
</svg>