<?xml version="1.0" encoding="UTF-8"?>
<svg xmlns="http://www.w3.org/2000/svg" xmlns:xlink="http://www.w3.org/1999/xlink"
  viewBox="0 0 1080 1920" width="1080" height="1920">
  <defs>
    <linearGradient id="bgGrad" x1="0%" y1="0%" x2="100%" y2="100%">
      <stop offset="0%" stop-color="#2d020d"/>
      <stop offset="100%" stop-color="#120105"/>
    </linearGradient>
    <linearGradient id="goldGrad" x1="0%" y1="0%" x2="100%" y2="0%">
      <stop offset="0%" stop-color="#D4AF37"/>
      <stop offset="50%" stop-color="#F3E5AB"/>
      <stop offset="100%" stop-color="#D4AF37"/>
    </linearGradient>
  </defs>
  <rect width="1080" height="1920" fill="url(#bgGrad)"/><circle cx="540" cy="864" r="100" fill="none" stroke="#D4AF37" stroke-width="0.8" opacity="0.13"/><circle cx="540" cy="864" r="160" fill="none" stroke="#D4AF37" stroke-width="0.8" opacity="0.118"/><circle cx="540" cy="864" r="220" fill="none" stroke="#D4AF37" stroke-width="0.8" opacity="0.10599999999999998"/><circle cx="540" cy="864" r="280" fill="none" stroke="#D4AF37" stroke-width="0.8" opacity="0.094"/><circle cx="540" cy="864" r="340" fill="none" stroke="#D4AF37" stroke-width="0.8" opacity="0.08199999999999999"/><circle cx="540" cy="864" r="400" fill="none" stroke="#D4AF37" stroke-width="0.8" opacity="0.06999999999999999"/><circle cx="540" cy="864" r="460" fill="none" stroke="#D4AF37" stroke-width="0.8" opacity="0.057999999999999996"/><circle cx="540" cy="864" r="520" fill="none" stroke="#D4AF37" stroke-width="0.8" opacity="0.045999999999999985"/><circle cx="540" cy="864" r="580" fill="none" stroke="#D4AF37" stroke-width="0.8" opacity="0.03399999999999999"/>
  <circle cx="540" cy="864" r="400" fill="#D4AF37" opacity="0.06"/><circle cx="540" cy="864" r="250" fill="#D4AF37" opacity="0.04"/>
    
    <g transform="translate(540, 110) scale(0.55)">
      <circle cx="0" cy="0" r="50" fill="none" stroke="url(#goldGrad)" stroke-width="3"/>
      <path d="M0,-35 L6,-18 L0,-22 L-6,-18 Z" fill="url(#goldGrad)"/>
      <rect x="-2" y="-22" width="4" height="14" fill="url(#goldGrad)"/>
      <ellipse cx="0" cy="5" rx="14" ry="18" fill="url(#goldGrad)"/>
      <circle cx="0" cy="-10" r="9" fill="url(#goldGrad)"/>
      <g fill="none" stroke="url(#goldGrad)" stroke-width="2" opacity="0.8">
        <path d="M-12,8 Q-28,-5 -32,-22"/>
        <path d="M-6,12 Q-16,-2 -18,-25"/>
        <path d="M0,14 Q0,-2 0,-28"/>
        <path d="M6,12 Q16,-2 18,-25"/>
        <path d="M12,8 Q28,-5 32,-22"/>
      </g>
    </g>
  
    <text x="540" y="175" text-anchor="middle" fill="url(#goldGrad)" font-size="26" font-family="Georgia, serif" font-weight="bold" letter-spacing="3">SRI VELMAYIL JEWELLERY</text>
    <text x="540" y="202" text-anchor="middle" fill="#e8d5a3" font-size="13" font-family="Arial, sans-serif" letter-spacing="8" opacity="0.85">— TIRUPUR —</text>
  
    <g transform="translate(540, 500)">
      <circle cx="0" cy="-180" r="150" fill="#2d020d" fill-opacity="0.7" stroke="#D4AF37" stroke-width="4"/>
      <text x="0" y="-220" text-anchor="middle" fill="#F3E5AB" font-size="16" font-weight="bold">8GM</text>
      <text x="0" y="-165" text-anchor="middle" fill="#ffffff" font-size="42" font-weight="bold" font-family="Georgia, serif">₹97,216</text>
      <text x="0" y="-130" text-anchor="middle" fill="#e8d5a3" font-size="14" font-weight="bold">22K</text>

      <circle cx="-170" cy="80" r="115" fill="#2d020d" fill-opacity="0.7" stroke="#D4AF37" stroke-width="3"/>
      <text x="-170" y="50" text-anchor="middle" fill="#F3E5AB" font-size="14" font-weight="bold">1GM</text>
      <text x="-170" y="95" text-anchor="middle" fill="#ffffff" font-size="30" font-weight="bold" font-family="Georgia, serif">₹12,152</text>
      <text x="-170" y="125" text-anchor="middle" fill="#e8d5a3" font-size="12" font-weight="bold">22K</text>

      <circle cx="170" cy="80" r="115" fill="#2d020d" fill-opacity="0.7" stroke="#D4AF37" stroke-width="3"/>
      <text x="170" y="50" text-anchor="middle" fill="#F3E5AB" font-size="14" font-weight="bold">1GM</text>
      <text x="170" y="95" text-anchor="middle" fill="#ffffff" font-size="30" font-weight="bold" font-family="Georgia, serif">₹217</text>
      <text x="170" y="125" text-anchor="middle" fill="#e8d5a3" font-size="12" font-weight="bold">SILVER</text>
    </g>
  
    <circle cx="540" cy="1050" r="100" fill="#D4AF37" opacity="0.08"/>
    <circle cx="540" cy="1050" r="90" fill="none" stroke="#D4AF37" stroke-width="2" opacity="0.4"/>
    <g transform="translate(540, 1050)"><circle cx="0" cy="0" r="40.5" fill="none" stroke="#D4AF37" stroke-width="6.517840429691449"/><polygon points="0,-12.148343933884375 -7.2890063603306245,0 7.2890063603306245,0" fill="#F3E5AB"/><circle cx="0" cy="-3.6445031801653123" r="5.811007522801876" fill="#F3E5AB" opacity="0.95"/></g>
  
    <rect x="0" y="1820" width="1080" height="120" fill="#2d020d" fill-opacity="0.85"/>
    <line x1="60" y1="1840" x2="1020" y2="1840" stroke="#D4AF37" stroke-width="1" opacity="0.3"/>
    <g transform="translate(80, 1875)">
      <polygon points="0,-12 -14,12 14,12" fill="none" stroke="#D4AF37" stroke-width="2"/>
      <text x="0" y="28" text-anchor="middle" fill="#D4AF37" font-size="9" font-weight="bold">916 BIS HUID</text>
    </g>
    <text x="540" y="1880" text-anchor="middle" fill="#ffffff" font-size="16" font-weight="bold">📞 9443476183</text>
    <text x="1000" y="1875" text-anchor="end" fill="#e8d5a3" font-size="12" opacity="0.85">📍 89 New Market Street, Tirupur</text>
  
</svg>