<?xml version="1.0" encoding="UTF-8"?>
<svg xmlns="http://www.w3.org/2000/svg" xmlns:xlink="http://www.w3.org/1999/xlink"
  viewBox="0 0 1080 1920" width="1080" height="1920">
  <defs>
    <linearGradient id="bgGrad" x1="0%" y1="0%" x2="100%" y2="100%">
      <stop offset="0%" stop-color="#1a0b2e"/>
      <stop offset="100%" stop-color="#0c0418"/>
    </linearGradient>
    <linearGradient id="goldGrad" x1="0%" y1="0%" x2="100%" y2="0%">
      <stop offset="0%" stop-color="#D4AF37"/>
      <stop offset="50%" stop-color="#F3E5AB"/>
      <stop offset="100%" stop-color="#D4AF37"/>
    </linearGradient>
  </defs>
  <rect width="1080" height="1920" fill="url(#bgGrad)"/><line x1="-1920" y1="0" x2="0" y2="1920" stroke="#D4AF37" stroke-width="0.5" opacity="0.06"/><line x1="-1880" y1="0" x2="40" y2="1920" stroke="#D4AF37" stroke-width="0.5" opacity="0.06"/><line x1="-1840" y1="0" x2="80" y2="1920" stroke="#D4AF37" stroke-width="0.5" opacity="0.06"/><line x1="-1800" y1="0" x2="120" y2="1920" stroke="#D4AF37" stroke-width="0.5" opacity="0.06"/><line x1="-1760" y1="0" x2="160" y2="1920" stroke="#D4AF37" stroke-width="0.5" opacity="0.06"/><line x1="-1720" y1="0" x2="200" y2="1920" stroke="#D4AF37" stroke-width="0.5" opacity="0.06"/><line x1="-1680" y1="0" x2="240" y2="1920" stroke="#D4AF37" stroke-width="0.5" opacity="0.06"/><line x1="-1640" y1="0" x2="280" y2="1920" stroke="#D4AF37" stroke-width="0.5" opacity="0.06"/><line x1="-1600" y1="0" x2="320" y2="1920" stroke="#D4AF37" stroke-width="0.5" opacity="0.06"/><line x1="-1560" y1="0" x2="360" y2="1920" stroke="#D4AF37" stroke-width="0.5" opacity="0.06"/><line x1="-1520" y1="0" x2="400" y2="1920" stroke="#D4AF37" stroke-width="0.5" opacity="0.06"/><line x1="-1480" y1="0" x2="440" y2="1920" stroke="#D4AF37" stroke-width="0.5" opacity="0.06"/><line x1="-1440" y1="0" x2="480" y2="1920" stroke="#D4AF37" stroke-width="0.5" opacity="0.06"/><line x1="-1400" y1="0" x2="520" y2="1920" stroke="#D4AF37" stroke-width="0.5" opacity="0.06"/><line x1="-1360" y1="0" x2="560" y2="1920" stroke="#D4AF37" stroke-width="0.5" opacity="0.06"/><line x1="-1320" y1="0" x2="600" y2="1920" stroke="#D4AF37" stroke-width="0.5" opacity="0.06"/><line x1="-1280" y1="0" x2="640" y2="1920" stroke="#D4AF37" stroke-width="0.5" opacity="0.06"/><line x1="-1240" y1="0" x2="680" y2="1920" stroke="#D4AF37" stroke-width="0.5" opacity="0.06"/><line x1="-1200" y1="0" x2="720" y2="1920" stroke="#D4AF37" stroke-width="0.5" opacity="0.06"/><line x1="-1160" y1="0" x2="760" y2="1920" stroke="#D4AF37" stroke-width="0.5" opacity="0.06"/><line x1="-1120" y1="0" x2="800" y2="1920" stroke="#D4AF37" stroke-width="0.5" opacity="0.06"/><line x1="-1080" y1="0" x2="840" y2="1920" stroke="#D4AF37" stroke-width="0.5" opacity="0.06"/><line x1="-1040" y1="0" x2="880" y2="1920" stroke="#D4AF37" stroke-width="0.5" opacity="0.06"/><line x1="-1000" y1="0" x2="920" y2="1920" stroke="#D4AF37" stroke-width="0.5" opacity="0.06"/><line x1="-960" y1="0" x2="960" y2="1920" stroke="#D4AF37" stroke-width="0.5" opacity="0.06"/><line x1="-920" y1="0" x2="1000" y2="1920" stroke="#D4AF37" stroke-width="0.5" opacity="0.06"/><line x1="-880" y1="0" x2="1040" y2="1920" stroke="#D4AF37" stroke-width="0.5" opacity="0.06"/><line x1="-840" y1="0" x2="1080" y2="1920" stroke="#D4AF37" stroke-width="0.5" opacity="0.06"/><line x1="-800" y1="0" x2="1120" y2="1920" stroke="#D4AF37" stroke-width="0.5" opacity="0.06"/><line x1="-760" y1="0" x2="1160" y2="1920" stroke="#D4AF37" stroke-width="0.5" opacity="0.06"/><line x1="-720" y1="0" x2="1200" y2="1920" stroke="#D4AF37" stroke-width="0.5" opacity="0.06"/><line x1="-680" y1="0" x2="1240" y2="1920" stroke="#D4AF37" stroke-width="0.5" opacity="0.06"/><line x1="-640" y1="0" x2="1280" y2="1920" stroke="#D4AF37" stroke-width="0.5" opacity="0.06"/><line x1="-600" y1="0" x2="1320" y2="1920" stroke="#D4AF37" stroke-width="0.5" opacity="0.06"/><line x1="-560" y1="0" x2="1360" y2="1920" stroke="#D4AF37" stroke-width="0.5" opacity="0.06"/><line x1="-520" y1="0" x2="1400" y2="1920" stroke="#D4AF37" stroke-width="0.5" opacity="0.06"/><line x1="-480" y1="0" x2="1440" y2="1920" stroke="#D4AF37" stroke-width="0.5" opacity="0.06"/><line x1="-440" y1="0" x2="1480" y2="1920" stroke="#D4AF37" stroke-width="0.5" opacity="0.06"/><line x1="-400" y1="0" x2="1520" y2="1920" stroke="#D4AF37" stroke-width="0.5" opacity="0.06"/><line x1="-360" y1="0" x2="1560" y2="1920" stroke="#D4AF37" stroke-width="0.5" opacity="0.06"/><line x1="-320" y1="0" x2="1600" y2="1920" stroke="#D4AF37" stroke-width="0.5" opacity="0.06"/><line x1="-280" y1="0" x2="1640" y2="1920" stroke="#D4AF37" stroke-width="0.5" opacity="0.06"/><line x1="-240" y1="0" x2="1680" y2="1920" stroke="#D4AF37" stroke-width="0.5" opacity="0.06"/><line x1="-200" y1="0" x2="1720" y2="1920" stroke="#D4AF37" stroke-width="0.5" opacity="0.06"/><line x1="-160" y1="0" x2="1760" y2="1920" stroke="#D4AF37" stroke-width="0.5" opacity="0.06"/><line x1="-120" y1="0" x2="1800" y2="1920" stroke="#D4AF37" stroke-width="0.5" opacity="0.06"/><line x1="-80" y1="0" x2="1840" y2="1920" stroke="#D4AF37" stroke-width="0.5" opacity="0.06"/><line x1="-40" y1="0" x2="1880" y2="1920" stroke="#D4AF37" stroke-width="0.5" opacity="0.06"/><line x1="0" y1="0" x2="1920" y2="1920" stroke="#D4AF37" stroke-width="0.5" opacity="0.06"/><line x1="40" y1="0" x2="1960" y2="1920" stroke="#D4AF37" stroke-width="0.5" opacity="0.06"/><line x1="80" y1="0" x2="2000" y2="1920" stroke="#D4AF37" stroke-width="0.5" opacity="0.06"/><line x1="120" y1="0" x2="2040" y2="1920" stroke="#D4AF37" stroke-width="0.5" opacity="0.06"/><line x1="160" y1="0" x2="2080" y2="1920" stroke="#D4AF37" stroke-width="0.5" opacity="0.06"/><line x1="200" y1="0" x2="2120" y2="1920" stroke="#D4AF37" stroke-width="0.5" opacity="0.06"/><line x1="240" y1="0" x2="2160" y2="1920" stroke="#D4AF37" stroke-width="0.5" opacity="0.06"/><line x1="280" y1="0" x2="2200" y2="1920" stroke="#D4AF37" stroke-width="0.5" opacity="0.06"/><line x1="320" y1="0" x2="2240" y2="1920" stroke="#D4AF37" stroke-width="0.5" opacity="0.06"/><line x1="360" y1="0" x2="2280" y2="1920" stroke="#D4AF37" stroke-width="0.5" opacity="0.06"/><line x1="400" y1="0" x2="2320" y2="1920" stroke="#D4AF37" stroke-width="0.5" opacity="0.06"/><line x1="440" y1="0" x2="2360" y2="1920" stroke="#D4AF37" stroke-width="0.5" opacity="0.06"/><line x1="480" y1="0" x2="2400" y2="1920" stroke="#D4AF37" stroke-width="0.5" opacity="0.06"/><line x1="520" y1="0" x2="2440" y2="1920" stroke="#D4AF37" stroke-width="0.5" opacity="0.06"/><line x1="560" y1="0" x2="2480" y2="1920" stroke="#D4AF37" stroke-width="0.5" opacity="0.06"/><line x1="600" y1="0" x2="2520" y2="1920" stroke="#D4AF37" stroke-width="0.5" opacity="0.06"/><line x1="640" y1="0" x2="2560" y2="1920" stroke="#D4AF37" stroke-width="0.5" opacity="0.06"/><line x1="680" y1="0" x2="2600" y2="1920" stroke="#D4AF37" stroke-width="0.5" opacity="0.06"/><line x1="720" y1="0" x2="2640" y2="1920" stroke="#D4AF37" stroke-width="0.5" opacity="0.06"/><line x1="760" y1="0" x2="2680" y2="1920" stroke="#D4AF37" stroke-width="0.5" opacity="0.06"/><line x1="800" y1="0" x2="2720" y2="1920" stroke="#D4AF37" stroke-width="0.5" opacity="0.06"/><line x1="840" y1="0" x2="2760" y2="1920" stroke="#D4AF37" stroke-width="0.5" opacity="0.06"/><line x1="880" y1="0" x2="2800" y2="1920" stroke="#D4AF37" stroke-width="0.5" opacity="0.06"/><line x1="920" y1="0" x2="2840" y2="1920" stroke="#D4AF37" stroke-width="0.5" opacity="0.06"/><line x1="960" y1="0" x2="2880" y2="1920" stroke="#D4AF37" stroke-width="0.5" opacity="0.06"/><line x1="1000" y1="0" x2="2920" y2="1920" stroke="#D4AF37" stroke-width="0.5" opacity="0.06"/><line x1="1040" y1="0" x2="2960" y2="1920" stroke="#D4AF37" stroke-width="0.5" opacity="0.06"/><line x1="1080" y1="0" x2="3000" y2="1920" stroke="#D4AF37" stroke-width="0.5" opacity="0.06"/><line x1="1120" y1="0" x2="3040" y2="1920" stroke="#D4AF37" stroke-width="0.5" opacity="0.06"/><line x1="1160" y1="0" x2="3080" y2="1920" stroke="#D4AF37" stroke-width="0.5" opacity="0.06"/><line x1="1200" y1="0" x2="3120" y2="1920" stroke="#D4AF37" stroke-width="0.5" opacity="0.06"/><line x1="1240" y1="0" x2="3160" y2="1920" stroke="#D4AF37" stroke-width="0.5" opacity="0.06"/><line x1="1280" y1="0" x2="3200" y2="1920" stroke="#D4AF37" stroke-width="0.5" opacity="0.06"/><line x1="1320" y1="0" x2="3240" y2="1920" stroke="#D4AF37" stroke-width="0.5" opacity="0.06"/><line x1="1360" y1="0" x2="3280" y2="1920" stroke="#D4AF37" stroke-width="0.5" opacity="0.06"/><line x1="1400" y1="0" x2="3320" y2="1920" stroke="#D4AF37" stroke-width="0.5" opacity="0.06"/><line x1="1440" y1="0" x2="3360" y2="1920" stroke="#D4AF37" stroke-width="0.5" opacity="0.06"/><line x1="1480" y1="0" x2="3400" y2="1920" stroke="#D4AF37" stroke-width="0.5" opacity="0.06"/><line x1="1520" y1="0" x2="3440" y2="1920" stroke="#D4AF37" stroke-width="0.5" opacity="0.06"/><line x1="1560" y1="0" x2="3480" y2="1920" stroke="#D4AF37" stroke-width="0.5" opacity="0.06"/><line x1="1600" y1="0" x2="3520" y2="1920" stroke="#D4AF37" stroke-width="0.5" opacity="0.06"/><line x1="1640" y1="0" x2="3560" y2="1920" stroke="#D4AF37" stroke-width="0.5" opacity="0.06"/><line x1="1680" y1="0" x2="3600" y2="1920" stroke="#D4AF37" stroke-width="0.5" opacity="0.06"/><line x1="1720" y1="0" x2="3640" y2="1920" stroke="#D4AF37" stroke-width="0.5" opacity="0.06"/><line x1="1760" y1="0" x2="3680" y2="1920" stroke="#D4AF37" stroke-width="0.5" opacity="0.06"/><line x1="1800" y1="0" x2="3720" y2="1920" stroke="#D4AF37" stroke-width="0.5" opacity="0.06"/><line x1="1840" y1="0" x2="3760" y2="1920" stroke="#D4AF37" stroke-width="0.5" opacity="0.06"/><line x1="1880" y1="0" x2="3800" y2="1920" stroke="#D4AF37" stroke-width="0.5" opacity="0.06"/><line x1="1920" y1="0" x2="3840" y2="1920" stroke="#D4AF37" stroke-width="0.5" opacity="0.06"/><line x1="1960" y1="0" x2="3880" y2="1920" stroke="#D4AF37" stroke-width="0.5" opacity="0.06"/><line x1="2000" y1="0" x2="3920" y2="1920" stroke="#D4AF37" stroke-width="0.5" opacity="0.06"/><line x1="2040" y1="0" x2="3960" y2="1920" stroke="#D4AF37" stroke-width="0.5" opacity="0.06"/><line x1="2080" y1="0" x2="4000" y2="1920" stroke="#D4AF37" stroke-width="0.5" opacity="0.06"/><line x1="2120" y1="0" x2="4040" y2="1920" stroke="#D4AF37" stroke-width="0.5" opacity="0.06"/><line x1="2160" y1="0" x2="4080" y2="1920" stroke="#D4AF37" stroke-width="0.5" opacity="0.06"/><line x1="2200" y1="0" x2="4120" y2="1920" stroke="#D4AF37" stroke-width="0.5" opacity="0.06"/><line x1="2240" y1="0" x2="4160" y2="1920" stroke="#D4AF37" stroke-width="0.5" opacity="0.06"/><line x1="2280" y1="0" x2="4200" y2="1920" stroke="#D4AF37" stroke-width="0.5" opacity="0.06"/><line x1="2320" y1="0" x2="4240" y2="1920" stroke="#D4AF37" stroke-width="0.5" opacity="0.06"/><line x1="2360" y1="0" x2="4280" y2="1920" stroke="#D4AF37" stroke-width="0.5" opacity="0.06"/><line x1="2400" y1="0" x2="4320" y2="1920" stroke="#D4AF37" stroke-width="0.5" opacity="0.06"/><line x1="2440" y1="0" x2="4360" y2="1920" stroke="#D4AF37" stroke-width="0.5" opacity="0.06"/><line x1="2480" y1="0" x2="4400" y2="1920" stroke="#D4AF37" stroke-width="0.5" opacity="0.06"/><line x1="2520" y1="0" x2="4440" y2="1920" stroke="#D4AF37" stroke-width="0.5" opacity="0.06"/><line x1="2560" y1="0" x2="4480" y2="1920" stroke="#D4AF37" stroke-width="0.5" opacity="0.06"/><line x1="2600" y1="0" x2="4520" y2="1920" stroke="#D4AF37" stroke-width="0.5" opacity="0.06"/><line x1="2640" y1="0" x2="4560" y2="1920" stroke="#D4AF37" stroke-width="0.5" opacity="0.06"/><line x1="2680" y1="0" x2="4600" y2="1920" stroke="#D4AF37" stroke-width="0.5" opacity="0.06"/><line x1="2720" y1="0" x2="4640" y2="1920" stroke="#D4AF37" stroke-width="0.5" opacity="0.06"/><line x1="2760" y1="0" x2="4680" y2="1920" stroke="#D4AF37" stroke-width="0.5" opacity="0.06"/><line x1="2800" y1="0" x2="4720" y2="1920" stroke="#D4AF37" stroke-width="0.5" opacity="0.06"/><line x1="2840" y1="0" x2="4760" y2="1920" stroke="#D4AF37" stroke-width="0.5" opacity="0.06"/><line x1="2880" y1="0" x2="4800" y2="1920" stroke="#D4AF37" stroke-width="0.5" opacity="0.06"/><line x1="2920" y1="0" x2="4840" y2="1920" stroke="#D4AF37" stroke-width="0.5" opacity="0.06"/><line x1="2960" y1="0" x2="4880" y2="1920" stroke="#D4AF37" stroke-width="0.5" opacity="0.06"/>
  
    
    <g transform="translate(540, 120) scale(0.55)">
      <circle cx="0" cy="0" r="50" fill="none" stroke="url(#goldGrad)" stroke-width="3"/>
      <path d="M0,-35 L6,-18 L0,-22 L-6,-18 Z" fill="url(#goldGrad)"/>
      <rect x="-2" y="-22" width="4" height="14" fill="url(#goldGrad)"/>
      <ellipse cx="0" cy="5" rx="14" ry="18" fill="url(#goldGrad)"/>
      <circle cx="0" cy="-10" r="9" fill="url(#goldGrad)"/>
      <g fill="none" stroke="url(#goldGrad)" stroke-width="2" opacity="0.8">
        <path d="M-12,8 Q-28,-5 -32,-22"/>
        <path d="M-6,12 Q-16,-2 -18,-25"/>
        <path d="M0,14 Q0,-2 0,-28"/>
        <path d="M6,12 Q16,-2 18,-25"/>
        <path d="M12,8 Q28,-5 32,-22"/>
      </g>
    </g>
  
    <text x="540" y="185" text-anchor="middle" fill="url(#goldGrad)" font-size="24" font-family="Cambria, serif" font-weight="900" letter-spacing="3">SRI VELMAYIL JEWELLERY</text>
    <text x="540" y="212" text-anchor="middle" fill="#F3E5AB" font-size="13" font-family="Calibri, sans-serif" letter-spacing="8" opacity="0.85">— TIRUPUR —</text>
  
    <text x="80" y="280" text-anchor="start" fill="#F3E5AB" font-size="18" font-family="Calibri, sans-serif">Today's</text>
    <text x="200" y="280" text-anchor="start" fill="#ffffff" font-size="22" font-weight="900" font-family="Calibri, sans-serif"> GOLD RATE</text>
    <text x="80" y="325" text-anchor="start" fill="#ffffff" font-size="30" font-weight="900" font-family="Cambria, serif">15TH JUNE 2026</text>
  
      <g transform="translate(60, 340)">
        <rect width="300" height="120" rx="8" fill="#1a0b2e" fill-opacity="0.6" stroke="#D4AF37" stroke-width="2"/>
        <text x="150" y="35" text-anchor="middle" fill="#F3E5AB" font-size="14" font-weight="bold" letter-spacing="1">1GM 22K</text>
        <text x="150" y="80" text-anchor="middle" fill="#ffffff" font-size="42" font-weight="900" font-family="Cambria, serif">₹12,152</text>
        <line x1="300" y1="20" x2="300" y2="100" stroke="#D4AF37" stroke-width="1" stroke-dasharray="4,4" opacity="0.4"/>
      </g>
    
      <g transform="translate(390, 340)">
        <rect width="300" height="120" rx="8" fill="#1a0b2e" fill-opacity="0.6" stroke="#D4AF37" stroke-width="2"/>
        <text x="150" y="35" text-anchor="middle" fill="#F3E5AB" font-size="14" font-weight="bold" letter-spacing="1">8GM 22K</text>
        <text x="150" y="80" text-anchor="middle" fill="#ffffff" font-size="42" font-weight="900" font-family="Cambria, serif">₹97,216</text>
        <line x1="300" y1="20" x2="300" y2="100" stroke="#D4AF37" stroke-width="1" stroke-dasharray="4,4" opacity="0.4"/>
      </g>
    
      <g transform="translate(720, 340)">
        <rect width="300" height="120" rx="8" fill="#1a0b2e" fill-opacity="0.6" stroke="#D4AF37" stroke-width="2"/>
        <text x="150" y="35" text-anchor="middle" fill="#F3E5AB" font-size="14" font-weight="bold" letter-spacing="1">1GM SILVER</text>
        <text x="150" y="80" text-anchor="middle" fill="#ffffff" font-size="42" font-weight="900" font-family="Cambria, serif">₹217</text>
        
      </g>
    
    <circle cx="540" cy="900" r="150" fill="#D4AF37" opacity="0.08"/>
    <circle cx="540" cy="900" r="140" fill="none" stroke="#D4AF37" stroke-width="2" opacity="0.4"/>
    <g transform="translate(540, 900)"><path d="M-88.13154189673396,-42 Q0,84 88.13154189673396,-42" fill="none" stroke="#D4AF37" stroke-width="4.078429994246392"/><circle cx="-74.91181061222387" cy="-13.999999999999998" r="6.682490781585212" fill="#F3E5AB" opacity="0.9"/><circle cx="-37.45590530611197" cy="-32.18653347947321" r="4.622576412393317" fill="#F3E5AB" opacity="0.9"/><circle cx="37.45590530611189" cy="-32.18653347947322" r="7.641789527276335" fill="#F3E5AB" opacity="0.9"/><circle cx="0" cy="49" r="15.334881604961009" fill="#D4AF37" stroke="#F3E5AB" stroke-width="1"/></g>
  <ellipse cx="158.1775627221703" cy="1040.099418893549" rx="12" ry="8" fill="#D4AF37" opacity="0.12" transform="rotate(0 158.1775627221703 1040.099418893549)"/><ellipse cx="150.64735875934497" cy="1055.7360485429097" rx="12" ry="8" fill="#D4AF37" opacity="0.12" transform="rotate(51.43235972877004 150.64735875934497 1055.7360485429097)"/><ellipse cx="133.727144043044" cy="1059.5979771371856" rx="12" ry="8" fill="#D4AF37" opacity="0.12" transform="rotate(102.86471945754008 133.727144043044 1059.5979771371856)"/><ellipse cx="120.15818536412192" cy="1048.7770936759002" rx="12" ry="8" fill="#D4AF37" opacity="0.12" transform="rotate(154.29707918631013 120.15818536412192 1048.7770936759002)"/><ellipse cx="120.15818536412192" cy="1031.4217441111978" rx="12" ry="8" fill="#D4AF37" opacity="0.12" transform="rotate(205.72943891508015 120.15818536412192 1031.4217441111978)"/><ellipse cx="133.727144043044" cy="1020.6008606499125" rx="12" ry="8" fill="#D4AF37" opacity="0.12" transform="rotate(257.1617986438502 133.727144043044 1020.6008606499125)"/><ellipse cx="150.64735875934497" cy="1024.4627892441883" rx="12" ry="8" fill="#D4AF37" opacity="0.12" transform="rotate(308.59415837262026 150.64735875934497 1024.4627892441883)"/><circle cx="138.1775627221703" cy="1040.099418893549" r="8" fill="#F3E5AB" opacity="0.2"/><ellipse cx="1047.0248420974472" cy="967.9657308235445" rx="12" ry="8" fill="#D4AF37" opacity="0.12" transform="rotate(0 1047.0248420974472 967.9657308235445)"/><ellipse cx="1041.1669777211782" cy="982.1078664472755" rx="12" ry="8" fill="#D4AF37" opacity="0.12" transform="rotate(45.00331476267378 1041.1669777211782 982.1078664472755)"/><ellipse cx="1027.0248420974472" cy="987.9657308235445" rx="12" ry="8" fill="#D4AF37" opacity="0.12" transform="rotate(90.00662952534756 1027.0248420974472 987.9657308235445)"/><ellipse cx="1012.8827064737162" cy="982.1078664472755" rx="12" ry="8" fill="#D4AF37" opacity="0.12" transform="rotate(135.00994428802136 1012.8827064737162 982.1078664472755)"/><ellipse cx="1007.0248420974472" cy="967.9657308235445" rx="12" ry="8" fill="#D4AF37" opacity="0.12" transform="rotate(180.01325905069513 1007.0248420974472 967.9657308235445)"/><ellipse cx="1012.8827064737162" cy="953.8235951998136" rx="12" ry="8" fill="#D4AF37" opacity="0.12" transform="rotate(225.01657381336892 1012.8827064737162 953.8235951998136)"/><ellipse cx="1027.0248420974472" cy="947.9657308235445" rx="12" ry="8" fill="#D4AF37" opacity="0.12" transform="rotate(270.0198885760427 1027.0248420974472 947.9657308235445)"/><ellipse cx="1041.166977721178" cy="953.8235951998136" rx="12" ry="8" fill="#D4AF37" opacity="0.12" transform="rotate(315.0232033387165 1041.166977721178 953.8235951998136)"/><circle cx="1027.0248420974472" cy="967.9657308235445" r="8" fill="#F3E5AB" opacity="0.2"/><ellipse cx="62.040119126476455" cy="1081.9182734432802" rx="12" ry="8" fill="#D4AF37" opacity="0.12" transform="rotate(0 62.040119126476455 1081.9182734432802)"/><ellipse cx="56.182254750207406" cy="1096.060409067011" rx="12" ry="8" fill="#D4AF37" opacity="0.12" transform="rotate(45.00331476267378 56.182254750207406 1096.060409067011)"/><ellipse cx="42.040119126476455" cy="1101.9182734432802" rx="12" ry="8" fill="#D4AF37" opacity="0.12" transform="rotate(90.00662952534756 42.040119126476455 1101.9182734432802)"/><ellipse cx="27.897983502745504" cy="1096.0604090670113" rx="12" ry="8" fill="#D4AF37" opacity="0.12" transform="rotate(135.00994428802136 27.897983502745504 1096.0604090670113)"/><ellipse cx="22.040119126476455" cy="1081.9182734432802" rx="12" ry="8" fill="#D4AF37" opacity="0.12" transform="rotate(180.01325905069513 22.040119126476455 1081.9182734432802)"/><ellipse cx="27.8979835027455" cy="1067.7761378195494" rx="12" ry="8" fill="#D4AF37" opacity="0.12" transform="rotate(225.01657381336892 27.8979835027455 1067.7761378195494)"/><ellipse cx="42.04011912647645" cy="1061.9182734432802" rx="12" ry="8" fill="#D4AF37" opacity="0.12" transform="rotate(270.0198885760427 42.04011912647645 1061.9182734432802)"/><ellipse cx="56.182254750207406" cy="1067.7761378195491" rx="12" ry="8" fill="#D4AF37" opacity="0.12" transform="rotate(315.0232033387165 56.182254750207406 1067.7761378195491)"/><circle cx="42.040119126476455" cy="1081.9182734432802" r="8" fill="#F3E5AB" opacity="0.2"/><ellipse cx="971.080781972111" cy="1220.2645589152953" rx="12" ry="8" fill="#D4AF37" opacity="0.12" transform="rotate(0 971.080781972111 1220.2645589152953)"/><ellipse cx="963.5505780092857" cy="1235.901188564656" rx="12" ry="8" fill="#D4AF37" opacity="0.12" transform="rotate(51.43235972877004 963.5505780092857 1235.901188564656)"/><ellipse cx="946.6303632929847" cy="1239.763117158932" rx="12" ry="8" fill="#D4AF37" opacity="0.12" transform="rotate(102.86471945754008 946.6303632929847 1239.763117158932)"/><ellipse cx="933.0614046140627" cy="1228.9422336976465" rx="12" ry="8" fill="#D4AF37" opacity="0.12" transform="rotate(154.29707918631013 933.0614046140627 1228.9422336976465)"/><ellipse cx="933.0614046140627" cy="1211.586884132944" rx="12" ry="8" fill="#D4AF37" opacity="0.12" transform="rotate(205.72943891508015 933.0614046140627 1211.586884132944)"/><ellipse cx="946.6303632929847" cy="1200.7660006716587" rx="12" ry="8" fill="#D4AF37" opacity="0.12" transform="rotate(257.1617986438502 946.6303632929847 1200.7660006716587)"/><ellipse cx="963.5505780092857" cy="1204.6279292659347" rx="12" ry="8" fill="#D4AF37" opacity="0.12" transform="rotate(308.59415837262026 963.5505780092857 1204.6279292659347)"/><circle cx="951.080781972111" cy="1220.2645589152953" r="8" fill="#F3E5AB" opacity="0.2"/>
    <rect x="0" y="1820" width="1080" height="120" fill="#1a0b2e" fill-opacity="0.85"/>
    <line x1="60" y1="1840" x2="1020" y2="1840" stroke="#D4AF37" stroke-width="1" opacity="0.3"/>
    <g transform="translate(80, 1875)">
      <polygon points="0,-12 -14,12 14,12" fill="none" stroke="#D4AF37" stroke-width="2"/>
      <text x="0" y="28" text-anchor="middle" fill="#D4AF37" font-size="9" font-weight="bold">916 BIS HUID</text>
    </g>
    <text x="540" y="1880" text-anchor="middle" fill="#ffffff" font-size="16" font-weight="bold">📞 9443476183</text>
    <text x="1000" y="1875" text-anchor="end" fill="#F3E5AB" font-size="12" opacity="0.85">📍 89 New Market Street, Tirupur</text>
  
</svg>