<?xml version="1.0" encoding="UTF-8"?>
<svg xmlns="http://www.w3.org/2000/svg" xmlns:xlink="http://www.w3.org/1999/xlink"
  viewBox="0 0 1080 1920" width="1080" height="1920">
  <defs>
    <linearGradient id="bgGrad" x1="0%" y1="0%" x2="100%" y2="100%">
      <stop offset="0%" stop-color="#1f0f14"/>
      <stop offset="100%" stop-color="#0f0709"/>
    </linearGradient>
    <linearGradient id="goldGrad" x1="0%" y1="0%" x2="100%" y2="0%">
      <stop offset="0%" stop-color="#e8b4b8"/>
      <stop offset="50%" stop-color="#F3E5AB"/>
      <stop offset="100%" stop-color="#e8b4b8"/>
    </linearGradient>
  </defs>
  <rect width="1080" height="1920" fill="url(#bgGrad)"/><polygon points="310.44474219013443,289.2078559912814 314.19335195440175,292.9564657555487 310.44474219013443,296.70507551981603 306.6961324258671,292.9564657555487" fill="#F3E5AB" opacity="0.1663244244794589"/><polygon points="772.5745982048796,1597.6010836340497 777.2391774218894,1602.2656628510595 772.5745982048796,1606.9302420680692 767.9100189878699,1602.2656628510595" fill="#F3E5AB" opacity="0.36871830510787507"/><polygon points="534.7950941089496,958.4012585602712 538.4399792611972,962.0461437125189 534.7950941089496,965.6910288647665 531.1502089567019,962.0461437125189" fill="#F3E5AB" opacity="0.21885791925607057"/><polygon points="882.1812759732653,1026.4428601194572 888.1061147694533,1032.3676989156452 882.1812759732653,1038.2925377118331 876.2564371770774,1032.3676989156452" fill="#F3E5AB" opacity="0.15742360885015094"/><polygon points="66.94503425335981,1535.1187166228133 69.95720591578373,1538.1308882852372 66.94503425335981,1541.1430599476612 63.93286259093589,1538.1308882852372" fill="#F3E5AB" opacity="0.3676865306847604"/><polygon points="747.0772978356828,82.51312794584142 750.1594221854205,85.59525229557907 747.0772978356828,88.67737664531673 743.9951734859451,85.59525229557907" fill="#F3E5AB" opacity="0.344797665760664"/><polygon points="411.7279371355921,622.0107583627205 414.5076991287132,624.7905203558416 411.7279371355921,627.5702823489628 408.9481751424709,624.7905203558416" fill="#F3E5AB" opacity="0.20948826913674204"/><polygon points="969.6271400057033,711.7030511588817 974.9782032603196,717.054114413498 969.6271400057033,722.4051776681143 964.276076751087,717.054114413498" fill="#F3E5AB" opacity="0.19900940600690378"/><polygon points="903.9179917275143,1543.623827276401 906.4067730125104,1546.112608561397 903.9179917275143,1548.6013898463932 901.4292104425182,1546.112608561397" fill="#F3E5AB" opacity="0.32103133068516043"/><polygon points="984.8715966612767,1165.4517181212564 987.2880214576497,1167.8681429176295 984.8715966612767,1170.2845677140026 982.4551718649037,1167.8681429176295" fill="#F3E5AB" opacity="0.31386855157452503"/><polygon points="679.4891535113464,446.05695024696826 685.3543354620732,451.92213219769496 679.4891535113464,457.7873141484217 673.6239715606197,451.92213219769496" fill="#F3E5AB" opacity="0.258478518862723"/><polygon points="534.483479926813,1247.845194790368 537.929661462018,1251.291376325573 534.483479926813,1254.7375578607782 531.0372983916079,1251.291376325573" fill="#F3E5AB" opacity="0.24798116329869366"/><polygon points="429.8859029355328,1726.0797378272562 432.4741215207373,1728.6679564124606 429.8859029355328,1731.256174997665 427.29768435032827,1728.6679564124606" fill="#F3E5AB" opacity="0.26423411752491643"/><polygon points="1018.1314937380436,379.44822563365864 1022.7112487300403,384.02798062565546 1018.1314937380436,388.6077356176523 1013.5517387460468,384.02798062565546" fill="#F3E5AB" opacity="0.24566212035311585"/><polygon points="515.7287375402905,1511.0475206496637 520.9412271147047,1516.2600102240779 515.7287375402905,1521.472499798492 510.5162479658763,1516.2600102240779" fill="#F3E5AB" opacity="0.12342125058492763"/><polygon points="147.45868331516039,1451.3244669393864 150.53026293826315,1454.3960465624891 147.45868331516039,1457.4676261855918 144.38710369205762,1454.3960465624891" fill="#F3E5AB" opacity="0.25290613044323973"/><polygon points="336.00783831999433,1850.3855143472417 341.16804288063946,1855.5457189078868 336.00783831999433,1860.7059234685319 330.8476337593492,1855.5457189078868" fill="#F3E5AB" opacity="0.2168543000396847"/><polygon points="612.799921029061,794.5605524690454 615.1751758746572,796.9358073146416 612.799921029061,799.3110621602377 610.4246661834649,796.9358073146416" fill="#F3E5AB" opacity="0.31811637270088905"/><polygon points="654.7558486971593,638.7935954730898 658.7220415610094,642.7597883369399 654.7558486971593,646.72598120079 650.7896558333092,642.7597883369399" fill="#F3E5AB" opacity="0.23526089837333275"/><polygon points="827.7128995654293,1723.110903571463 830.2997215262611,1725.697725532295 827.7128995654293,1728.2845474931269 825.1260776045975,1725.697725532295" fill="#F3E5AB" opacity="0.3037541809526777"/><polygon points="1067.4720896663816,72.91343873824313 1071.7339761552719,77.1753252271333 1067.4720896663816,81.43721171602347 1063.2102031774914,77.1753252271333" fill="#F3E5AB" opacity="0.3644674284984055"/><polygon points="374.6557825195191,778.6186882617127 377.8012285584595,781.764134300653 374.6557825195191,784.9095803395934 371.5103364805787,781.764134300653" fill="#F3E5AB" opacity="0.36336991089710025"/><polygon points="929.1338432106505,410.3956681009342 932.0786582064617,413.34048309674534 929.1338432106505,416.2852980925565 926.1890282148394,413.34048309674534" fill="#F3E5AB" opacity="0.3629243881562021"/><polygon points="972.6913131891669,106.31633556849914 978.2000615170226,111.82508389635485 972.6913131891669,117.33383222421057 967.1825648613111,111.82508389635485" fill="#F3E5AB" opacity="0.3649862586660183"/><polygon points="446.5788253830549,1295.0873961011762 449.8437319098448,1298.352302627966 446.5788253830549,1301.617209154756 443.313918856265,1298.352302627966" fill="#F3E5AB" opacity="0.3463012872695004"/><polygon points="668.6480113385693,1003.4517482048383 673.4269946659235,1008.2307315321925 668.6480113385693,1013.0097148595468 663.869028011215,1008.2307315321925" fill="#F3E5AB" opacity="0.2779594299178193"/><polygon points="950.9025020626397,1878.9913950683467 953.4278663540518,1881.516759359759 950.9025020626397,1884.042123651171 948.3771377712275,1881.516759359759" fill="#F3E5AB" opacity="0.23482547177451243"/><polygon points="402.13946469327385,207.19744699932394 404.6991814139291,209.75716371997925 402.13946469327385,212.31688044063455 399.5797479726186,209.75716371997925" fill="#F3E5AB" opacity="0.33692132335800806"/><polygon points="132.05581774195267,104.60049042534129 137.91969618007514,110.46436886346375 132.05581774195267,116.3282473015862 126.19193930383021,110.46436886346375" fill="#F3E5AB" opacity="0.11536829407826839"/><polygon points="1061.7148839139518,852.0109473988516 1066.6889758321354,856.9850393170352 1061.7148839139518,861.9591312352188 1056.7407919957682,856.9850393170352" fill="#F3E5AB" opacity="0.2172157704524843"/>
  
    
    <g transform="translate(540, 120) scale(0.55)">
      <circle cx="0" cy="0" r="50" fill="none" stroke="url(#goldGrad)" stroke-width="3"/>
      <path d="M0,-35 L6,-18 L0,-22 L-6,-18 Z" fill="url(#goldGrad)"/>
      <rect x="-2" y="-22" width="4" height="14" fill="url(#goldGrad)"/>
      <ellipse cx="0" cy="5" rx="14" ry="18" fill="url(#goldGrad)"/>
      <circle cx="0" cy="-10" r="9" fill="url(#goldGrad)"/>
      <g fill="none" stroke="url(#goldGrad)" stroke-width="2" opacity="0.8">
        <path d="M-12,8 Q-28,-5 -32,-22"/>
        <path d="M-6,12 Q-16,-2 -18,-25"/>
        <path d="M0,14 Q0,-2 0,-28"/>
        <path d="M6,12 Q16,-2 18,-25"/>
        <path d="M12,8 Q28,-5 32,-22"/>
      </g>
    </g>
  
    <text x="540" y="185" text-anchor="middle" fill="url(#goldGrad)" font-size="26" font-family="'Book Antiqua', serif" font-weight="bold" letter-spacing="3">SRI VELMAYIL JEWELLERY</text>
    <text x="540" y="212" text-anchor="middle" fill="#d4a0a8" font-size="13" font-family="'Segoe UI', sans-serif" letter-spacing="8" opacity="0.85">— TIRUPUR —</text>
  
    <text x="80" y="280" text-anchor="start" fill="#d4a0a8" font-size="18" font-family="'Segoe UI', sans-serif">Today's</text>
    <text x="200" y="280" text-anchor="start" fill="#ffffff" font-size="22" font-weight="bold" font-family="'Segoe UI', sans-serif"> GOLD RATE</text>
    <text x="80" y="325" text-anchor="start" fill="#ffffff" font-size="32" font-weight="bold" font-family="'Book Antiqua', serif">15TH JUNE 2026</text>
  
      <g transform="translate(60, 340)">
        <rect width="300" height="120" rx="8" fill="#1f0f14" fill-opacity="0.6" stroke="#e8b4b8" stroke-width="2"/>
        <text x="150" y="35" text-anchor="middle" fill="#F3E5AB" font-size="14" font-weight="bold" letter-spacing="1">1GM 22K</text>
        <text x="150" y="80" text-anchor="middle" fill="#ffffff" font-size="36" font-weight="bold" font-family="'Book Antiqua', serif">₹12,152</text>
        <line x1="300" y1="20" x2="300" y2="100" stroke="#e8b4b8" stroke-width="1" stroke-dasharray="4,4" opacity="0.4"/>
      </g>
    
      <g transform="translate(390, 340)">
        <rect width="300" height="120" rx="8" fill="#1f0f14" fill-opacity="0.6" stroke="#e8b4b8" stroke-width="2"/>
        <text x="150" y="35" text-anchor="middle" fill="#F3E5AB" font-size="14" font-weight="bold" letter-spacing="1">8GM 22K</text>
        <text x="150" y="80" text-anchor="middle" fill="#ffffff" font-size="36" font-weight="bold" font-family="'Book Antiqua', serif">₹97,216</text>
        <line x1="300" y1="20" x2="300" y2="100" stroke="#e8b4b8" stroke-width="1" stroke-dasharray="4,4" opacity="0.4"/>
      </g>
    
      <g transform="translate(720, 340)">
        <rect width="300" height="120" rx="8" fill="#1f0f14" fill-opacity="0.6" stroke="#e8b4b8" stroke-width="2"/>
        <text x="150" y="35" text-anchor="middle" fill="#F3E5AB" font-size="14" font-weight="bold" letter-spacing="1">1GM SILVER</text>
        <text x="150" y="80" text-anchor="middle" fill="#ffffff" font-size="36" font-weight="bold" font-family="'Book Antiqua', serif">₹217</text>
        
      </g>
    
    <circle cx="540" cy="900" r="150" fill="#e8b4b8" opacity="0.08"/>
    <circle cx="540" cy="900" r="140" fill="none" stroke="#e8b4b8" stroke-width="2" opacity="0.4"/>
    <g transform="translate(540, 900)"><path d="M-115.72091333169575,-42 Q0,84 115.72091333169575,-42" fill="none" stroke="#e8b4b8" stroke-width="4.2269257635128925"/><circle cx="-98.36277633194139" cy="-13.999999999999998" r="4.139039928223044" fill="#F3E5AB" opacity="0.9"/><circle cx="-90.87535581406628" cy="-22.036352079666884" r="4.844103860523648" fill="#F3E5AB" opacity="0.9"/><circle cx="-69.55298616065141" cy="-28.849242404917497" r="6.853608519633868" fill="#F3E5AB" opacity="0.9"/><circle cx="-37.641804863667005" cy="-33.401470182737015" r="4.598398456907271" fill="#F3E5AB" opacity="0.9"/><circle cx="-1.8068948878523857e-14" cy="-35" r="5.282891861426544" fill="#F3E5AB" opacity="0.9"/><circle cx="37.64180486366697" cy="-33.401470182737015" r="5.563536259870544" fill="#F3E5AB" opacity="0.9"/><circle cx="69.55298616065139" cy="-28.8492424049175" r="6.353938712136763" fill="#F3E5AB" opacity="0.9"/><circle cx="90.87535581406625" cy="-22.036352079666898" r="6.647947764627586" fill="#F3E5AB" opacity="0.9"/><circle cx="0" cy="49" r="10.087136013514488" fill="#e8b4b8" stroke="#F3E5AB" stroke-width="1"/></g>
  <ellipse cx="69.07546588133599" cy="1045.6452172898178" rx="12" ry="8" fill="#e8b4b8" opacity="0.12" transform="rotate(0 69.07546588133599 1045.6452172898178)"/><ellipse cx="61.54526191851066" cy="1061.2818469391784" rx="12" ry="8" fill="#e8b4b8" opacity="0.12" transform="rotate(51.43235972877004 61.54526191851066 1061.2818469391784)"/><ellipse cx="44.6250472022097" cy="1065.1437755334543" rx="12" ry="8" fill="#e8b4b8" opacity="0.12" transform="rotate(102.86471945754008 44.6250472022097 1065.1437755334543)"/><ellipse cx="31.056088523287606" cy="1054.322892072169" rx="12" ry="8" fill="#e8b4b8" opacity="0.12" transform="rotate(154.29707918631013 31.056088523287606 1054.322892072169)"/><ellipse cx="31.056088523287602" cy="1036.9675425074665" rx="12" ry="8" fill="#e8b4b8" opacity="0.12" transform="rotate(205.72943891508015 31.056088523287602 1036.9675425074665)"/><ellipse cx="44.62504720220969" cy="1026.1466590461812" rx="12" ry="8" fill="#e8b4b8" opacity="0.12" transform="rotate(257.1617986438502 44.62504720220969 1026.1466590461812)"/><ellipse cx="61.545261918510654" cy="1030.008587640457" rx="12" ry="8" fill="#e8b4b8" opacity="0.12" transform="rotate(308.59415837262026 61.545261918510654 1030.008587640457)"/><circle cx="49.07546588133599" cy="1045.6452172898178" r="8" fill="#F3E5AB" opacity="0.2"/><ellipse cx="961.1179571329783" cy="1088.32393923432" rx="12" ry="8" fill="#e8b4b8" opacity="0.12" transform="rotate(0 961.1179571329783 1088.32393923432)"/><ellipse cx="955.2600927567092" cy="1102.466074858051" rx="12" ry="8" fill="#e8b4b8" opacity="0.12" transform="rotate(45.00331476267378 955.2600927567092 1102.466074858051)"/><ellipse cx="941.1179571329783" cy="1108.32393923432" rx="12" ry="8" fill="#e8b4b8" opacity="0.12" transform="rotate(90.00662952534756 941.1179571329783 1108.32393923432)"/><ellipse cx="926.9758215092473" cy="1102.466074858051" rx="12" ry="8" fill="#e8b4b8" opacity="0.12" transform="rotate(135.00994428802136 926.9758215092473 1102.466074858051)"/><ellipse cx="921.1179571329783" cy="1088.32393923432" rx="12" ry="8" fill="#e8b4b8" opacity="0.12" transform="rotate(180.01325905069513 921.1179571329783 1088.32393923432)"/><ellipse cx="926.9758215092473" cy="1074.1818036105892" rx="12" ry="8" fill="#e8b4b8" opacity="0.12" transform="rotate(225.01657381336892 926.9758215092473 1074.1818036105892)"/><ellipse cx="941.1179571329783" cy="1068.32393923432" rx="12" ry="8" fill="#e8b4b8" opacity="0.12" transform="rotate(270.0198885760427 941.1179571329783 1068.32393923432)"/><ellipse cx="955.2600927567092" cy="1074.181803610589" rx="12" ry="8" fill="#e8b4b8" opacity="0.12" transform="rotate(315.0232033387165 955.2600927567092 1074.181803610589)"/><circle cx="941.1179571329783" cy="1088.32393923432" r="8" fill="#F3E5AB" opacity="0.2"/><ellipse cx="128.15394745036394" cy="846.8690220256047" rx="12" ry="8" fill="#e8b4b8" opacity="0.12" transform="rotate(0 128.15394745036394 846.8690220256047)"/><ellipse cx="118.15394745036396" cy="864.1895301012935" rx="12" ry="8" fill="#e8b4b8" opacity="0.12" transform="rotate(60.00441968356504 118.15394745036396 864.1895301012935)"/><ellipse cx="98.15394745036396" cy="864.1895301012935" rx="12" ry="8" fill="#e8b4b8" opacity="0.12" transform="rotate(120.00883936713008 98.15394745036396 864.1895301012935)"/><ellipse cx="88.15394745036396" cy="846.8690220256047" rx="12" ry="8" fill="#e8b4b8" opacity="0.12" transform="rotate(180.01325905069513 88.15394745036396 846.8690220256047)"/><ellipse cx="98.15394745036394" cy="829.548513949916" rx="12" ry="8" fill="#e8b4b8" opacity="0.12" transform="rotate(240.01767873426016 98.15394745036394 829.548513949916)"/><ellipse cx="118.15394745036396" cy="829.548513949916" rx="12" ry="8" fill="#e8b4b8" opacity="0.12" transform="rotate(300.02209841782525 118.15394745036396 829.548513949916)"/><circle cx="108.15394745036396" cy="846.8690220256047" r="8" fill="#F3E5AB" opacity="0.2"/><ellipse cx="1017.1903429293915" cy="714.3828616835017" rx="12" ry="8" fill="#e8b4b8" opacity="0.12" transform="rotate(0 1017.1903429293915 714.3828616835017)"/><ellipse cx="1009.6601389665661" cy="730.0194913328622" rx="12" ry="8" fill="#e8b4b8" opacity="0.12" transform="rotate(51.43235972877004 1009.6601389665661 730.0194913328622)"/><ellipse cx="992.7399242502652" cy="733.8814199271382" rx="12" ry="8" fill="#e8b4b8" opacity="0.12" transform="rotate(102.86471945754008 992.7399242502652 733.8814199271382)"/><ellipse cx="979.1709655713431" cy="723.0605364658528" rx="12" ry="8" fill="#e8b4b8" opacity="0.12" transform="rotate(154.29707918631013 979.1709655713431 723.0605364658528)"/><ellipse cx="979.1709655713431" cy="705.7051869011506" rx="12" ry="8" fill="#e8b4b8" opacity="0.12" transform="rotate(205.72943891508015 979.1709655713431 705.7051869011506)"/><ellipse cx="992.7399242502652" cy="694.8843034398652" rx="12" ry="8" fill="#e8b4b8" opacity="0.12" transform="rotate(257.1617986438502 992.7399242502652 694.8843034398652)"/><ellipse cx="1009.6601389665661" cy="698.7462320341411" rx="12" ry="8" fill="#e8b4b8" opacity="0.12" transform="rotate(308.59415837262026 1009.6601389665661 698.7462320341411)"/><circle cx="997.1903429293915" cy="714.3828616835017" r="8" fill="#F3E5AB" opacity="0.2"/>
    <rect x="0" y="1820" width="1080" height="120" fill="#1f0f14" fill-opacity="0.85"/>
    <line x1="60" y1="1840" x2="1020" y2="1840" stroke="#e8b4b8" stroke-width="1" opacity="0.3"/>
    <g transform="translate(80, 1875)">
      <polygon points="0,-12 -14,12 14,12" fill="none" stroke="#e8b4b8" stroke-width="2"/>
      <text x="0" y="28" text-anchor="middle" fill="#e8b4b8" font-size="9" font-weight="bold">916 BIS HUID</text>
    </g>
    <text x="540" y="1880" text-anchor="middle" fill="#ffffff" font-size="16" font-weight="bold">📞 9443476183</text>
    <text x="1000" y="1875" text-anchor="end" fill="#d4a0a8" font-size="12" opacity="0.85">📍 89 New Market Street, Tirupur</text>
  
</svg>