<?xml version="1.0" encoding="UTF-8"?>
<svg xmlns="http://www.w3.org/2000/svg" xmlns:xlink="http://www.w3.org/1999/xlink"
  viewBox="0 0 1080 1920" width="1080" height="1920">
  <defs>
    <linearGradient id="bgGrad" x1="0%" y1="0%" x2="100%" y2="100%">
      <stop offset="0%" stop-color="#2d020d"/>
      <stop offset="100%" stop-color="#120105"/>
    </linearGradient>
    <linearGradient id="goldGrad" x1="0%" y1="0%" x2="100%" y2="0%">
      <stop offset="0%" stop-color="#D4AF37"/>
      <stop offset="50%" stop-color="#F3E5AB"/>
      <stop offset="100%" stop-color="#D4AF37"/>
    </linearGradient>
  </defs>
  <rect width="1080" height="1920" fill="url(#bgGrad)"/><circle cx="929.6373065837074" cy="96.37853989040343" r="146.1778508370536" fill="#D4AF37" opacity="0.05876593474183784"/><circle cx="948.7882236473152" cy="148.75709666754778" r="66.71146276100674" fill="#D4AF37" opacity="0.10850006291037431"/><circle cx="486.68909568962556" cy="1677.5749314553802" r="183.48957231593278" fill="#D4AF37" opacity="0.09144864922989965"/><circle cx="209.3739641172569" cy="547.9497461653777" r="129.28287827343016" fill="#D4AF37" opacity="0.08475132842059371"/><circle cx="546.9244892028388" cy="497.58969561903706" r="155.83545010149055" fill="#D4AF37" opacity="0.10110573827857686"/><circle cx="649.7207507767907" cy="1878.509640953047" r="169.2946518671649" fill="#D4AF37" opacity="0.08355797159351219"/><circle cx="705.9462882447488" cy="1847.5901456992983" r="63.96494450416876" fill="#D4AF37" opacity="0.0630881322250591"/><circle cx="26.86502328781879" cy="143.03047133891886" r="46.09547496409665" fill="#D4AF37" opacity="0.05624002089373769"/><circle cx="192.37992028927422" cy="1581.026219707938" r="158.97310700171914" fill="#D4AF37" opacity="0.06431795565347928"/><circle cx="742.5732456171636" cy="1828.5186283928515" r="72.71567615933313" fill="#D4AF37" opacity="0.08195824090573772"/><circle cx="985.8624055104912" cy="52.355824161652315" r="88.69594176178421" fill="#D4AF37" opacity="0.048390409511877605"/><circle cx="331.3587184914935" cy="1183.9778586327823" r="59.65631673080504" fill="#D4AF37" opacity="0.09959047106522179"/>
  
    
    <g transform="translate(540, 100) scale(0.55)">
      <circle cx="0" cy="0" r="50" fill="none" stroke="url(#goldGrad)" stroke-width="3"/>
      <path d="M0,-35 L6,-18 L0,-22 L-6,-18 Z" fill="url(#goldGrad)"/>
      <rect x="-2" y="-22" width="4" height="14" fill="url(#goldGrad)"/>
      <ellipse cx="0" cy="5" rx="14" ry="18" fill="url(#goldGrad)"/>
      <circle cx="0" cy="-10" r="9" fill="url(#goldGrad)"/>
      <g fill="none" stroke="url(#goldGrad)" stroke-width="2" opacity="0.8">
        <path d="M-12,8 Q-28,-5 -32,-22"/>
        <path d="M-6,12 Q-16,-2 -18,-25"/>
        <path d="M0,14 Q0,-2 0,-28"/>
        <path d="M6,12 Q16,-2 18,-25"/>
        <path d="M12,8 Q28,-5 32,-22"/>
      </g>
    </g>
  
    <text x="540" y="165" text-anchor="middle" fill="url(#goldGrad)" font-size="28" font-family="Palatino, serif" font-weight="bold" letter-spacing="3">SRI VELMAYIL JEWELLERY</text>
    <text x="540" y="192" text-anchor="middle" fill="#e8d5a3" font-size="13" font-family="Verdana, sans-serif" letter-spacing="8" opacity="0.85">— TIRUPUR —</text>
  
    <circle cx="540" cy="550" r="170" fill="#D4AF37" opacity="0.08"/>
    <circle cx="540" cy="550" r="160" fill="none" stroke="#D4AF37" stroke-width="2" opacity="0.4"/>
    <g transform="translate(540, 550)"><path d="M0,-80 L-40,16 L40,16 Z" fill="#D4AF37"/><ellipse cx="0" cy="56" rx="48" ry="64" fill="none" stroke="#D4AF37" stroke-width="2.7098450881520706"/><circle cx="0" cy="56" r="8.590661655730253" fill="#F3E5AB" opacity="0.85"/></g>
  <ellipse cx="119.59232019688218" cy="766.9140312363525" rx="12" ry="8" fill="#D4AF37" opacity="0.12" transform="rotate(0 119.59232019688218 766.9140312363525)"/><ellipse cx="109.59232019688218" cy="784.2345393120412" rx="12" ry="8" fill="#D4AF37" opacity="0.12" transform="rotate(60.00441968356504 109.59232019688218 784.2345393120412)"/><ellipse cx="89.59232019688218" cy="784.2345393120412" rx="12" ry="8" fill="#D4AF37" opacity="0.12" transform="rotate(120.00883936713008 89.59232019688218 784.2345393120412)"/><ellipse cx="79.59232019688218" cy="766.9140312363525" rx="12" ry="8" fill="#D4AF37" opacity="0.12" transform="rotate(180.01325905069513 79.59232019688218 766.9140312363525)"/><ellipse cx="89.59232019688217" cy="749.5935231606637" rx="12" ry="8" fill="#D4AF37" opacity="0.12" transform="rotate(240.01767873426016 89.59232019688217 749.5935231606637)"/><ellipse cx="109.59232019688218" cy="749.5935231606637" rx="12" ry="8" fill="#D4AF37" opacity="0.12" transform="rotate(300.02209841782525 109.59232019688218 749.5935231606637)"/><circle cx="99.59232019688218" cy="766.9140312363525" r="8" fill="#F3E5AB" opacity="0.2"/><ellipse cx="955.798568637854" cy="1229.9026661048667" rx="12" ry="8" fill="#D4AF37" opacity="0.12" transform="rotate(0 955.798568637854 1229.9026661048667)"/><ellipse cx="949.940704261585" cy="1244.0448017285976" rx="12" ry="8" fill="#D4AF37" opacity="0.12" transform="rotate(45.00331476267378 949.940704261585 1244.0448017285976)"/><ellipse cx="935.798568637854" cy="1249.9026661048667" rx="12" ry="8" fill="#D4AF37" opacity="0.12" transform="rotate(90.00662952534756 935.798568637854 1249.9026661048667)"/><ellipse cx="921.6564330141231" cy="1244.0448017285976" rx="12" ry="8" fill="#D4AF37" opacity="0.12" transform="rotate(135.00994428802136 921.6564330141231 1244.0448017285976)"/><ellipse cx="915.798568637854" cy="1229.9026661048667" rx="12" ry="8" fill="#D4AF37" opacity="0.12" transform="rotate(180.01325905069513 915.798568637854 1229.9026661048667)"/><ellipse cx="921.6564330141231" cy="1215.760530481136" rx="12" ry="8" fill="#D4AF37" opacity="0.12" transform="rotate(225.01657381336892 921.6564330141231 1215.760530481136)"/><ellipse cx="935.798568637854" cy="1209.9026661048667" rx="12" ry="8" fill="#D4AF37" opacity="0.12" transform="rotate(270.0198885760427 935.798568637854 1209.9026661048667)"/><ellipse cx="949.940704261585" cy="1215.7605304811357" rx="12" ry="8" fill="#D4AF37" opacity="0.12" transform="rotate(315.0232033387165 949.940704261585 1215.7605304811357)"/><circle cx="935.798568637854" cy="1229.9026661048667" r="8" fill="#F3E5AB" opacity="0.2"/><ellipse cx="72.2444887992409" cy="1159.6312000822568" rx="12" ry="8" fill="#D4AF37" opacity="0.12" transform="rotate(0 72.2444887992409 1159.6312000822568)"/><ellipse cx="64.71428483641557" cy="1175.2678297316174" rx="12" ry="8" fill="#D4AF37" opacity="0.12" transform="rotate(51.43235972877004 64.71428483641557 1175.2678297316174)"/><ellipse cx="47.79407012011461" cy="1179.1297583258934" rx="12" ry="8" fill="#D4AF37" opacity="0.12" transform="rotate(102.86471945754008 47.79407012011461 1179.1297583258934)"/><ellipse cx="34.22511144119252" cy="1168.308874864608" rx="12" ry="8" fill="#D4AF37" opacity="0.12" transform="rotate(154.29707918631013 34.22511144119252 1168.308874864608)"/><ellipse cx="34.22511144119251" cy="1150.9535252999056" rx="12" ry="8" fill="#D4AF37" opacity="0.12" transform="rotate(205.72943891508015 34.22511144119251 1150.9535252999056)"/><ellipse cx="47.794070120114604" cy="1140.1326418386202" rx="12" ry="8" fill="#D4AF37" opacity="0.12" transform="rotate(257.1617986438502 47.794070120114604 1140.1326418386202)"/><ellipse cx="64.71428483641557" cy="1143.9945704328961" rx="12" ry="8" fill="#D4AF37" opacity="0.12" transform="rotate(308.59415837262026 64.71428483641557 1143.9945704328961)"/><circle cx="52.2444887992409" cy="1159.6312000822568" r="8" fill="#F3E5AB" opacity="0.2"/><ellipse cx="1017.8005057180305" cy="845.3232864265547" rx="12" ry="8" fill="#D4AF37" opacity="0.12" transform="rotate(0 1017.8005057180305 845.3232864265547)"/><ellipse cx="1007.8005057180305" cy="862.6437945022434" rx="12" ry="8" fill="#D4AF37" opacity="0.12" transform="rotate(60.00441968356504 1007.8005057180305 862.6437945022434)"/><ellipse cx="987.8005057180305" cy="862.6437945022434" rx="12" ry="8" fill="#D4AF37" opacity="0.12" transform="rotate(120.00883936713008 987.8005057180305 862.6437945022434)"/><ellipse cx="977.8005057180305" cy="845.3232864265547" rx="12" ry="8" fill="#D4AF37" opacity="0.12" transform="rotate(180.01325905069513 977.8005057180305 845.3232864265547)"/><ellipse cx="987.8005057180305" cy="828.0027783508659" rx="12" ry="8" fill="#D4AF37" opacity="0.12" transform="rotate(240.01767873426016 987.8005057180305 828.0027783508659)"/><ellipse cx="1007.8005057180305" cy="828.0027783508659" rx="12" ry="8" fill="#D4AF37" opacity="0.12" transform="rotate(300.02209841782525 1007.8005057180305 828.0027783508659)"/><circle cx="997.8005057180305" cy="845.3232864265547" r="8" fill="#F3E5AB" opacity="0.2"/>
    <text x="540" y="820" text-anchor="middle" fill="#e8d5a3" font-size="18" font-family="Verdana, sans-serif">Today's</text>
    <text x="540" y="820" text-anchor="middle" fill="#ffffff" font-size="22" font-weight="bold" font-family="Verdana, sans-serif"> GOLD RATE</text>
    <text x="540" y="865" text-anchor="middle" fill="#ffffff" font-size="34" font-weight="bold" font-family="Palatino, serif">15TH JUNE 2026</text>
  
    <g transform="translate(540, 900)">
      <g transform="translate(-220, 0)">
        <rect x="0" y="0" width="200" height="90" rx="12" fill="#2d020d" stroke="#D4AF37" stroke-width="2"/>
        <text x="100" y="28" text-anchor="middle" fill="#F3E5AB" font-size="12" font-weight="bold">Gold Rate 1GM 22K</text>
        <text x="100" y="65" text-anchor="middle" fill="#ffffff" font-size="26" font-weight="bold" font-family="Palatino, serif">₹ 12,152</text>
      </g>
      <g transform="translate(20, 0)">
        <rect x="0" y="0" width="200" height="90" rx="12" fill="#2d020d" stroke="#D4AF37" stroke-width="2"/>
        <text x="100" y="28" text-anchor="middle" fill="#F3E5AB" font-size="12" font-weight="bold">Gold Rate 8GM 22K</text>
        <text x="100" y="65" text-anchor="middle" fill="#ffffff" font-size="26" font-weight="bold" font-family="Palatino, serif">₹ 97,216</text>
      </g>
      <g transform="translate(-90, 110)">
        <rect x="0" y="0" width="180" height="50" rx="25" fill="#D4AF37" fill-opacity="0.15" stroke="#D4AF37" stroke-width="1.5"/>
        <text x="90" y="32" text-anchor="middle" fill="#ffffff" font-size="18" font-weight="bold">Silver 1GM ₹ 217</text>
      </g>
    </g>
  
    <rect x="0" y="1820" width="1080" height="120" fill="#2d020d" fill-opacity="0.85"/>
    <line x1="60" y1="1840" x2="1020" y2="1840" stroke="#D4AF37" stroke-width="1" opacity="0.3"/>
    <g transform="translate(80, 1875)">
      <polygon points="0,-12 -14,12 14,12" fill="none" stroke="#D4AF37" stroke-width="2"/>
      <text x="0" y="28" text-anchor="middle" fill="#D4AF37" font-size="9" font-weight="bold">916 BIS HUID</text>
    </g>
    <text x="540" y="1880" text-anchor="middle" fill="#ffffff" font-size="16" font-weight="bold">📞 9443476183</text>
    <text x="1000" y="1875" text-anchor="end" fill="#e8d5a3" font-size="12" opacity="0.85">📍 89 New Market Street, Tirupur</text>
  
</svg>