<?xml version="1.0" encoding="UTF-8"?>
<svg xmlns="http://www.w3.org/2000/svg" xmlns:xlink="http://www.w3.org/1999/xlink"
  viewBox="0 0 1080 1920" width="1080" height="1920">
  <defs>
    <linearGradient id="bgGrad" x1="0%" y1="0%" x2="100%" y2="100%">
      <stop offset="0%" stop-color="#2d020d"/>
      <stop offset="100%" stop-color="#120105"/>
    </linearGradient>
    <linearGradient id="goldGrad" x1="0%" y1="0%" x2="100%" y2="0%">
      <stop offset="0%" stop-color="#D4AF37"/>
      <stop offset="50%" stop-color="#F3E5AB"/>
      <stop offset="100%" stop-color="#D4AF37"/>
    </linearGradient>
  </defs>
  <rect width="1080" height="1920" fill="url(#bgGrad)"/><polygon points="422.72717390463424,949.0440971991459 425.8910038060425,952.2079271005541 422.72717390463424,955.3717570019624 419.563344003226,952.2079271005541" fill="#F3E5AB" opacity="0.1366881372748764"/><polygon points="423.0908623366532,295.2113651998447 426.77448899184776,298.8949918550393 423.0908623366532,302.57861851023387 419.4072356814586,298.8949918550393" fill="#F3E5AB" opacity="0.1534908986682919"/><polygon points="797.5290499790842,335.56655314710605 801.0650902121002,339.1025933801221 797.5290499790842,342.6386336131381 793.9930097460682,339.1025933801221" fill="#F3E5AB" opacity="0.11711616871609928"/><polygon points="977.2193715136679,1001.1107189907792 982.2914691905412,1006.1828166676526 977.2193715136679,1011.2549143445259 972.1472738367945,1006.1828166676526" fill="#F3E5AB" opacity="0.15592468525834818"/><polygon points="94.27336975398786,162.48494168416127 96.29184046973646,164.50341239990985 94.27336975398786,166.52188311565843 92.25489903823927,164.50341239990985" fill="#F3E5AB" opacity="0.28280130599886305"/><polygon points="149.58302403761357,1565.6470830753885 151.7444420566265,1567.8085010944014 149.58302403761357,1569.9699191134143 147.42160601860064,1567.8085010944014" fill="#F3E5AB" opacity="0.17145066933841507"/><polygon points="977.0448939847247,1547.0750634792028 982.9191761695959,1552.949345664074 977.0448939847247,1558.823627848945 971.1706117998535,1552.949345664074" fill="#F3E5AB" opacity="0.32955115850041733"/><polygon points="238.7572839472045,1050.0784406308815 244.10619321102854,1055.4273498947055 238.7572839472045,1060.7762591585295 233.4083746833805,1055.4273498947055" fill="#F3E5AB" opacity="0.18385016385824438"/><polygon points="610.9403656338717,912.1540148539041 613.8599138966388,915.0735631166712 610.9403656338717,917.9931113794382 608.0208173711046,915.0735631166712" fill="#F3E5AB" opacity="0.3135757325809223"/><polygon points="242.41738982723783,971.08737119016 247.4675855165977,976.1375668795198 242.41738982723783,981.1877625688796 237.36719413787796,976.1375668795198" fill="#F3E5AB" opacity="0.1479218877366948"/><polygon points="803.4089884193697,1304.1069337111962 805.7385505137393,1306.4364958055658 803.4089884193697,1308.7660578999353 801.0794263250002,1306.4364958055658" fill="#F3E5AB" opacity="0.321261159536672"/><polygon points="850.7122165995763,1562.3966695986658 853.1620954062436,1564.8465484053331 850.7122165995763,1567.2964272120005 848.2623377929091,1564.8465484053331" fill="#F3E5AB" opacity="0.1834848580262483"/><polygon points="108.0379496030863,552.790111562973 113.16176808174866,557.9139300416354 108.0379496030863,563.0377485202977 102.91413112442395,557.9139300416354" fill="#F3E5AB" opacity="0.2512883300905008"/><polygon points="730.6739815423955,1483.3818110501222 736.377533836642,1489.0853633443687 730.6739815423955,1494.7889156386152 724.970429248149,1489.0853633443687" fill="#F3E5AB" opacity="0.2202558789125233"/><polygon points="146.00984184631133,401.8754938523057 148.43518409918548,404.3008361051798 146.00984184631133,406.72617835805397 143.5844995934372,404.3008361051798" fill="#F3E5AB" opacity="0.15454540229825808"/><polygon points="880.4820521366615,178.98257748874144 882.5693802764354,181.06990562851533 880.4820521366615,183.15723376828922 878.3947239968877,181.06990562851533" fill="#F3E5AB" opacity="0.37930568510601836"/><polygon points="686.339059533867,1595.7954211940946 691.5688233297027,1601.0251849899303 686.339059533867,1606.254948785766 681.1092957380314,1601.0251849899303" fill="#F3E5AB" opacity="0.2980091978311624"/><polygon points="146.11948719818096,1754.5068603945028 152.01911334508947,1760.4064865414114 146.11948719818096,1766.30611268832 140.21986105127246,1760.4064865414114" fill="#F3E5AB" opacity="0.17624889065162178"/><polygon points="774.3849585339287,10.208518585384375 778.3994996756311,14.223059727086742 774.3849585339287,18.23760086878911 770.3704173922264,14.223059727086742" fill="#F3E5AB" opacity="0.27947380973908476"/><polygon points="778.7564209464532,65.42368492244155 782.9668768187677,69.63414079475602 778.7564209464532,73.84459666707049 774.5459650741387,69.63414079475602" fill="#F3E5AB" opacity="0.33488949959621717"/><polygon points="316.1528031678431,1881.1987940959623 319.69857810223345,1884.7445690303525 316.1528031678431,1888.2903439647428 312.60702823345275,1884.7445690303525" fill="#F3E5AB" opacity="0.38795061296592526"/><polygon points="1029.4279653666802,1907.1100075497386 1034.8767375265031,1912.5587797095616 1029.4279653666802,1918.0075518693845 1023.9791932068572,1912.5587797095616" fill="#F3E5AB" opacity="0.36352708443396453"/><polygon points="718.9501213645099,625.6071686759659 723.9075725785527,630.5646198900088 718.9501213645099,635.5220711040516 713.992670150467,630.5646198900088" fill="#F3E5AB" opacity="0.24119219332113137"/><polygon points="61.89980764118936,547.6502999660096 65.49393992265122,551.2444322474714 61.89980764118936,554.8385645289333 58.30567535972751,551.2444322474714" fill="#F3E5AB" opacity="0.1435955017745453"/><polygon points="394.56119307741636,333.9952534232244 398.30356848826966,337.7376288340777 394.56119307741636,341.480004244931 390.81881766656306,337.7376288340777" fill="#F3E5AB" opacity="0.10776609089948805"/><polygon points="88.89132491209668,627.9770862646187 94.70189029975039,633.7876516522724 88.89132491209668,639.5982170399261 83.08075952444297,633.7876516522724" fill="#F3E5AB" opacity="0.11293538325739595"/><polygon points="737.959153259135,281.4897286104874 740.0098740551713,283.5404494065237 737.959153259135,285.59117020255997 735.9084324630986,283.5404494065237" fill="#F3E5AB" opacity="0.13483374163958595"/><polygon points="542.5121222646088,1137.7917699197228 544.7080992876627,1139.9877469427768 542.5121222646088,1142.1837239658307 540.316145241555,1139.9877469427768" fill="#F3E5AB" opacity="0.2339392178076685"/><polygon points="779.1659751526695,781.0344017362543 784.8813424062741,786.7497689898589 779.1659751526695,792.4651362434636 773.4506078990648,786.7497689898589" fill="#F3E5AB" opacity="0.11330751698772193"/><polygon points="573.9849228169629,715.5826294734912 577.6942838166788,719.2919904732071 573.9849228169629,723.0013514729229 570.2755618172471,719.2919904732071" fill="#F3E5AB" opacity="0.1922755112799588"/>
  
    
    <g transform="translate(540, 110) scale(0.55)">
      <circle cx="0" cy="0" r="50" fill="none" stroke="url(#goldGrad)" stroke-width="3"/>
      <path d="M0,-35 L6,-18 L0,-22 L-6,-18 Z" fill="url(#goldGrad)"/>
      <rect x="-2" y="-22" width="4" height="14" fill="url(#goldGrad)"/>
      <ellipse cx="0" cy="5" rx="14" ry="18" fill="url(#goldGrad)"/>
      <circle cx="0" cy="-10" r="9" fill="url(#goldGrad)"/>
      <g fill="none" stroke="url(#goldGrad)" stroke-width="2" opacity="0.8">
        <path d="M-12,8 Q-28,-5 -32,-22"/>
        <path d="M-6,12 Q-16,-2 -18,-25"/>
        <path d="M0,14 Q0,-2 0,-28"/>
        <path d="M6,12 Q16,-2 18,-25"/>
        <path d="M12,8 Q28,-5 32,-22"/>
      </g>
    </g>
  
    <text x="540" y="175" text-anchor="middle" fill="url(#goldGrad)" font-size="24" font-family="Cambria, serif" font-weight="900" letter-spacing="3">SRI VELMAYIL JEWELLERY</text>
    <text x="540" y="202" text-anchor="middle" fill="#e8d5a3" font-size="13" font-family="Calibri, sans-serif" letter-spacing="8" opacity="0.85">— TIRUPUR —</text>
  
    <text x="540" y="280" text-anchor="middle" fill="#e8d5a3" font-size="18" font-family="Calibri, sans-serif">Today's</text>
    <text x="540" y="280" text-anchor="middle" fill="#ffffff" font-size="22" font-weight="900" font-family="Calibri, sans-serif"> GOLD RATE</text>
    <text x="540" y="325" text-anchor="middle" fill="#ffffff" font-size="30" font-weight="900" font-family="Cambria, serif">15TH JUNE 2026</text>
  
    <g transform="translate(540, 350)">
      <g transform="translate(-220, 0)">
        <rect x="0" y="0" width="200" height="90" rx="12" fill="#2d020d" stroke="#D4AF37" stroke-width="2"/>
        <text x="100" y="28" text-anchor="middle" fill="#F3E5AB" font-size="12" font-weight="bold">Gold Rate 1GM 22K</text>
        <text x="100" y="65" text-anchor="middle" fill="#ffffff" font-size="34" font-weight="900" font-family="Cambria, serif">₹ 12,152</text>
      </g>
      <g transform="translate(20, 0)">
        <rect x="0" y="0" width="200" height="90" rx="12" fill="#2d020d" stroke="#D4AF37" stroke-width="2"/>
        <text x="100" y="28" text-anchor="middle" fill="#F3E5AB" font-size="12" font-weight="bold">Gold Rate 8GM 22K</text>
        <text x="100" y="65" text-anchor="middle" fill="#ffffff" font-size="34" font-weight="900" font-family="Cambria, serif">₹ 97,216</text>
      </g>
      <g transform="translate(-90, 110)">
        <rect x="0" y="0" width="180" height="50" rx="25" fill="#D4AF37" fill-opacity="0.15" stroke="#D4AF37" stroke-width="1.5"/>
        <text x="90" y="32" text-anchor="middle" fill="#ffffff" font-size="18" font-weight="bold">Silver 1GM ₹ 217</text>
      </g>
    </g>
  
    <circle cx="540" cy="750" r="160" fill="#D4AF37" opacity="0.08"/>
    <circle cx="540" cy="750" r="150" fill="none" stroke="#D4AF37" stroke-width="2" opacity="0.4"/>
    <g transform="translate(540, 750)"><path d="M-115.08303697694376,-45 Q0,90 115.08303697694376,-45" fill="none" stroke="#D4AF37" stroke-width="5.821401250382328"/><circle cx="-97.8205814304022" cy="-14.999999999999996" r="4.060250995736803" fill="#F3E5AB" opacity="0.9"/><circle cx="-48.910290715201135" cy="-34.48557158514987" r="4.638516180811931" fill="#F3E5AB" opacity="0.9"/><circle cx="48.91029071520103" cy="-34.48557158514988" r="7.541477214117979" fill="#F3E5AB" opacity="0.9"/><circle cx="0" cy="52.5" r="12.411311902488873" fill="#D4AF37" stroke="#F3E5AB" stroke-width="1"/></g>
  <ellipse cx="113.51817561641165" cy="724.2485779116382" rx="12" ry="8" fill="#D4AF37" opacity="0.12" transform="rotate(0 113.51817561641165 724.2485779116382)"/><ellipse cx="105.98797165358633" cy="739.8852075609988" rx="12" ry="8" fill="#D4AF37" opacity="0.12" transform="rotate(51.43235972877004 105.98797165358633 739.8852075609988)"/><ellipse cx="89.06775693728537" cy="743.7471361552747" rx="12" ry="8" fill="#D4AF37" opacity="0.12" transform="rotate(102.86471945754008 89.06775693728537 743.7471361552747)"/><ellipse cx="75.49879825836328" cy="732.9262526939893" rx="12" ry="8" fill="#D4AF37" opacity="0.12" transform="rotate(154.29707918631013 75.49879825836328 732.9262526939893)"/><ellipse cx="75.49879825836327" cy="715.5709031292871" rx="12" ry="8" fill="#D4AF37" opacity="0.12" transform="rotate(205.72943891508015 75.49879825836327 715.5709031292871)"/><ellipse cx="89.06775693728537" cy="704.7500196680018" rx="12" ry="8" fill="#D4AF37" opacity="0.12" transform="rotate(257.1617986438502 89.06775693728537 704.7500196680018)"/><ellipse cx="105.98797165358633" cy="708.6119482622777" rx="12" ry="8" fill="#D4AF37" opacity="0.12" transform="rotate(308.59415837262026 105.98797165358633 708.6119482622777)"/><circle cx="93.51817561641165" cy="724.2485779116382" r="8" fill="#F3E5AB" opacity="0.2"/><ellipse cx="1013.4751603458776" cy="918.2153747288653" rx="12" ry="8" fill="#D4AF37" opacity="0.12" transform="rotate(0 1013.4751603458776 918.2153747288653)"/><ellipse cx="1003.4751603458776" cy="935.535882804554" rx="12" ry="8" fill="#D4AF37" opacity="0.12" transform="rotate(60.00441968356504 1003.4751603458776 935.535882804554)"/><ellipse cx="983.4751603458776" cy="935.535882804554" rx="12" ry="8" fill="#D4AF37" opacity="0.12" transform="rotate(120.00883936713008 983.4751603458776 935.535882804554)"/><ellipse cx="973.4751603458776" cy="918.2153747288653" rx="12" ry="8" fill="#D4AF37" opacity="0.12" transform="rotate(180.01325905069513 973.4751603458776 918.2153747288653)"/><ellipse cx="983.4751603458776" cy="900.8948666531766" rx="12" ry="8" fill="#D4AF37" opacity="0.12" transform="rotate(240.01767873426016 983.4751603458776 900.8948666531766)"/><ellipse cx="1003.4751603458776" cy="900.8948666531766" rx="12" ry="8" fill="#D4AF37" opacity="0.12" transform="rotate(300.02209841782525 1003.4751603458776 900.8948666531766)"/><circle cx="993.4751603458776" cy="918.2153747288653" r="8" fill="#F3E5AB" opacity="0.2"/><ellipse cx="124.07952302981124" cy="1114.7027157793777" rx="12" ry="8" fill="#D4AF37" opacity="0.12" transform="rotate(0 124.07952302981124 1114.7027157793777)"/><ellipse cx="116.54931906698592" cy="1130.3393454287384" rx="12" ry="8" fill="#D4AF37" opacity="0.12" transform="rotate(51.43235972877004 116.54931906698592 1130.3393454287384)"/><ellipse cx="99.62910435068495" cy="1134.2012740230143" rx="12" ry="8" fill="#D4AF37" opacity="0.12" transform="rotate(102.86471945754008 99.62910435068495 1134.2012740230143)"/><ellipse cx="86.06014567176285" cy="1123.380390561729" rx="12" ry="8" fill="#D4AF37" opacity="0.12" transform="rotate(154.29707918631013 86.06014567176285 1123.380390561729)"/><ellipse cx="86.06014567176285" cy="1106.0250409970265" rx="12" ry="8" fill="#D4AF37" opacity="0.12" transform="rotate(205.72943891508015 86.06014567176285 1106.0250409970265)"/><ellipse cx="99.62910435068495" cy="1095.2041575357412" rx="12" ry="8" fill="#D4AF37" opacity="0.12" transform="rotate(257.1617986438502 99.62910435068495 1095.2041575357412)"/><ellipse cx="116.5493190669859" cy="1099.066086130017" rx="12" ry="8" fill="#D4AF37" opacity="0.12" transform="rotate(308.59415837262026 116.5493190669859 1099.066086130017)"/><circle cx="104.07952302981124" cy="1114.7027157793777" r="8" fill="#F3E5AB" opacity="0.2"/><ellipse cx="1026.8261402210464" cy="865.4257992817329" rx="12" ry="8" fill="#D4AF37" opacity="0.12" transform="rotate(0 1026.8261402210464 865.4257992817329)"/><ellipse cx="1020.9682758447774" cy="879.5679349054639" rx="12" ry="8" fill="#D4AF37" opacity="0.12" transform="rotate(45.00331476267378 1020.9682758447774 879.5679349054639)"/><ellipse cx="1006.8261402210464" cy="885.4257992817329" rx="12" ry="8" fill="#D4AF37" opacity="0.12" transform="rotate(90.00662952534756 1006.8261402210464 885.4257992817329)"/><ellipse cx="992.6840045973155" cy="879.5679349054639" rx="12" ry="8" fill="#D4AF37" opacity="0.12" transform="rotate(135.00994428802136 992.6840045973155 879.5679349054639)"/><ellipse cx="986.8261402210464" cy="865.4257992817329" rx="12" ry="8" fill="#D4AF37" opacity="0.12" transform="rotate(180.01325905069513 986.8261402210464 865.4257992817329)"/><ellipse cx="992.6840045973155" cy="851.283663658002" rx="12" ry="8" fill="#D4AF37" opacity="0.12" transform="rotate(225.01657381336892 992.6840045973155 851.283663658002)"/><ellipse cx="1006.8261402210464" cy="845.4257992817329" rx="12" ry="8" fill="#D4AF37" opacity="0.12" transform="rotate(270.0198885760427 1006.8261402210464 845.4257992817329)"/><ellipse cx="1020.9682758447774" cy="851.283663658002" rx="12" ry="8" fill="#D4AF37" opacity="0.12" transform="rotate(315.0232033387165 1020.9682758447774 851.283663658002)"/><circle cx="1006.8261402210464" cy="865.4257992817329" r="8" fill="#F3E5AB" opacity="0.2"/>
    <rect x="0" y="1820" width="1080" height="120" fill="#2d020d" fill-opacity="0.85"/>
    <line x1="60" y1="1840" x2="1020" y2="1840" stroke="#D4AF37" stroke-width="1" opacity="0.3"/>
    <g transform="translate(80, 1875)">
      <polygon points="0,-12 -14,12 14,12" fill="none" stroke="#D4AF37" stroke-width="2"/>
      <text x="0" y="28" text-anchor="middle" fill="#D4AF37" font-size="9" font-weight="bold">916 BIS HUID</text>
    </g>
    <text x="540" y="1880" text-anchor="middle" fill="#ffffff" font-size="16" font-weight="bold">📞 9443476183</text>
    <text x="1000" y="1875" text-anchor="end" fill="#e8d5a3" font-size="12" opacity="0.85">📍 89 New Market Street, Tirupur</text>
  
</svg>