<?xml version="1.0" encoding="UTF-8"?>
<svg xmlns="http://www.w3.org/2000/svg" xmlns:xlink="http://www.w3.org/1999/xlink"
  viewBox="0 0 1080 1920" width="1080" height="1920">
  <defs>
    <linearGradient id="bgGrad" x1="0%" y1="0%" x2="100%" y2="100%">
      <stop offset="0%" stop-color="#07221e"/>
      <stop offset="100%" stop-color="#020e0c"/>
    </linearGradient>
    <linearGradient id="goldGrad" x1="0%" y1="0%" x2="100%" y2="0%">
      <stop offset="0%" stop-color="#D4AF37"/>
      <stop offset="50%" stop-color="#c9f0e8"/>
      <stop offset="100%" stop-color="#D4AF37"/>
    </linearGradient>
  </defs>
  <rect width="1080" height="1920" fill="url(#bgGrad)"/><circle cx="116.39325985349086" cy="607.1571534566182" r="174.19070166925965" fill="#D4AF37" opacity="0.11050677594310303"/><circle cx="208.60019995700588" cy="468.5644389582467" r="143.5447442005805" fill="#D4AF37" opacity="0.09554037429908326"/><circle cx="324.8524331160378" cy="701.9542950968763" r="145.48726881433956" fill="#D4AF37" opacity="0.10004665643912429"/><circle cx="889.8591422008901" cy="40.18570307659517" r="163.42719335428177" fill="#D4AF37" opacity="0.0529719327697269"/><circle cx="951.2950245768717" cy="169.74056945158222" r="175.81370589864787" fill="#D4AF37" opacity="0.06428731564831669"/><circle cx="1042.9744474244997" cy="1549.4011613255377" r="185.4434415562483" fill="#D4AF37" opacity="0.11320632175375364"/><circle cx="343.79722174610686" cy="355.3984856935204" r="45.196774606776216" fill="#D4AF37" opacity="0.1099830155400401"/><circle cx="414.50711789960707" cy="1104.2413277777296" r="62.00019533000905" fill="#D4AF37" opacity="0.11847224521774076"/><circle cx="756.3046381588138" cy="1230.3218993081914" r="168.34725585612213" fill="#D4AF37" opacity="0.036935299594826346"/><circle cx="138.97128365838088" cy="1298.4387752585476" r="51.70838617878816" fill="#D4AF37" opacity="0.11035181295159442"/><circle cx="275.0442351168433" cy="477.2727258478037" r="180.2262179369351" fill="#D4AF37" opacity="0.1099003242095004"/><circle cx="1016.9888173760743" cy="801.8740133958627" r="91.37932454364312" fill="#D4AF37" opacity="0.03692350596368639"/>
  <circle cx="540" cy="864" r="400" fill="#D4AF37" opacity="0.06"/><circle cx="540" cy="864" r="250" fill="#D4AF37" opacity="0.04"/>
    
    <g transform="translate(540, 110) scale(0.55)">
      <circle cx="0" cy="0" r="50" fill="none" stroke="url(#goldGrad)" stroke-width="3"/>
      <path d="M0,-35 L6,-18 L0,-22 L-6,-18 Z" fill="url(#goldGrad)"/>
      <rect x="-2" y="-22" width="4" height="14" fill="url(#goldGrad)"/>
      <ellipse cx="0" cy="5" rx="14" ry="18" fill="url(#goldGrad)"/>
      <circle cx="0" cy="-10" r="9" fill="url(#goldGrad)"/>
      <g fill="none" stroke="url(#goldGrad)" stroke-width="2" opacity="0.8">
        <path d="M-12,8 Q-28,-5 -32,-22"/>
        <path d="M-6,12 Q-16,-2 -18,-25"/>
        <path d="M0,14 Q0,-2 0,-28"/>
        <path d="M6,12 Q16,-2 18,-25"/>
        <path d="M12,8 Q28,-5 32,-22"/>
      </g>
    </g>
  
    <text x="540" y="175" text-anchor="middle" fill="url(#goldGrad)" font-size="24" font-family="Cambria, serif" font-weight="900" letter-spacing="3">SRI VELMAYIL JEWELLERY</text>
    <text x="540" y="202" text-anchor="middle" fill="#a8d4c8" font-size="13" font-family="Calibri, sans-serif" letter-spacing="8" opacity="0.85">— TIRUPUR —</text>
  
    <g transform="translate(540, 500)">
      <circle cx="0" cy="-180" r="150" fill="#07221e" fill-opacity="0.7" stroke="#D4AF37" stroke-width="4"/>
      <text x="0" y="-220" text-anchor="middle" fill="#c9f0e8" font-size="16" font-weight="bold">8GM</text>
      <text x="0" y="-165" text-anchor="middle" fill="#ffffff" font-size="48" font-weight="900" font-family="Cambria, serif">₹97,216</text>
      <text x="0" y="-130" text-anchor="middle" fill="#a8d4c8" font-size="14" font-weight="bold">22K</text>

      <circle cx="-170" cy="80" r="115" fill="#07221e" fill-opacity="0.7" stroke="#D4AF37" stroke-width="3"/>
      <text x="-170" y="50" text-anchor="middle" fill="#c9f0e8" font-size="14" font-weight="bold">1GM</text>
      <text x="-170" y="95" text-anchor="middle" fill="#ffffff" font-size="36" font-weight="900" font-family="Cambria, serif">₹12,152</text>
      <text x="-170" y="125" text-anchor="middle" fill="#a8d4c8" font-size="12" font-weight="bold">22K</text>

      <circle cx="170" cy="80" r="115" fill="#07221e" fill-opacity="0.7" stroke="#D4AF37" stroke-width="3"/>
      <text x="170" y="50" text-anchor="middle" fill="#c9f0e8" font-size="14" font-weight="bold">1GM</text>
      <text x="170" y="95" text-anchor="middle" fill="#ffffff" font-size="36" font-weight="900" font-family="Cambria, serif">₹217</text>
      <text x="170" y="125" text-anchor="middle" fill="#a8d4c8" font-size="12" font-weight="bold">SILVER</text>
    </g>
  
    <circle cx="540" cy="1050" r="100" fill="#D4AF37" opacity="0.08"/>
    <circle cx="540" cy="1050" r="90" fill="none" stroke="#D4AF37" stroke-width="2" opacity="0.4"/>
    <g transform="translate(540, 1050)"><circle cx="-18" cy="0" r="45" fill="none" stroke="#D4AF37" stroke-width="7.661371521336372"/><circle cx="18" cy="0" r="45" fill="none" stroke="#D4AF37" stroke-width="7.661371521336372"/><circle cx="45" cy="0" r="3" fill="#c9f0e8"/><circle cx="13.905764746872634" cy="42.79754323328191" r="3" fill="#c9f0e8"/><circle cx="-36.40576474687263" cy="26.450336353161298" r="3" fill="#c9f0e8"/><circle cx="-36.405764746872634" cy="-26.450336353161287" r="3" fill="#c9f0e8"/><circle cx="13.905764746872626" cy="-42.797543233281914" r="3" fill="#c9f0e8"/></g>
  
    <rect x="0" y="1820" width="1080" height="120" fill="#07221e" fill-opacity="0.85"/>
    <line x1="60" y1="1840" x2="1020" y2="1840" stroke="#D4AF37" stroke-width="1" opacity="0.3"/>
    <g transform="translate(80, 1875)">
      <polygon points="0,-12 -14,12 14,12" fill="none" stroke="#D4AF37" stroke-width="2"/>
      <text x="0" y="28" text-anchor="middle" fill="#D4AF37" font-size="9" font-weight="bold">916 BIS HUID</text>
    </g>
    <text x="540" y="1880" text-anchor="middle" fill="#ffffff" font-size="16" font-weight="bold">📞 9443476183</text>
    <text x="1000" y="1875" text-anchor="end" fill="#a8d4c8" font-size="12" opacity="0.85">📍 89 New Market Street, Tirupur</text>
  
</svg>