<?xml version="1.0" encoding="UTF-8"?>
<svg xmlns="http://www.w3.org/2000/svg" xmlns:xlink="http://www.w3.org/1999/xlink"
  viewBox="0 0 1080 1920" width="1080" height="1920">
  <defs>
    <linearGradient id="bgGrad" x1="0%" y1="0%" x2="100%" y2="100%">
      <stop offset="0%" stop-color="#07221e"/>
      <stop offset="100%" stop-color="#020e0c"/>
    </linearGradient>
    <linearGradient id="goldGrad" x1="0%" y1="0%" x2="100%" y2="0%">
      <stop offset="0%" stop-color="#D4AF37"/>
      <stop offset="50%" stop-color="#c9f0e8"/>
      <stop offset="100%" stop-color="#D4AF37"/>
    </linearGradient>
  </defs>
  <rect width="1080" height="1920" fill="url(#bgGrad)"/><line x1="-1920" y1="0" x2="0" y2="1920" stroke="#D4AF37" stroke-width="0.5" opacity="0.06"/><line x1="-1880" y1="0" x2="40" y2="1920" stroke="#D4AF37" stroke-width="0.5" opacity="0.06"/><line x1="-1840" y1="0" x2="80" y2="1920" stroke="#D4AF37" stroke-width="0.5" opacity="0.06"/><line x1="-1800" y1="0" x2="120" y2="1920" stroke="#D4AF37" stroke-width="0.5" opacity="0.06"/><line x1="-1760" y1="0" x2="160" y2="1920" stroke="#D4AF37" stroke-width="0.5" opacity="0.06"/><line x1="-1720" y1="0" x2="200" y2="1920" stroke="#D4AF37" stroke-width="0.5" opacity="0.06"/><line x1="-1680" y1="0" x2="240" y2="1920" stroke="#D4AF37" stroke-width="0.5" opacity="0.06"/><line x1="-1640" y1="0" x2="280" y2="1920" stroke="#D4AF37" stroke-width="0.5" opacity="0.06"/><line x1="-1600" y1="0" x2="320" y2="1920" stroke="#D4AF37" stroke-width="0.5" opacity="0.06"/><line x1="-1560" y1="0" x2="360" y2="1920" stroke="#D4AF37" stroke-width="0.5" opacity="0.06"/><line x1="-1520" y1="0" x2="400" y2="1920" stroke="#D4AF37" stroke-width="0.5" opacity="0.06"/><line x1="-1480" y1="0" x2="440" y2="1920" stroke="#D4AF37" stroke-width="0.5" opacity="0.06"/><line x1="-1440" y1="0" x2="480" y2="1920" stroke="#D4AF37" stroke-width="0.5" opacity="0.06"/><line x1="-1400" y1="0" x2="520" y2="1920" stroke="#D4AF37" stroke-width="0.5" opacity="0.06"/><line x1="-1360" y1="0" x2="560" y2="1920" stroke="#D4AF37" stroke-width="0.5" opacity="0.06"/><line x1="-1320" y1="0" x2="600" y2="1920" stroke="#D4AF37" stroke-width="0.5" opacity="0.06"/><line x1="-1280" y1="0" x2="640" y2="1920" stroke="#D4AF37" stroke-width="0.5" opacity="0.06"/><line x1="-1240" y1="0" x2="680" y2="1920" stroke="#D4AF37" stroke-width="0.5" opacity="0.06"/><line x1="-1200" y1="0" x2="720" y2="1920" stroke="#D4AF37" stroke-width="0.5" opacity="0.06"/><line x1="-1160" y1="0" x2="760" y2="1920" stroke="#D4AF37" stroke-width="0.5" opacity="0.06"/><line x1="-1120" y1="0" x2="800" y2="1920" stroke="#D4AF37" stroke-width="0.5" opacity="0.06"/><line x1="-1080" y1="0" x2="840" y2="1920" stroke="#D4AF37" stroke-width="0.5" opacity="0.06"/><line x1="-1040" y1="0" x2="880" y2="1920" stroke="#D4AF37" stroke-width="0.5" opacity="0.06"/><line x1="-1000" y1="0" x2="920" y2="1920" stroke="#D4AF37" stroke-width="0.5" opacity="0.06"/><line x1="-960" y1="0" x2="960" y2="1920" stroke="#D4AF37" stroke-width="0.5" opacity="0.06"/><line x1="-920" y1="0" x2="1000" y2="1920" stroke="#D4AF37" stroke-width="0.5" opacity="0.06"/><line x1="-880" y1="0" x2="1040" y2="1920" stroke="#D4AF37" stroke-width="0.5" opacity="0.06"/><line x1="-840" y1="0" x2="1080" y2="1920" stroke="#D4AF37" stroke-width="0.5" opacity="0.06"/><line x1="-800" y1="0" x2="1120" y2="1920" stroke="#D4AF37" stroke-width="0.5" opacity="0.06"/><line x1="-760" y1="0" x2="1160" y2="1920" stroke="#D4AF37" stroke-width="0.5" opacity="0.06"/><line x1="-720" y1="0" x2="1200" y2="1920" stroke="#D4AF37" stroke-width="0.5" opacity="0.06"/><line x1="-680" y1="0" x2="1240" y2="1920" stroke="#D4AF37" stroke-width="0.5" opacity="0.06"/><line x1="-640" y1="0" x2="1280" y2="1920" stroke="#D4AF37" stroke-width="0.5" opacity="0.06"/><line x1="-600" y1="0" x2="1320" y2="1920" stroke="#D4AF37" stroke-width="0.5" opacity="0.06"/><line x1="-560" y1="0" x2="1360" y2="1920" stroke="#D4AF37" stroke-width="0.5" opacity="0.06"/><line x1="-520" y1="0" x2="1400" y2="1920" stroke="#D4AF37" stroke-width="0.5" opacity="0.06"/><line x1="-480" y1="0" x2="1440" y2="1920" stroke="#D4AF37" stroke-width="0.5" opacity="0.06"/><line x1="-440" y1="0" x2="1480" y2="1920" stroke="#D4AF37" stroke-width="0.5" opacity="0.06"/><line x1="-400" y1="0" x2="1520" y2="1920" stroke="#D4AF37" stroke-width="0.5" opacity="0.06"/><line x1="-360" y1="0" x2="1560" y2="1920" stroke="#D4AF37" stroke-width="0.5" opacity="0.06"/><line x1="-320" y1="0" x2="1600" y2="1920" stroke="#D4AF37" stroke-width="0.5" opacity="0.06"/><line x1="-280" y1="0" x2="1640" y2="1920" stroke="#D4AF37" stroke-width="0.5" opacity="0.06"/><line x1="-240" y1="0" x2="1680" y2="1920" stroke="#D4AF37" stroke-width="0.5" opacity="0.06"/><line x1="-200" y1="0" x2="1720" y2="1920" stroke="#D4AF37" stroke-width="0.5" opacity="0.06"/><line x1="-160" y1="0" x2="1760" y2="1920" stroke="#D4AF37" stroke-width="0.5" opacity="0.06"/><line x1="-120" y1="0" x2="1800" y2="1920" stroke="#D4AF37" stroke-width="0.5" opacity="0.06"/><line x1="-80" y1="0" x2="1840" y2="1920" stroke="#D4AF37" stroke-width="0.5" opacity="0.06"/><line x1="-40" y1="0" x2="1880" y2="1920" stroke="#D4AF37" stroke-width="0.5" opacity="0.06"/><line x1="0" y1="0" x2="1920" y2="1920" stroke="#D4AF37" stroke-width="0.5" opacity="0.06"/><line x1="40" y1="0" x2="1960" y2="1920" stroke="#D4AF37" stroke-width="0.5" opacity="0.06"/><line x1="80" y1="0" x2="2000" y2="1920" stroke="#D4AF37" stroke-width="0.5" opacity="0.06"/><line x1="120" y1="0" x2="2040" y2="1920" stroke="#D4AF37" stroke-width="0.5" opacity="0.06"/><line x1="160" y1="0" x2="2080" y2="1920" stroke="#D4AF37" stroke-width="0.5" opacity="0.06"/><line x1="200" y1="0" x2="2120" y2="1920" stroke="#D4AF37" stroke-width="0.5" opacity="0.06"/><line x1="240" y1="0" x2="2160" y2="1920" stroke="#D4AF37" stroke-width="0.5" opacity="0.06"/><line x1="280" y1="0" x2="2200" y2="1920" stroke="#D4AF37" stroke-width="0.5" opacity="0.06"/><line x1="320" y1="0" x2="2240" y2="1920" stroke="#D4AF37" stroke-width="0.5" opacity="0.06"/><line x1="360" y1="0" x2="2280" y2="1920" stroke="#D4AF37" stroke-width="0.5" opacity="0.06"/><line x1="400" y1="0" x2="2320" y2="1920" stroke="#D4AF37" stroke-width="0.5" opacity="0.06"/><line x1="440" y1="0" x2="2360" y2="1920" stroke="#D4AF37" stroke-width="0.5" opacity="0.06"/><line x1="480" y1="0" x2="2400" y2="1920" stroke="#D4AF37" stroke-width="0.5" opacity="0.06"/><line x1="520" y1="0" x2="2440" y2="1920" stroke="#D4AF37" stroke-width="0.5" opacity="0.06"/><line x1="560" y1="0" x2="2480" y2="1920" stroke="#D4AF37" stroke-width="0.5" opacity="0.06"/><line x1="600" y1="0" x2="2520" y2="1920" stroke="#D4AF37" stroke-width="0.5" opacity="0.06"/><line x1="640" y1="0" x2="2560" y2="1920" stroke="#D4AF37" stroke-width="0.5" opacity="0.06"/><line x1="680" y1="0" x2="2600" y2="1920" stroke="#D4AF37" stroke-width="0.5" opacity="0.06"/><line x1="720" y1="0" x2="2640" y2="1920" stroke="#D4AF37" stroke-width="0.5" opacity="0.06"/><line x1="760" y1="0" x2="2680" y2="1920" stroke="#D4AF37" stroke-width="0.5" opacity="0.06"/><line x1="800" y1="0" x2="2720" y2="1920" stroke="#D4AF37" stroke-width="0.5" opacity="0.06"/><line x1="840" y1="0" x2="2760" y2="1920" stroke="#D4AF37" stroke-width="0.5" opacity="0.06"/><line x1="880" y1="0" x2="2800" y2="1920" stroke="#D4AF37" stroke-width="0.5" opacity="0.06"/><line x1="920" y1="0" x2="2840" y2="1920" stroke="#D4AF37" stroke-width="0.5" opacity="0.06"/><line x1="960" y1="0" x2="2880" y2="1920" stroke="#D4AF37" stroke-width="0.5" opacity="0.06"/><line x1="1000" y1="0" x2="2920" y2="1920" stroke="#D4AF37" stroke-width="0.5" opacity="0.06"/><line x1="1040" y1="0" x2="2960" y2="1920" stroke="#D4AF37" stroke-width="0.5" opacity="0.06"/><line x1="1080" y1="0" x2="3000" y2="1920" stroke="#D4AF37" stroke-width="0.5" opacity="0.06"/><line x1="1120" y1="0" x2="3040" y2="1920" stroke="#D4AF37" stroke-width="0.5" opacity="0.06"/><line x1="1160" y1="0" x2="3080" y2="1920" stroke="#D4AF37" stroke-width="0.5" opacity="0.06"/><line x1="1200" y1="0" x2="3120" y2="1920" stroke="#D4AF37" stroke-width="0.5" opacity="0.06"/><line x1="1240" y1="0" x2="3160" y2="1920" stroke="#D4AF37" stroke-width="0.5" opacity="0.06"/><line x1="1280" y1="0" x2="3200" y2="1920" stroke="#D4AF37" stroke-width="0.5" opacity="0.06"/><line x1="1320" y1="0" x2="3240" y2="1920" stroke="#D4AF37" stroke-width="0.5" opacity="0.06"/><line x1="1360" y1="0" x2="3280" y2="1920" stroke="#D4AF37" stroke-width="0.5" opacity="0.06"/><line x1="1400" y1="0" x2="3320" y2="1920" stroke="#D4AF37" stroke-width="0.5" opacity="0.06"/><line x1="1440" y1="0" x2="3360" y2="1920" stroke="#D4AF37" stroke-width="0.5" opacity="0.06"/><line x1="1480" y1="0" x2="3400" y2="1920" stroke="#D4AF37" stroke-width="0.5" opacity="0.06"/><line x1="1520" y1="0" x2="3440" y2="1920" stroke="#D4AF37" stroke-width="0.5" opacity="0.06"/><line x1="1560" y1="0" x2="3480" y2="1920" stroke="#D4AF37" stroke-width="0.5" opacity="0.06"/><line x1="1600" y1="0" x2="3520" y2="1920" stroke="#D4AF37" stroke-width="0.5" opacity="0.06"/><line x1="1640" y1="0" x2="3560" y2="1920" stroke="#D4AF37" stroke-width="0.5" opacity="0.06"/><line x1="1680" y1="0" x2="3600" y2="1920" stroke="#D4AF37" stroke-width="0.5" opacity="0.06"/><line x1="1720" y1="0" x2="3640" y2="1920" stroke="#D4AF37" stroke-width="0.5" opacity="0.06"/><line x1="1760" y1="0" x2="3680" y2="1920" stroke="#D4AF37" stroke-width="0.5" opacity="0.06"/><line x1="1800" y1="0" x2="3720" y2="1920" stroke="#D4AF37" stroke-width="0.5" opacity="0.06"/><line x1="1840" y1="0" x2="3760" y2="1920" stroke="#D4AF37" stroke-width="0.5" opacity="0.06"/><line x1="1880" y1="0" x2="3800" y2="1920" stroke="#D4AF37" stroke-width="0.5" opacity="0.06"/><line x1="1920" y1="0" x2="3840" y2="1920" stroke="#D4AF37" stroke-width="0.5" opacity="0.06"/><line x1="1960" y1="0" x2="3880" y2="1920" stroke="#D4AF37" stroke-width="0.5" opacity="0.06"/><line x1="2000" y1="0" x2="3920" y2="1920" stroke="#D4AF37" stroke-width="0.5" opacity="0.06"/><line x1="2040" y1="0" x2="3960" y2="1920" stroke="#D4AF37" stroke-width="0.5" opacity="0.06"/><line x1="2080" y1="0" x2="4000" y2="1920" stroke="#D4AF37" stroke-width="0.5" opacity="0.06"/><line x1="2120" y1="0" x2="4040" y2="1920" stroke="#D4AF37" stroke-width="0.5" opacity="0.06"/><line x1="2160" y1="0" x2="4080" y2="1920" stroke="#D4AF37" stroke-width="0.5" opacity="0.06"/><line x1="2200" y1="0" x2="4120" y2="1920" stroke="#D4AF37" stroke-width="0.5" opacity="0.06"/><line x1="2240" y1="0" x2="4160" y2="1920" stroke="#D4AF37" stroke-width="0.5" opacity="0.06"/><line x1="2280" y1="0" x2="4200" y2="1920" stroke="#D4AF37" stroke-width="0.5" opacity="0.06"/><line x1="2320" y1="0" x2="4240" y2="1920" stroke="#D4AF37" stroke-width="0.5" opacity="0.06"/><line x1="2360" y1="0" x2="4280" y2="1920" stroke="#D4AF37" stroke-width="0.5" opacity="0.06"/><line x1="2400" y1="0" x2="4320" y2="1920" stroke="#D4AF37" stroke-width="0.5" opacity="0.06"/><line x1="2440" y1="0" x2="4360" y2="1920" stroke="#D4AF37" stroke-width="0.5" opacity="0.06"/><line x1="2480" y1="0" x2="4400" y2="1920" stroke="#D4AF37" stroke-width="0.5" opacity="0.06"/><line x1="2520" y1="0" x2="4440" y2="1920" stroke="#D4AF37" stroke-width="0.5" opacity="0.06"/><line x1="2560" y1="0" x2="4480" y2="1920" stroke="#D4AF37" stroke-width="0.5" opacity="0.06"/><line x1="2600" y1="0" x2="4520" y2="1920" stroke="#D4AF37" stroke-width="0.5" opacity="0.06"/><line x1="2640" y1="0" x2="4560" y2="1920" stroke="#D4AF37" stroke-width="0.5" opacity="0.06"/><line x1="2680" y1="0" x2="4600" y2="1920" stroke="#D4AF37" stroke-width="0.5" opacity="0.06"/><line x1="2720" y1="0" x2="4640" y2="1920" stroke="#D4AF37" stroke-width="0.5" opacity="0.06"/><line x1="2760" y1="0" x2="4680" y2="1920" stroke="#D4AF37" stroke-width="0.5" opacity="0.06"/><line x1="2800" y1="0" x2="4720" y2="1920" stroke="#D4AF37" stroke-width="0.5" opacity="0.06"/><line x1="2840" y1="0" x2="4760" y2="1920" stroke="#D4AF37" stroke-width="0.5" opacity="0.06"/><line x1="2880" y1="0" x2="4800" y2="1920" stroke="#D4AF37" stroke-width="0.5" opacity="0.06"/><line x1="2920" y1="0" x2="4840" y2="1920" stroke="#D4AF37" stroke-width="0.5" opacity="0.06"/><line x1="2960" y1="0" x2="4880" y2="1920" stroke="#D4AF37" stroke-width="0.5" opacity="0.06"/>
  <rect x="30" y="30" width="1020" height="1860" fill="none" stroke="#D4AF37" stroke-width="2" opacity="0.4"/>
    
    <g transform="translate(540, 130) scale(0.55)">
      <circle cx="0" cy="0" r="50" fill="none" stroke="url(#goldGrad)" stroke-width="3"/>
      <path d="M0,-35 L6,-18 L0,-22 L-6,-18 Z" fill="url(#goldGrad)"/>
      <rect x="-2" y="-22" width="4" height="14" fill="url(#goldGrad)"/>
      <ellipse cx="0" cy="5" rx="14" ry="18" fill="url(#goldGrad)"/>
      <circle cx="0" cy="-10" r="9" fill="url(#goldGrad)"/>
      <g fill="none" stroke="url(#goldGrad)" stroke-width="2" opacity="0.8">
        <path d="M-12,8 Q-28,-5 -32,-22"/>
        <path d="M-6,12 Q-16,-2 -18,-25"/>
        <path d="M0,14 Q0,-2 0,-28"/>
        <path d="M6,12 Q16,-2 18,-25"/>
        <path d="M12,8 Q28,-5 32,-22"/>
      </g>
    </g>
  
    <text x="540" y="195" text-anchor="middle" fill="url(#goldGrad)" font-size="28" font-family="Palatino, serif" font-weight="bold" letter-spacing="3">SRI VELMAYIL JEWELLERY</text>
    <text x="540" y="222" text-anchor="middle" fill="#a8d4c8" font-size="13" font-family="Verdana, sans-serif" letter-spacing="8" opacity="0.85">— TIRUPUR —</text>
  
    <text x="540" y="300" text-anchor="middle" fill="#a8d4c8" font-size="18" font-family="Verdana, sans-serif">Today's</text>
    <text x="540" y="300" text-anchor="middle" fill="#ffffff" font-size="22" font-weight="bold" font-family="Verdana, sans-serif"> GOLD RATE</text>
    <text x="540" y="345" text-anchor="middle" fill="#ffffff" font-size="34" font-weight="bold" font-family="Palatino, serif">15TH JUNE 2026</text>
  
      <g transform="translate(60, 380)">
        <rect width="300" height="120" rx="8" fill="#07221e" fill-opacity="0.6" stroke="#D4AF37" stroke-width="2"/>
        <text x="150" y="35" text-anchor="middle" fill="#c9f0e8" font-size="14" font-weight="bold" letter-spacing="1">1GM 22K</text>
        <text x="150" y="80" text-anchor="middle" fill="#ffffff" font-size="34" font-weight="bold" font-family="Palatino, serif">₹12,152</text>
        <line x1="300" y1="20" x2="300" y2="100" stroke="#D4AF37" stroke-width="1" stroke-dasharray="4,4" opacity="0.4"/>
      </g>
    
      <g transform="translate(390, 380)">
        <rect width="300" height="120" rx="8" fill="#07221e" fill-opacity="0.6" stroke="#D4AF37" stroke-width="2"/>
        <text x="150" y="35" text-anchor="middle" fill="#c9f0e8" font-size="14" font-weight="bold" letter-spacing="1">8GM 22K</text>
        <text x="150" y="80" text-anchor="middle" fill="#ffffff" font-size="34" font-weight="bold" font-family="Palatino, serif">₹97,216</text>
        <line x1="300" y1="20" x2="300" y2="100" stroke="#D4AF37" stroke-width="1" stroke-dasharray="4,4" opacity="0.4"/>
      </g>
    
      <g transform="translate(720, 380)">
        <rect width="300" height="120" rx="8" fill="#07221e" fill-opacity="0.6" stroke="#D4AF37" stroke-width="2"/>
        <text x="150" y="35" text-anchor="middle" fill="#c9f0e8" font-size="14" font-weight="bold" letter-spacing="1">1GM SILVER</text>
        <text x="150" y="80" text-anchor="middle" fill="#ffffff" font-size="34" font-weight="bold" font-family="Palatino, serif">₹217</text>
        
      </g>
    
    <circle cx="540" cy="850" r="135" fill="#D4AF37" opacity="0.08"/>
    <circle cx="540" cy="850" r="125" fill="none" stroke="#D4AF37" stroke-width="2" opacity="0.4"/>
    <g transform="translate(540, 850)"><line x1="0" y1="-62.5" x2="0" y2="-12.5" stroke="#D4AF37" stroke-width="2"/><circle cx="0" cy="18.75" r="43.75" fill="none" stroke="#D4AF37" stroke-width="2.891933431748239"/><circle cx="0" cy="18.75" r="7.110782650402545" fill="#c9f0e8" opacity="0.8"/></g>
  
    <rect x="0" y="1820" width="1080" height="120" fill="#07221e" fill-opacity="0.85"/>
    <line x1="60" y1="1840" x2="1020" y2="1840" stroke="#D4AF37" stroke-width="1" opacity="0.3"/>
    <g transform="translate(80, 1875)">
      <polygon points="0,-12 -14,12 14,12" fill="none" stroke="#D4AF37" stroke-width="2"/>
      <text x="0" y="28" text-anchor="middle" fill="#D4AF37" font-size="9" font-weight="bold">916 BIS HUID</text>
    </g>
    <text x="540" y="1880" text-anchor="middle" fill="#ffffff" font-size="16" font-weight="bold">📞 9443476183</text>
    <text x="1000" y="1875" text-anchor="end" fill="#a8d4c8" font-size="12" opacity="0.85">📍 89 New Market Street, Tirupur</text>
  
</svg>