<?xml version="1.0" encoding="UTF-8"?>
<svg xmlns="http://www.w3.org/2000/svg" xmlns:xlink="http://www.w3.org/1999/xlink"
  viewBox="0 0 1080 1920" width="1080" height="1920">
  <defs>
    <linearGradient id="bgGrad" x1="0%" y1="0%" x2="100%" y2="100%">
      <stop offset="0%" stop-color="#1f0f14"/>
      <stop offset="100%" stop-color="#0f0709"/>
    </linearGradient>
    <linearGradient id="goldGrad" x1="0%" y1="0%" x2="100%" y2="0%">
      <stop offset="0%" stop-color="#e8b4b8"/>
      <stop offset="50%" stop-color="#F3E5AB"/>
      <stop offset="100%" stop-color="#e8b4b8"/>
    </linearGradient>
  </defs>
  <rect width="1080" height="1920" fill="url(#bgGrad)"/><circle cx="540" cy="864" r="100" fill="none" stroke="#e8b4b8" stroke-width="0.8" opacity="0.13"/><circle cx="540" cy="864" r="160" fill="none" stroke="#e8b4b8" stroke-width="0.8" opacity="0.118"/><circle cx="540" cy="864" r="220" fill="none" stroke="#e8b4b8" stroke-width="0.8" opacity="0.10599999999999998"/><circle cx="540" cy="864" r="280" fill="none" stroke="#e8b4b8" stroke-width="0.8" opacity="0.094"/><circle cx="540" cy="864" r="340" fill="none" stroke="#e8b4b8" stroke-width="0.8" opacity="0.08199999999999999"/><circle cx="540" cy="864" r="400" fill="none" stroke="#e8b4b8" stroke-width="0.8" opacity="0.06999999999999999"/><circle cx="540" cy="864" r="460" fill="none" stroke="#e8b4b8" stroke-width="0.8" opacity="0.057999999999999996"/><circle cx="540" cy="864" r="520" fill="none" stroke="#e8b4b8" stroke-width="0.8" opacity="0.045999999999999985"/><circle cx="540" cy="864" r="580" fill="none" stroke="#e8b4b8" stroke-width="0.8" opacity="0.03399999999999999"/>
  
    
    <g transform="translate(540, 100) scale(0.55)">
      <circle cx="0" cy="0" r="50" fill="none" stroke="url(#goldGrad)" stroke-width="3"/>
      <path d="M0,-35 L6,-18 L0,-22 L-6,-18 Z" fill="url(#goldGrad)"/>
      <rect x="-2" y="-22" width="4" height="14" fill="url(#goldGrad)"/>
      <ellipse cx="0" cy="5" rx="14" ry="18" fill="url(#goldGrad)"/>
      <circle cx="0" cy="-10" r="9" fill="url(#goldGrad)"/>
      <g fill="none" stroke="url(#goldGrad)" stroke-width="2" opacity="0.8">
        <path d="M-12,8 Q-28,-5 -32,-22"/>
        <path d="M-6,12 Q-16,-2 -18,-25"/>
        <path d="M0,14 Q0,-2 0,-28"/>
        <path d="M6,12 Q16,-2 18,-25"/>
        <path d="M12,8 Q28,-5 32,-22"/>
      </g>
    </g>
  
    <text x="540" y="165" text-anchor="middle" fill="url(#goldGrad)" font-size="24" font-family="Cambria, serif" font-weight="900" letter-spacing="3">SRI VELMAYIL JEWELLERY</text>
    <text x="540" y="192" text-anchor="middle" fill="#d4a0a8" font-size="13" font-family="Calibri, sans-serif" letter-spacing="8" opacity="0.85">— TIRUPUR —</text>
  
    <circle cx="540" cy="550" r="170" fill="#e8b4b8" opacity="0.08"/>
    <circle cx="540" cy="550" r="160" fill="none" stroke="#e8b4b8" stroke-width="2" opacity="0.4"/>
    <g transform="translate(540, 550)"><path d="M-107.80987308156665,-48 Q0,96 107.80987308156665,-48" fill="none" stroke="#e8b4b8" stroke-width="4.59807767867863"/><circle cx="-91.63839211933166" cy="-15.999999999999996" r="4.053697727670611" fill="#F3E5AB" opacity="0.9"/><circle cx="-84.66283487129412" cy="-25.18440237676215" r="6.497739844487738" fill="#F3E5AB" opacity="0.9"/><circle cx="-64.7981284846113" cy="-32.970562748477136" r="7.513578062424044" fill="#F3E5AB" opacity="0.9"/><circle cx="-35.06849443264388" cy="-38.17310878027087" r="4.706498966278973" fill="#F3E5AB" opacity="0.9"/><circle cx="-1.6833699538192432e-14" cy="-40" r="6.128152025982879" fill="#F3E5AB" opacity="0.9"/><circle cx="35.06849443264385" cy="-38.17310878027088" r="7.85111534395359" fill="#F3E5AB" opacity="0.9"/><circle cx="64.79812848461128" cy="-32.97056274847715" r="5.6955869921442" fill="#F3E5AB" opacity="0.9"/><circle cx="84.66283487129408" cy="-25.184402376762172" r="5.730595001699957" fill="#F3E5AB" opacity="0.9"/><circle cx="0" cy="56" r="13.165316997249906" fill="#e8b4b8" stroke="#F3E5AB" stroke-width="1"/></g>
  <ellipse cx="123.85124099333885" cy="1184.1568732859164" rx="12" ry="8" fill="#e8b4b8" opacity="0.12" transform="rotate(0 123.85124099333885 1184.1568732859164)"/><ellipse cx="110.0315808808378" cy="1203.1780036118193" rx="12" ry="8" fill="#e8b4b8" opacity="0.12" transform="rotate(72.00530362027806 110.0315808808378 1203.1780036118193)"/><ellipse cx="87.6709011058399" cy="1195.9125783317659" rx="12" ry="8" fill="#e8b4b8" opacity="0.12" transform="rotate(144.0106072405561 87.6709011058399 1195.9125783317659)"/><ellipse cx="87.6709011058399" cy="1172.401168240067" rx="12" ry="8" fill="#e8b4b8" opacity="0.12" transform="rotate(216.01591086083417 87.6709011058399 1172.401168240067)"/><ellipse cx="110.0315808808378" cy="1165.1357429600134" rx="12" ry="8" fill="#e8b4b8" opacity="0.12" transform="rotate(288.0212144811122 110.0315808808378 1165.1357429600134)"/><circle cx="103.85124099333885" cy="1184.1568732859164" r="8" fill="#F3E5AB" opacity="0.2"/><ellipse cx="973.8521439990515" cy="897.0843905518617" rx="12" ry="8" fill="#e8b4b8" opacity="0.12" transform="rotate(0 973.8521439990515 897.0843905518617)"/><ellipse cx="966.3219400362261" cy="912.7210202012222" rx="12" ry="8" fill="#e8b4b8" opacity="0.12" transform="rotate(51.43235972877004 966.3219400362261 912.7210202012222)"/><ellipse cx="949.4017253199252" cy="916.5829487954982" rx="12" ry="8" fill="#e8b4b8" opacity="0.12" transform="rotate(102.86471945754008 949.4017253199252 916.5829487954982)"/><ellipse cx="935.8327666410031" cy="905.7620653342128" rx="12" ry="8" fill="#e8b4b8" opacity="0.12" transform="rotate(154.29707918631013 935.8327666410031 905.7620653342128)"/><ellipse cx="935.8327666410031" cy="888.4067157695106" rx="12" ry="8" fill="#e8b4b8" opacity="0.12" transform="rotate(205.72943891508015 935.8327666410031 888.4067157695106)"/><ellipse cx="949.4017253199252" cy="877.5858323082252" rx="12" ry="8" fill="#e8b4b8" opacity="0.12" transform="rotate(257.1617986438502 949.4017253199252 877.5858323082252)"/><ellipse cx="966.3219400362261" cy="881.4477609025012" rx="12" ry="8" fill="#e8b4b8" opacity="0.12" transform="rotate(308.59415837262026 966.3219400362261 881.4477609025012)"/><circle cx="953.8521439990515" cy="897.0843905518617" r="8" fill="#F3E5AB" opacity="0.2"/><ellipse cx="66.3611042651917" cy="1201.2926636797306" rx="12" ry="8" fill="#e8b4b8" opacity="0.12" transform="rotate(0 66.3611042651917 1201.2926636797306)"/><ellipse cx="52.541444152690644" cy="1220.3137940056336" rx="12" ry="8" fill="#e8b4b8" opacity="0.12" transform="rotate(72.00530362027806 52.541444152690644 1220.3137940056336)"/><ellipse cx="30.180764377692746" cy="1213.04836872558" rx="12" ry="8" fill="#e8b4b8" opacity="0.12" transform="rotate(144.0106072405561 30.180764377692746 1213.04836872558)"/><ellipse cx="30.180764377692743" cy="1189.536958633881" rx="12" ry="8" fill="#e8b4b8" opacity="0.12" transform="rotate(216.01591086083417 30.180764377692743 1189.536958633881)"/><ellipse cx="52.54144415269064" cy="1182.2715333538276" rx="12" ry="8" fill="#e8b4b8" opacity="0.12" transform="rotate(288.0212144811122 52.54144415269064 1182.2715333538276)"/><circle cx="46.36110426519169" cy="1201.2926636797306" r="8" fill="#F3E5AB" opacity="0.2"/><ellipse cx="958.5840072888732" cy="993.5718866005278" rx="12" ry="8" fill="#e8b4b8" opacity="0.12" transform="rotate(0 958.5840072888732 993.5718866005278)"/><ellipse cx="944.7643471763721" cy="1012.5930169264309" rx="12" ry="8" fill="#e8b4b8" opacity="0.12" transform="rotate(72.00530362027806 944.7643471763721 1012.5930169264309)"/><ellipse cx="922.4036674013743" cy="1005.3275916463773" rx="12" ry="8" fill="#e8b4b8" opacity="0.12" transform="rotate(144.0106072405561 922.4036674013743 1005.3275916463773)"/><ellipse cx="922.4036674013743" cy="981.8161815546783" rx="12" ry="8" fill="#e8b4b8" opacity="0.12" transform="rotate(216.01591086083417 922.4036674013743 981.8161815546783)"/><ellipse cx="944.7643471763721" cy="974.5507562746247" rx="12" ry="8" fill="#e8b4b8" opacity="0.12" transform="rotate(288.0212144811122 944.7643471763721 974.5507562746247)"/><circle cx="938.5840072888732" cy="993.5718866005278" r="8" fill="#F3E5AB" opacity="0.2"/>
    <text x="540" y="820" text-anchor="middle" fill="#d4a0a8" font-size="18" font-family="Calibri, sans-serif">Today's</text>
    <text x="540" y="820" text-anchor="middle" fill="#ffffff" font-size="22" font-weight="900" font-family="Calibri, sans-serif"> GOLD RATE</text>
    <text x="540" y="865" text-anchor="middle" fill="#ffffff" font-size="30" font-weight="900" font-family="Cambria, serif">15TH JUNE 2026</text>
  
    <g transform="translate(540, 900)">
      <g transform="translate(-220, 0)">
        <rect x="0" y="0" width="200" height="90" rx="12" fill="#1f0f14" stroke="#e8b4b8" stroke-width="2"/>
        <text x="100" y="28" text-anchor="middle" fill="#F3E5AB" font-size="12" font-weight="bold">Gold Rate 1GM 22K</text>
        <text x="100" y="65" text-anchor="middle" fill="#ffffff" font-size="34" font-weight="900" font-family="Cambria, serif">₹ 12,152</text>
      </g>
      <g transform="translate(20, 0)">
        <rect x="0" y="0" width="200" height="90" rx="12" fill="#1f0f14" stroke="#e8b4b8" stroke-width="2"/>
        <text x="100" y="28" text-anchor="middle" fill="#F3E5AB" font-size="12" font-weight="bold">Gold Rate 8GM 22K</text>
        <text x="100" y="65" text-anchor="middle" fill="#ffffff" font-size="34" font-weight="900" font-family="Cambria, serif">₹ 97,216</text>
      </g>
      <g transform="translate(-90, 110)">
        <rect x="0" y="0" width="180" height="50" rx="25" fill="#e8b4b8" fill-opacity="0.15" stroke="#e8b4b8" stroke-width="1.5"/>
        <text x="90" y="32" text-anchor="middle" fill="#ffffff" font-size="18" font-weight="bold">Silver 1GM ₹ 217</text>
      </g>
    </g>
  
    <rect x="0" y="1820" width="1080" height="120" fill="#1f0f14" fill-opacity="0.85"/>
    <line x1="60" y1="1840" x2="1020" y2="1840" stroke="#e8b4b8" stroke-width="1" opacity="0.3"/>
    <g transform="translate(80, 1875)">
      <polygon points="0,-12 -14,12 14,12" fill="none" stroke="#e8b4b8" stroke-width="2"/>
      <text x="0" y="28" text-anchor="middle" fill="#e8b4b8" font-size="9" font-weight="bold">916 BIS HUID</text>
    </g>
    <text x="540" y="1880" text-anchor="middle" fill="#ffffff" font-size="16" font-weight="bold">📞 9443476183</text>
    <text x="1000" y="1875" text-anchor="end" fill="#d4a0a8" font-size="12" opacity="0.85">📍 89 New Market Street, Tirupur</text>
  
</svg>