<?xml version="1.0" encoding="UTF-8"?>
<svg xmlns="http://www.w3.org/2000/svg" xmlns:xlink="http://www.w3.org/1999/xlink"
  viewBox="0 0 1080 1920" width="1080" height="1920">
  <defs>
    <linearGradient id="bgGrad" x1="0%" y1="0%" x2="100%" y2="100%">
      <stop offset="0%" stop-color="#2d020d"/>
      <stop offset="100%" stop-color="#120105"/>
    </linearGradient>
    <linearGradient id="goldGrad" x1="0%" y1="0%" x2="100%" y2="0%">
      <stop offset="0%" stop-color="#D4AF37"/>
      <stop offset="50%" stop-color="#F3E5AB"/>
      <stop offset="100%" stop-color="#D4AF37"/>
    </linearGradient>
  </defs>
  <rect width="1080" height="1920" fill="url(#bgGrad)"/><circle cx="110.86605134500755" cy="579.0800710945205" r="49.89711494175449" fill="#D4AF37" opacity="0.0867067504503827"/><circle cx="724.2609616036164" cy="1873.7501442001667" r="63.22282778399328" fill="#D4AF37" opacity="0.06716304525003121"/><circle cx="1071.6231695484585" cy="1227.7522956838388" r="89.40324795376812" fill="#D4AF37" opacity="0.07521893878953433"/><circle cx="416.45503380937043" cy="1706.2372038757776" r="167.39060108306873" fill="#D4AF37" opacity="0.08278087030423886"/><circle cx="577.0499353642109" cy="139.14240373218658" r="40.53278863479643" fill="#D4AF37" opacity="0.11695115610207538"/><circle cx="696.9675771305035" cy="451.6832528744668" r="180.0368793867872" fill="#D4AF37" opacity="0.11990550560867926"/><circle cx="381.9931894186821" cy="1136.9600398996472" r="127.28306011043773" fill="#D4AF37" opacity="0.0785954129263716"/><circle cx="997.2645308610653" cy="897.7259185330253" r="99.96006539087749" fill="#D4AF37" opacity="0.06871114165402123"/><circle cx="97.89816602868788" cy="950.1940092353094" r="145.89340063360837" fill="#D4AF37" opacity="0.06959149076565307"/><circle cx="530.2283139063309" cy="830.7131131279405" r="162.94173885410814" fill="#D4AF37" opacity="0.053515431171763155"/><circle cx="406.22668956054997" cy="1372.4030528333064" r="124.84277122173717" fill="#D4AF37" opacity="0.04825678793551101"/><circle cx="382.02472314427115" cy="159.15972962897246" r="76.4658045363294" fill="#D4AF37" opacity="0.07543751749250807"/>
  <circle cx="540" cy="864" r="400" fill="#D4AF37" opacity="0.06"/><circle cx="540" cy="864" r="250" fill="#D4AF37" opacity="0.04"/>
    
    <g transform="translate(540, 110) scale(0.55)">
      <circle cx="0" cy="0" r="50" fill="none" stroke="url(#goldGrad)" stroke-width="3"/>
      <path d="M0,-35 L6,-18 L0,-22 L-6,-18 Z" fill="url(#goldGrad)"/>
      <rect x="-2" y="-22" width="4" height="14" fill="url(#goldGrad)"/>
      <ellipse cx="0" cy="5" rx="14" ry="18" fill="url(#goldGrad)"/>
      <circle cx="0" cy="-10" r="9" fill="url(#goldGrad)"/>
      <g fill="none" stroke="url(#goldGrad)" stroke-width="2" opacity="0.8">
        <path d="M-12,8 Q-28,-5 -32,-22"/>
        <path d="M-6,12 Q-16,-2 -18,-25"/>
        <path d="M0,14 Q0,-2 0,-28"/>
        <path d="M6,12 Q16,-2 18,-25"/>
        <path d="M12,8 Q28,-5 32,-22"/>
      </g>
    </g>
  
    <text x="540" y="175" text-anchor="middle" fill="url(#goldGrad)" font-size="22" font-family="Garamond, serif" font-weight="700" letter-spacing="3">SRI VELMAYIL JEWELLERY</text>
    <text x="540" y="202" text-anchor="middle" fill="#e8d5a3" font-size="13" font-family="Tahoma, sans-serif" letter-spacing="8" opacity="0.85">— TIRUPUR —</text>
  
    <g transform="translate(540, 500)">
      <circle cx="0" cy="-180" r="150" fill="#2d020d" fill-opacity="0.7" stroke="#D4AF37" stroke-width="4"/>
      <text x="0" y="-220" text-anchor="middle" fill="#F3E5AB" font-size="16" font-weight="bold">8GM</text>
      <text x="0" y="-165" text-anchor="middle" fill="#ffffff" font-size="46" font-weight="700" font-family="Garamond, serif">₹97,216</text>
      <text x="0" y="-130" text-anchor="middle" fill="#e8d5a3" font-size="14" font-weight="bold">22K</text>

      <circle cx="-170" cy="80" r="115" fill="#2d020d" fill-opacity="0.7" stroke="#D4AF37" stroke-width="3"/>
      <text x="-170" y="50" text-anchor="middle" fill="#F3E5AB" font-size="14" font-weight="bold">1GM</text>
      <text x="-170" y="95" text-anchor="middle" fill="#ffffff" font-size="34" font-weight="700" font-family="Garamond, serif">₹12,152</text>
      <text x="-170" y="125" text-anchor="middle" fill="#e8d5a3" font-size="12" font-weight="bold">22K</text>

      <circle cx="170" cy="80" r="115" fill="#2d020d" fill-opacity="0.7" stroke="#D4AF37" stroke-width="3"/>
      <text x="170" y="50" text-anchor="middle" fill="#F3E5AB" font-size="14" font-weight="bold">1GM</text>
      <text x="170" y="95" text-anchor="middle" fill="#ffffff" font-size="34" font-weight="700" font-family="Garamond, serif">₹217</text>
      <text x="170" y="125" text-anchor="middle" fill="#e8d5a3" font-size="12" font-weight="bold">SILVER</text>
    </g>
  
    <circle cx="540" cy="1050" r="100" fill="#D4AF37" opacity="0.08"/>
    <circle cx="540" cy="1050" r="90" fill="none" stroke="#D4AF37" stroke-width="2" opacity="0.4"/>
    <g transform="translate(540, 1050)"><circle cx="-18" cy="0" r="45" fill="none" stroke="#D4AF37" stroke-width="7.60328197162904"/><circle cx="18" cy="0" r="45" fill="none" stroke="#D4AF37" stroke-width="7.60328197162904"/><circle cx="45" cy="0" r="3" fill="#F3E5AB"/><circle cx="2.7554552980815448e-15" cy="45" r="3" fill="#F3E5AB"/><circle cx="-45" cy="5.5109105961630896e-15" r="3" fill="#F3E5AB"/><circle cx="-8.266365894244634e-15" cy="-45" r="3" fill="#F3E5AB"/></g>
  
    <rect x="0" y="1820" width="1080" height="120" fill="#2d020d" fill-opacity="0.85"/>
    <line x1="60" y1="1840" x2="1020" y2="1840" stroke="#D4AF37" stroke-width="1" opacity="0.3"/>
    <g transform="translate(80, 1875)">
      <polygon points="0,-12 -14,12 14,12" fill="none" stroke="#D4AF37" stroke-width="2"/>
      <text x="0" y="28" text-anchor="middle" fill="#D4AF37" font-size="9" font-weight="bold">916 BIS HUID</text>
    </g>
    <text x="540" y="1880" text-anchor="middle" fill="#ffffff" font-size="16" font-weight="bold">📞 9443476183</text>
    <text x="1000" y="1875" text-anchor="end" fill="#e8d5a3" font-size="12" opacity="0.85">📍 89 New Market Street, Tirupur</text>
  
</svg>