<?xml version="1.0" encoding="UTF-8"?>
<svg xmlns="http://www.w3.org/2000/svg" xmlns:xlink="http://www.w3.org/1999/xlink"
  viewBox="0 0 1080 1920" width="1080" height="1920">
  <defs>
    <linearGradient id="bgGrad" x1="0%" y1="0%" x2="100%" y2="100%">
      <stop offset="0%" stop-color="#1f1008"/>
      <stop offset="100%" stop-color="#0d0804"/>
    </linearGradient>
    <linearGradient id="goldGrad" x1="0%" y1="0%" x2="100%" y2="0%">
      <stop offset="0%" stop-color="#D4AF37"/>
      <stop offset="50%" stop-color="#F3E5AB"/>
      <stop offset="100%" stop-color="#D4AF37"/>
    </linearGradient>
  </defs>
  <rect width="1080" height="1920" fill="url(#bgGrad)"/><polygon points="468.31169736414375,1694.793097036698 470.7672872680866,1697.248686940641 468.31169736414375,1699.7042768445838 465.8561074602009,1697.248686940641" fill="#F3E5AB" opacity="0.1824657479603456"/><polygon points="6.579618814009819,751.0135550582908 8.742610851994353,753.1765470962753 6.579618814009819,755.3395391342598 4.416626776025284,753.1765470962753" fill="#F3E5AB" opacity="0.35554093267353337"/><polygon points="275.24085092846383,586.1011975855578 281.1180581181478,591.9784047752418 275.24085092846383,597.8556119649257 269.36364373877984,591.9784047752418" fill="#F3E5AB" opacity="0.11659284836295328"/><polygon points="633.6167549282469,703.140999737327 635.9043281449977,705.4285729540778 633.6167549282469,707.7161461708287 631.3291817114961,705.4285729540778" fill="#F3E5AB" opacity="0.1932312238432758"/><polygon points="133.85070742466553,1896.4205217663389 137.6027923464801,1900.1726066881536 133.85070742466553,1903.9246916099682 130.09862250285096,1900.1726066881536" fill="#F3E5AB" opacity="0.34684738977518625"/><polygon points="230.6893227721465,1908.8693695206841 233.73902611037627,1911.919072858914 230.6893227721465,1914.9687761971438 227.63961943391675,1911.919072858914" fill="#F3E5AB" opacity="0.2773021537599174"/><polygon points="62.277131082748184,300.2094844600274 67.40110866855933,305.33346204583853 62.277131082748184,310.45743963164966 57.15315349693704,305.33346204583853" fill="#F3E5AB" opacity="0.1518468686862354"/><polygon points="685.1662259224487,1112.5187827707443 690.4468538206506,1117.7994106689462 685.1662259224487,1123.080038567148 679.8855980242467,1117.7994106689462" fill="#F3E5AB" opacity="0.21348180315781554"/><polygon points="679.2016792103664,1457.523754274029 684.1234810316222,1462.445556095285 679.2016792103664,1467.3673579165409 674.2798773891105,1462.445556095285" fill="#F3E5AB" opacity="0.30424137139156593"/><polygon points="305.02701860389396,1611.91820286393 309.30035492340136,1616.1915391834375 305.02701860389396,1620.464875502945 300.75368228438657,1616.1915391834375" fill="#F3E5AB" opacity="0.3972651605934512"/><polygon points="847.9948158264111,1006.1351285801597 853.1866383805745,1011.3269511343232 847.9948158264111,1016.5187736884866 842.8029932722477,1011.3269511343232" fill="#F3E5AB" opacity="0.17212556118343544"/><polygon points="771.5109362001633,536.4351120800108 776.0662776884309,540.9904535682783 771.5109362001633,545.5457950565459 766.9555947118957,540.9904535682783" fill="#F3E5AB" opacity="0.3718303465022057"/><polygon points="909.481978853682,749.5460345945751 913.0380385974776,753.1020943383706 909.481978853682,756.6581540821662 905.9259191098864,753.1020943383706" fill="#F3E5AB" opacity="0.1522099823711533"/><polygon points="1055.4323445590514,1297.0521877939368 1058.6738387035894,1300.2936819384747 1055.4323445590514,1303.5351760830126 1052.1908504145135,1300.2936819384747" fill="#F3E5AB" opacity="0.23440816279911267"/><polygon points="1072.7764584056813,1123.6262130920086 1076.148433070768,1126.9981877570954 1072.7764584056813,1130.3701624221821 1069.4044837405945,1126.9981877570954" fill="#F3E5AB" opacity="0.3083662509530469"/><polygon points="401.68974574812665,208.03568287569627 406.2089020257899,212.5548391533595 401.68974574812665,217.07399543102272 397.1705894704634,212.5548391533595" fill="#F3E5AB" opacity="0.35946777063372337"/><polygon points="269.35688917465217,1418.557006616664 275.23135392109987,1424.4314713631118 269.35688917465217,1430.3059361095595 263.48242442820447,1424.4314713631118" fill="#F3E5AB" opacity="0.2596745896243254"/><polygon points="542.9840911393837,1799.782361481136 545.1999207261949,1801.9981910679471 542.9840911393837,1804.2140206547583 540.7682615525725,1801.9981910679471" fill="#F3E5AB" opacity="0.3585921363985093"/><polygon points="208.93238534120132,791.4943712982296 211.4064523944691,793.9684383514974 208.93238534120132,796.4425054047653 206.45831828793354,793.9684383514974" fill="#F3E5AB" opacity="0.37337439001852124"/><polygon points="372.14369847638875,597.7258918413202 377.34373066326947,602.9259240282009 372.14369847638875,608.1259562150817 366.94366628950803,602.9259240282009" fill="#F3E5AB" opacity="0.3205728373681874"/><polygon points="243.64176711406722,1077.2115862306314 245.87272587220437,1079.4425449887685 243.64176711406722,1081.6735037469057 241.41080835593007,1079.4425449887685" fill="#F3E5AB" opacity="0.22929081309520716"/><polygon points="326.50929749618217,283.7737687432894 330.3247109803601,287.58918222746735 326.50929749618217,291.4045957116453 322.6938840120042,287.58918222746735" fill="#F3E5AB" opacity="0.3740834256858411"/><polygon points="72.4885366787096,128.16501870953013 77.37924021052126,133.0557222413418 72.4885366787096,137.9464257731535 67.59783314689793,133.0557222413418" fill="#F3E5AB" opacity="0.10407008789858789"/><polygon points="21.49065895144889,836.4765048161862 26.815542586907316,841.8013884516446 21.49065895144889,847.126272087103 16.165775315990462,841.8013884516446" fill="#F3E5AB" opacity="0.19894498241967057"/><polygon points="245.95596297267448,1100.9153001391471 250.59836783502098,1105.5577050014936 245.95596297267448,1110.20010986384 241.313558110328,1105.5577050014936" fill="#F3E5AB" opacity="0.3173899061674158"/><polygon points="979.7529682142222,1822.140894428027 985.412182192702,1827.8001084065068 979.7529682142222,1833.4593223849865 974.0937542357424,1827.8001084065068" fill="#F3E5AB" opacity="0.13070042317798403"/><polygon points="1015.2520560242721,745.463689119987 1018.7770004596347,748.9886335553496 1015.2520560242721,752.5135779907122 1011.7271115889095,748.9886335553496" fill="#F3E5AB" opacity="0.2305858382308724"/><polygon points="922.2640997378752,585.9640309586787 927.812119660724,591.5120508815274 922.2640997378752,597.0600708043762 916.7160798150264,591.5120508815274" fill="#F3E5AB" opacity="0.36781351428275333"/><polygon points="870.2452875955452,1511.9700215123316 873.9201724658908,1515.6449063826772 870.2452875955452,1519.3197912530227 866.5704027251995,1515.6449063826772" fill="#F3E5AB" opacity="0.2342525570972381"/><polygon points="297.8223493674978,1381.0855438067445 303.8158117959423,1387.079006235189 297.8223493674978,1393.0724686636333 291.8288869390533,1387.079006235189" fill="#F3E5AB" opacity="0.2592276187699546"/>
  
    
    <g transform="translate(540, 110) scale(0.55)">
      <circle cx="0" cy="0" r="50" fill="none" stroke="url(#goldGrad)" stroke-width="3"/>
      <path d="M0,-35 L6,-18 L0,-22 L-6,-18 Z" fill="url(#goldGrad)"/>
      <rect x="-2" y="-22" width="4" height="14" fill="url(#goldGrad)"/>
      <ellipse cx="0" cy="5" rx="14" ry="18" fill="url(#goldGrad)"/>
      <circle cx="0" cy="-10" r="9" fill="url(#goldGrad)"/>
      <g fill="none" stroke="url(#goldGrad)" stroke-width="2" opacity="0.8">
        <path d="M-12,8 Q-28,-5 -32,-22"/>
        <path d="M-6,12 Q-16,-2 -18,-25"/>
        <path d="M0,14 Q0,-2 0,-28"/>
        <path d="M6,12 Q16,-2 18,-25"/>
        <path d="M12,8 Q28,-5 32,-22"/>
      </g>
    </g>
  
    <text x="540" y="175" text-anchor="middle" fill="url(#goldGrad)" font-size="24" font-family="Cambria, serif" font-weight="900" letter-spacing="3">SRI VELMAYIL JEWELLERY</text>
    <text x="540" y="202" text-anchor="middle" fill="#c4a882" font-size="13" font-family="Calibri, sans-serif" letter-spacing="8" opacity="0.85">— TIRUPUR —</text>
  
    <text x="540" y="280" text-anchor="middle" fill="#c4a882" font-size="18" font-family="Calibri, sans-serif">Today's</text>
    <text x="540" y="280" text-anchor="middle" fill="#ffffff" font-size="22" font-weight="900" font-family="Calibri, sans-serif"> GOLD RATE</text>
    <text x="540" y="325" text-anchor="middle" fill="#ffffff" font-size="30" font-weight="900" font-family="Cambria, serif">15TH JUNE 2026</text>
  
    <g transform="translate(540, 350)">
      <g transform="translate(-220, 0)">
        <rect x="0" y="0" width="200" height="90" rx="12" fill="#1f1008" stroke="#D4AF37" stroke-width="2"/>
        <text x="100" y="28" text-anchor="middle" fill="#F3E5AB" font-size="12" font-weight="bold">Gold Rate 1GM 22K</text>
        <text x="100" y="65" text-anchor="middle" fill="#ffffff" font-size="34" font-weight="900" font-family="Cambria, serif">₹ 12,152</text>
      </g>
      <g transform="translate(20, 0)">
        <rect x="0" y="0" width="200" height="90" rx="12" fill="#1f1008" stroke="#D4AF37" stroke-width="2"/>
        <text x="100" y="28" text-anchor="middle" fill="#F3E5AB" font-size="12" font-weight="bold">Gold Rate 8GM 22K</text>
        <text x="100" y="65" text-anchor="middle" fill="#ffffff" font-size="34" font-weight="900" font-family="Cambria, serif">₹ 97,216</text>
      </g>
      <g transform="translate(-90, 110)">
        <rect x="0" y="0" width="180" height="50" rx="25" fill="#D4AF37" fill-opacity="0.15" stroke="#D4AF37" stroke-width="1.5"/>
        <text x="90" y="32" text-anchor="middle" fill="#ffffff" font-size="18" font-weight="bold">Silver 1GM ₹ 217</text>
      </g>
    </g>
  
    <circle cx="540" cy="750" r="160" fill="#D4AF37" opacity="0.08"/>
    <circle cx="540" cy="750" r="150" fill="none" stroke="#D4AF37" stroke-width="2" opacity="0.4"/>
    <g transform="translate(540, 750)"><line x1="0" y1="-75" x2="0" y2="-15" stroke="#D4AF37" stroke-width="2"/><circle cx="0" cy="22.5" r="52.5" fill="none" stroke="#D4AF37" stroke-width="3.9226038939530063"/><circle cx="0" cy="22.5" r="11.04877695166392" fill="#F3E5AB" opacity="0.8"/></g>
  <ellipse cx="111.22762440818141" cy="738.4174511157139" rx="12" ry="8" fill="#D4AF37" opacity="0.12" transform="rotate(0 111.22762440818141 738.4174511157139)"/><ellipse cx="105.36976003191236" cy="752.5595867394449" rx="12" ry="8" fill="#D4AF37" opacity="0.12" transform="rotate(45.00331476267378 105.36976003191236 752.5595867394449)"/><ellipse cx="91.22762440818141" cy="758.4174511157139" rx="12" ry="8" fill="#D4AF37" opacity="0.12" transform="rotate(90.00662952534756 91.22762440818141 758.4174511157139)"/><ellipse cx="77.08548878445046" cy="752.5595867394449" rx="12" ry="8" fill="#D4AF37" opacity="0.12" transform="rotate(135.00994428802136 77.08548878445046 752.5595867394449)"/><ellipse cx="71.22762440818141" cy="738.4174511157139" rx="12" ry="8" fill="#D4AF37" opacity="0.12" transform="rotate(180.01325905069513 71.22762440818141 738.4174511157139)"/><ellipse cx="77.08548878445046" cy="724.275315491983" rx="12" ry="8" fill="#D4AF37" opacity="0.12" transform="rotate(225.01657381336892 77.08548878445046 724.275315491983)"/><ellipse cx="91.22762440818141" cy="718.4174511157139" rx="12" ry="8" fill="#D4AF37" opacity="0.12" transform="rotate(270.0198885760427 91.22762440818141 718.4174511157139)"/><ellipse cx="105.36976003191236" cy="724.275315491983" rx="12" ry="8" fill="#D4AF37" opacity="0.12" transform="rotate(315.0232033387165 105.36976003191236 724.275315491983)"/><circle cx="91.22762440818141" cy="738.4174511157139" r="8" fill="#F3E5AB" opacity="0.2"/><ellipse cx="979.9608615226679" cy="1102.430336548416" rx="12" ry="8" fill="#D4AF37" opacity="0.12" transform="rotate(0 979.9608615226679 1102.430336548416)"/><ellipse cx="969.9608615226679" cy="1119.750844624105" rx="12" ry="8" fill="#D4AF37" opacity="0.12" transform="rotate(60.00441968356504 969.9608615226679 1119.750844624105)"/><ellipse cx="949.9608615226679" cy="1119.750844624105" rx="12" ry="8" fill="#D4AF37" opacity="0.12" transform="rotate(120.00883936713008 949.9608615226679 1119.750844624105)"/><ellipse cx="939.9608615226679" cy="1102.430336548416" rx="12" ry="8" fill="#D4AF37" opacity="0.12" transform="rotate(180.01325905069513 939.9608615226679 1102.430336548416)"/><ellipse cx="949.9608615226679" cy="1085.1098284727273" rx="12" ry="8" fill="#D4AF37" opacity="0.12" transform="rotate(240.01767873426016 949.9608615226679 1085.1098284727273)"/><ellipse cx="969.9608615226679" cy="1085.1098284727273" rx="12" ry="8" fill="#D4AF37" opacity="0.12" transform="rotate(300.02209841782525 969.9608615226679 1085.1098284727273)"/><circle cx="959.9608615226679" cy="1102.430336548416" r="8" fill="#F3E5AB" opacity="0.2"/><ellipse cx="127.37797808123565" cy="1099.6954205145084" rx="12" ry="8" fill="#D4AF37" opacity="0.12" transform="rotate(0 127.37797808123565 1099.6954205145084)"/><ellipse cx="119.84777411841033" cy="1115.332050163869" rx="12" ry="8" fill="#D4AF37" opacity="0.12" transform="rotate(51.43235972877004 119.84777411841033 1115.332050163869)"/><ellipse cx="102.92755940210937" cy="1119.193978758145" rx="12" ry="8" fill="#D4AF37" opacity="0.12" transform="rotate(102.86471945754008 102.92755940210937 1119.193978758145)"/><ellipse cx="89.35860072318727" cy="1108.3730952968597" rx="12" ry="8" fill="#D4AF37" opacity="0.12" transform="rotate(154.29707918631013 89.35860072318727 1108.3730952968597)"/><ellipse cx="89.35860072318727" cy="1091.0177457321572" rx="12" ry="8" fill="#D4AF37" opacity="0.12" transform="rotate(205.72943891508015 89.35860072318727 1091.0177457321572)"/><ellipse cx="102.92755940210937" cy="1080.1968622708719" rx="12" ry="8" fill="#D4AF37" opacity="0.12" transform="rotate(257.1617986438502 102.92755940210937 1080.1968622708719)"/><ellipse cx="119.84777411841031" cy="1084.0587908651478" rx="12" ry="8" fill="#D4AF37" opacity="0.12" transform="rotate(308.59415837262026 119.84777411841031 1084.0587908651478)"/><circle cx="107.37797808123565" cy="1099.6954205145084" r="8" fill="#F3E5AB" opacity="0.2"/><ellipse cx="1034.3148405098495" cy="983.6927129250882" rx="12" ry="8" fill="#D4AF37" opacity="0.12" transform="rotate(0 1034.3148405098495 983.6927129250882)"/><ellipse cx="1028.4569761335804" cy="997.8348485488192" rx="12" ry="8" fill="#D4AF37" opacity="0.12" transform="rotate(45.00331476267378 1028.4569761335804 997.8348485488192)"/><ellipse cx="1014.3148405098494" cy="1003.6927129250882" rx="12" ry="8" fill="#D4AF37" opacity="0.12" transform="rotate(90.00662952534756 1014.3148405098494 1003.6927129250882)"/><ellipse cx="1000.1727048861185" cy="997.8348485488192" rx="12" ry="8" fill="#D4AF37" opacity="0.12" transform="rotate(135.00994428802136 1000.1727048861185 997.8348485488192)"/><ellipse cx="994.3148405098494" cy="983.6927129250882" rx="12" ry="8" fill="#D4AF37" opacity="0.12" transform="rotate(180.01325905069513 994.3148405098494 983.6927129250882)"/><ellipse cx="1000.1727048861185" cy="969.5505773013573" rx="12" ry="8" fill="#D4AF37" opacity="0.12" transform="rotate(225.01657381336892 1000.1727048861185 969.5505773013573)"/><ellipse cx="1014.3148405098494" cy="963.6927129250882" rx="12" ry="8" fill="#D4AF37" opacity="0.12" transform="rotate(270.0198885760427 1014.3148405098494 963.6927129250882)"/><ellipse cx="1028.4569761335804" cy="969.5505773013573" rx="12" ry="8" fill="#D4AF37" opacity="0.12" transform="rotate(315.0232033387165 1028.4569761335804 969.5505773013573)"/><circle cx="1014.3148405098494" cy="983.6927129250882" r="8" fill="#F3E5AB" opacity="0.2"/>
    <rect x="0" y="1820" width="1080" height="120" fill="#1f1008" fill-opacity="0.85"/>
    <line x1="60" y1="1840" x2="1020" y2="1840" stroke="#D4AF37" stroke-width="1" opacity="0.3"/>
    <g transform="translate(80, 1875)">
      <polygon points="0,-12 -14,12 14,12" fill="none" stroke="#D4AF37" stroke-width="2"/>
      <text x="0" y="28" text-anchor="middle" fill="#D4AF37" font-size="9" font-weight="bold">916 BIS HUID</text>
    </g>
    <text x="540" y="1880" text-anchor="middle" fill="#ffffff" font-size="16" font-weight="bold">📞 9443476183</text>
    <text x="1000" y="1875" text-anchor="end" fill="#c4a882" font-size="12" opacity="0.85">📍 89 New Market Street, Tirupur</text>
  
</svg>