<?xml version="1.0" encoding="UTF-8"?>
<svg xmlns="http://www.w3.org/2000/svg" xmlns:xlink="http://www.w3.org/1999/xlink"
  viewBox="0 0 1080 1920" width="1080" height="1920">
  <defs>
    <linearGradient id="bgGrad" x1="0%" y1="0%" x2="100%" y2="100%">
      <stop offset="0%" stop-color="#1f1008"/>
      <stop offset="100%" stop-color="#0d0804"/>
    </linearGradient>
    <linearGradient id="goldGrad" x1="0%" y1="0%" x2="100%" y2="0%">
      <stop offset="0%" stop-color="#D4AF37"/>
      <stop offset="50%" stop-color="#F3E5AB"/>
      <stop offset="100%" stop-color="#D4AF37"/>
    </linearGradient>
  </defs>
  <rect width="1080" height="1920" fill="url(#bgGrad)"/><ellipse cx="540.0531992689271" cy="629.5543792746536" rx="74.80371272173124" ry="88.79955862071324" fill="none" stroke="#D4AF37" stroke-width="1" opacity="0.08" transform="rotate(56.728869077497045 540.0531992689271 629.5543792746536)"/><ellipse cx="486.3148767373663" cy="96.24528148793176" rx="54.85573543222224" ry="60.622091023830784" fill="none" stroke="#D4AF37" stroke-width="1" opacity="0.08" transform="rotate(61.938147975074266 486.3148767373663 96.24528148793176)"/><ellipse cx="703.3660492704865" cy="1552.3431762609102" rx="63.118913912325084" ry="113.25526180048962" fill="none" stroke="#D4AF37" stroke-width="1" opacity="0.08" transform="rotate(44.74147348174962 703.3660492704865 1552.3431762609102)"/><ellipse cx="869.8418251889216" cy="980.5468350840237" rx="47.98605752921296" ry="135.00445925631044" fill="none" stroke="#D4AF37" stroke-width="1" opacity="0.08" transform="rotate(239.78735262508258 869.8418251889216 980.5468350840237)"/><ellipse cx="798.1095316429711" cy="403.37871857302144" rx="31.722263686100266" ry="142.95507022454876" fill="none" stroke="#D4AF37" stroke-width="1" opacity="0.08" transform="rotate(143.46127640778317 798.1095316429711 403.37871857302144)"/><ellipse cx="701.0228407951284" cy="659.356816727069" rx="68.80282807052399" ry="76.43664403952346" fill="none" stroke="#D4AF37" stroke-width="1" opacity="0.08" transform="rotate(162.70779192699845 701.0228407951284 659.356816727069)"/><ellipse cx="209.5813830286091" cy="985.4424423216307" rx="40.70665138373771" ry="144.0422052042952" fill="none" stroke="#D4AF37" stroke-width="1" opacity="0.08" transform="rotate(149.37166077026322 209.5813830286091 985.4424423216307)"/><ellipse cx="628.5126425963945" cy="1799.0891574687223" rx="59.46537819641212" ry="104.30071403672986" fill="none" stroke="#D4AF37" stroke-width="1" opacity="0.08" transform="rotate(328.40469189770954 628.5126425963945 1799.0891574687223)"/>
  <polygon points="540,250 1020,450 1020,1100 60,1100 60,450" fill="none" stroke="#D4AF37" stroke-width="2" opacity="0.3"/>
    
    <g transform="translate(540, 100) scale(0.55)">
      <circle cx="0" cy="0" r="50" fill="none" stroke="url(#goldGrad)" stroke-width="3"/>
      <path d="M0,-35 L6,-18 L0,-22 L-6,-18 Z" fill="url(#goldGrad)"/>
      <rect x="-2" y="-22" width="4" height="14" fill="url(#goldGrad)"/>
      <ellipse cx="0" cy="5" rx="14" ry="18" fill="url(#goldGrad)"/>
      <circle cx="0" cy="-10" r="9" fill="url(#goldGrad)"/>
      <g fill="none" stroke="url(#goldGrad)" stroke-width="2" opacity="0.8">
        <path d="M-12,8 Q-28,-5 -32,-22"/>
        <path d="M-6,12 Q-16,-2 -18,-25"/>
        <path d="M0,14 Q0,-2 0,-28"/>
        <path d="M6,12 Q16,-2 18,-25"/>
        <path d="M12,8 Q28,-5 32,-22"/>
      </g>
    </g>
  
    <text x="540" y="165" text-anchor="middle" fill="url(#goldGrad)" font-size="24" font-family="'Times New Roman', serif" font-weight="800" letter-spacing="3">SRI VELMAYIL JEWELLERY</text>
    <text x="540" y="192" text-anchor="middle" fill="#c4a882" font-size="13" font-family="Helvetica, sans-serif" letter-spacing="8" opacity="0.85">— TIRUPUR —</text>
  
    <circle cx="540" cy="600" r="140" fill="#D4AF37" opacity="0.08"/>
    <circle cx="540" cy="600" r="130" fill="none" stroke="#D4AF37" stroke-width="2" opacity="0.4"/>
    <g transform="translate(540, 600)"><circle cx="-26" cy="0" r="65" fill="none" stroke="#D4AF37" stroke-width="7.433747977422316"/><circle cx="26" cy="0" r="65" fill="none" stroke="#D4AF37" stroke-width="7.433747977422316"/><circle cx="65" cy="0" r="3" fill="#F3E5AB"/><circle cx="32.50000000000001" cy="56.29165124598851" r="3" fill="#F3E5AB"/><circle cx="-32.499999999999986" cy="56.29165124598852" r="3" fill="#F3E5AB"/><circle cx="-65" cy="7.960204194457796e-15" r="3" fill="#F3E5AB"/><circle cx="-32.50000000000003" cy="-56.291651245988504" r="3" fill="#F3E5AB"/><circle cx="32.50000000000001" cy="-56.29165124598851" r="3" fill="#F3E5AB"/></g>
  
      <g transform="translate(60, 1250)">
        <rect width="300" height="120" rx="8" fill="#1f1008" fill-opacity="0.6" stroke="#D4AF37" stroke-width="2"/>
        <text x="150" y="35" text-anchor="middle" fill="#F3E5AB" font-size="14" font-weight="bold" letter-spacing="1">1GM 22K</text>
        <text x="150" y="80" text-anchor="middle" fill="#ffffff" font-size="38" font-weight="800" font-family="'Times New Roman', serif">₹12,152</text>
        <line x1="300" y1="20" x2="300" y2="100" stroke="#D4AF37" stroke-width="1" stroke-dasharray="4,4" opacity="0.4"/>
      </g>
    
      <g transform="translate(390, 1250)">
        <rect width="300" height="120" rx="8" fill="#1f1008" fill-opacity="0.6" stroke="#D4AF37" stroke-width="2"/>
        <text x="150" y="35" text-anchor="middle" fill="#F3E5AB" font-size="14" font-weight="bold" letter-spacing="1">8GM 22K</text>
        <text x="150" y="80" text-anchor="middle" fill="#ffffff" font-size="38" font-weight="800" font-family="'Times New Roman', serif">₹97,216</text>
        <line x1="300" y1="20" x2="300" y2="100" stroke="#D4AF37" stroke-width="1" stroke-dasharray="4,4" opacity="0.4"/>
      </g>
    
      <g transform="translate(720, 1250)">
        <rect width="300" height="120" rx="8" fill="#1f1008" fill-opacity="0.6" stroke="#D4AF37" stroke-width="2"/>
        <text x="150" y="35" text-anchor="middle" fill="#F3E5AB" font-size="14" font-weight="bold" letter-spacing="1">1GM SILVER</text>
        <text x="150" y="80" text-anchor="middle" fill="#ffffff" font-size="38" font-weight="800" font-family="'Times New Roman', serif">₹217</text>
        
      </g>
    
    <text x="540" y="1180" text-anchor="middle" fill="#c4a882" font-size="18" font-family="Helvetica, sans-serif">Today's</text>
    <text x="540" y="1180" text-anchor="middle" fill="#ffffff" font-size="22" font-weight="800" font-family="Helvetica, sans-serif"> GOLD RATE</text>
    <text x="540" y="1225" text-anchor="middle" fill="#ffffff" font-size="30" font-weight="800" font-family="'Times New Roman', serif">15TH JUNE 2026</text>
  
    <rect x="0" y="1820" width="1080" height="120" fill="#1f1008" fill-opacity="0.85"/>
    <line x1="60" y1="1840" x2="1020" y2="1840" stroke="#D4AF37" stroke-width="1" opacity="0.3"/>
    <g transform="translate(80, 1875)">
      <polygon points="0,-12 -14,12 14,12" fill="none" stroke="#D4AF37" stroke-width="2"/>
      <text x="0" y="28" text-anchor="middle" fill="#D4AF37" font-size="9" font-weight="bold">916 BIS HUID</text>
    </g>
    <text x="540" y="1880" text-anchor="middle" fill="#ffffff" font-size="16" font-weight="bold">📞 9443476183</text>
    <text x="1000" y="1875" text-anchor="end" fill="#c4a882" font-size="12" opacity="0.85">📍 89 New Market Street, Tirupur</text>
  
</svg>