<?xml version="1.0" encoding="UTF-8"?>
<svg xmlns="http://www.w3.org/2000/svg" xmlns:xlink="http://www.w3.org/1999/xlink"
  viewBox="0 0 1080 1920" width="1080" height="1920">
  <defs>
    <linearGradient id="bgGrad" x1="0%" y1="0%" x2="100%" y2="100%">
      <stop offset="0%" stop-color="#0a1628"/>
      <stop offset="100%" stop-color="#050d18"/>
    </linearGradient>
    <linearGradient id="goldGrad" x1="0%" y1="0%" x2="100%" y2="0%">
      <stop offset="0%" stop-color="#D4AF37"/>
      <stop offset="50%" stop-color="#F3E5AB"/>
      <stop offset="100%" stop-color="#D4AF37"/>
    </linearGradient>
  </defs>
  <rect width="1080" height="1920" fill="url(#bgGrad)"/><circle cx="859.0245955800866" cy="331.34158850772457" r="111.50754018827112" fill="#D4AF37" opacity="0.06781610820239048"/><circle cx="1023.9715918190512" cy="160.96736148089855" r="48.2048479544044" fill="#D4AF37" opacity="0.10812042618926654"/><circle cx="600.036671496962" cy="1522.3850768081704" r="107.1657521903196" fill="#D4AF37" opacity="0.060823756429202624"/><circle cx="178.49722450459117" cy="1498.4165405281042" r="137.23332958038276" fill="#D4AF37" opacity="0.09782104614919149"/><circle cx="219.8736361040488" cy="1308.8155240088845" r="185.20973338299405" fill="#D4AF37" opacity="0.0637438595748915"/><circle cx="516.5797855300641" cy="64.81744504051045" r="102.23444288804609" fill="#D4AF37" opacity="0.06053384127610721"/><circle cx="27.24951476533852" cy="111.29404406183777" r="76.58439185152238" fill="#D4AF37" opacity="0.11655458311695101"/><circle cx="634.5416825213858" cy="1461.4428855678466" r="192.54844396612464" fill="#D4AF37" opacity="0.05345501076751855"/><circle cx="100.39788542352419" cy="759.5875192802283" r="65.62046865524768" fill="#D4AF37" opacity="0.05430997897340914"/><circle cx="813.80544229765" cy="903.2369416423486" r="138.60717834775073" fill="#D4AF37" opacity="0.03610142122125385"/><circle cx="439.04546651900324" cy="848.2858683618585" r="135.0498287519904" fill="#D4AF37" opacity="0.06514069292707433"/><circle cx="355.51745591267706" cy="1105.5772341653494" r="173.04841590397845" fill="#D4AF37" opacity="0.11140854886398516"/>
  
    
    <g transform="translate(540, 100) scale(0.55)">
      <circle cx="0" cy="0" r="50" fill="none" stroke="url(#goldGrad)" stroke-width="3"/>
      <path d="M0,-35 L6,-18 L0,-22 L-6,-18 Z" fill="url(#goldGrad)"/>
      <rect x="-2" y="-22" width="4" height="14" fill="url(#goldGrad)"/>
      <ellipse cx="0" cy="5" rx="14" ry="18" fill="url(#goldGrad)"/>
      <circle cx="0" cy="-10" r="9" fill="url(#goldGrad)"/>
      <g fill="none" stroke="url(#goldGrad)" stroke-width="2" opacity="0.8">
        <path d="M-12,8 Q-28,-5 -32,-22"/>
        <path d="M-6,12 Q-16,-2 -18,-25"/>
        <path d="M0,14 Q0,-2 0,-28"/>
        <path d="M6,12 Q16,-2 18,-25"/>
        <path d="M12,8 Q28,-5 32,-22"/>
      </g>
    </g>
  
    <text x="540" y="165" text-anchor="middle" fill="url(#goldGrad)" font-size="26" font-family="Georgia, serif" font-weight="bold" letter-spacing="3">SRI VELMAYIL JEWELLERY</text>
    <text x="540" y="192" text-anchor="middle" fill="#8fa8c8" font-size="13" font-family="Arial, sans-serif" letter-spacing="8" opacity="0.85">— TIRUPUR —</text>
  
    <circle cx="540" cy="550" r="170" fill="#D4AF37" opacity="0.08"/>
    <circle cx="540" cy="550" r="160" fill="none" stroke="#D4AF37" stroke-width="2" opacity="0.4"/>
    <g transform="translate(540, 550)"><circle cx="0" cy="0" r="72" fill="none" stroke="#D4AF37" stroke-width="5.616626662776458"/><polygon points="0,-8.869354418357233 -5.321612651014339,0 5.321612651014339,0" fill="#F3E5AB"/><circle cx="0" cy="-2.6608063255071697" r="5.826499654749874" fill="#F3E5AB" opacity="0.95"/></g>
  <ellipse cx="141.94236098503913" cy="699.550054307608" rx="12" ry="8" fill="#D4AF37" opacity="0.12" transform="rotate(0 141.94236098503913 699.550054307608)"/><ellipse cx="136.08449660877008" cy="713.6921899313389" rx="12" ry="8" fill="#D4AF37" opacity="0.12" transform="rotate(45.00331476267378 136.08449660877008 713.6921899313389)"/><ellipse cx="121.94236098503913" cy="719.550054307608" rx="12" ry="8" fill="#D4AF37" opacity="0.12" transform="rotate(90.00662952534756 121.94236098503913 719.550054307608)"/><ellipse cx="107.80022536130818" cy="713.6921899313389" rx="12" ry="8" fill="#D4AF37" opacity="0.12" transform="rotate(135.00994428802136 107.80022536130818 713.6921899313389)"/><ellipse cx="101.94236098503913" cy="699.550054307608" rx="12" ry="8" fill="#D4AF37" opacity="0.12" transform="rotate(180.01325905069513 101.94236098503913 699.550054307608)"/><ellipse cx="107.80022536130818" cy="685.407918683877" rx="12" ry="8" fill="#D4AF37" opacity="0.12" transform="rotate(225.01657381336892 107.80022536130818 685.407918683877)"/><ellipse cx="121.94236098503913" cy="679.550054307608" rx="12" ry="8" fill="#D4AF37" opacity="0.12" transform="rotate(270.0198885760427 121.94236098503913 679.550054307608)"/><ellipse cx="136.08449660877008" cy="685.407918683877" rx="12" ry="8" fill="#D4AF37" opacity="0.12" transform="rotate(315.0232033387165 136.08449660877008 685.407918683877)"/><circle cx="121.94236098503913" cy="699.550054307608" r="8" fill="#F3E5AB" opacity="0.2"/><ellipse cx="1025.3666108943212" cy="863.8057581780532" rx="12" ry="8" fill="#D4AF37" opacity="0.12" transform="rotate(0 1025.3666108943212 863.8057581780532)"/><ellipse cx="1017.8364069314957" cy="879.4423878274138" rx="12" ry="8" fill="#D4AF37" opacity="0.12" transform="rotate(51.43235972877004 1017.8364069314957 879.4423878274138)"/><ellipse cx="1000.9161922151948" cy="883.3043164216897" rx="12" ry="8" fill="#D4AF37" opacity="0.12" transform="rotate(102.86471945754008 1000.9161922151948 883.3043164216897)"/><ellipse cx="987.3472335362727" cy="872.4834329604043" rx="12" ry="8" fill="#D4AF37" opacity="0.12" transform="rotate(154.29707918631013 987.3472335362727 872.4834329604043)"/><ellipse cx="987.3472335362727" cy="855.1280833957021" rx="12" ry="8" fill="#D4AF37" opacity="0.12" transform="rotate(205.72943891508015 987.3472335362727 855.1280833957021)"/><ellipse cx="1000.9161922151948" cy="844.3071999344168" rx="12" ry="8" fill="#D4AF37" opacity="0.12" transform="rotate(257.1617986438502 1000.9161922151948 844.3071999344168)"/><ellipse cx="1017.8364069314957" cy="848.1691285286927" rx="12" ry="8" fill="#D4AF37" opacity="0.12" transform="rotate(308.59415837262026 1017.8364069314957 848.1691285286927)"/><circle cx="1005.3666108943211" cy="863.8057581780532" r="8" fill="#F3E5AB" opacity="0.2"/><ellipse cx="125.60190394111154" cy="887.7375833315193" rx="12" ry="8" fill="#D4AF37" opacity="0.12" transform="rotate(0 125.60190394111154 887.7375833315193)"/><ellipse cx="119.7440395648425" cy="901.8797189552503" rx="12" ry="8" fill="#D4AF37" opacity="0.12" transform="rotate(45.00331476267378 119.7440395648425 901.8797189552503)"/><ellipse cx="105.60190394111154" cy="907.7375833315193" rx="12" ry="8" fill="#D4AF37" opacity="0.12" transform="rotate(90.00662952534756 105.60190394111154 907.7375833315193)"/><ellipse cx="91.4597683173806" cy="901.8797189552503" rx="12" ry="8" fill="#D4AF37" opacity="0.12" transform="rotate(135.00994428802136 91.4597683173806 901.8797189552503)"/><ellipse cx="85.60190394111154" cy="887.7375833315193" rx="12" ry="8" fill="#D4AF37" opacity="0.12" transform="rotate(180.01325905069513 85.60190394111154 887.7375833315193)"/><ellipse cx="91.4597683173806" cy="873.5954477077884" rx="12" ry="8" fill="#D4AF37" opacity="0.12" transform="rotate(225.01657381336892 91.4597683173806 873.5954477077884)"/><ellipse cx="105.60190394111154" cy="867.7375833315193" rx="12" ry="8" fill="#D4AF37" opacity="0.12" transform="rotate(270.0198885760427 105.60190394111154 867.7375833315193)"/><ellipse cx="119.7440395648425" cy="873.5954477077884" rx="12" ry="8" fill="#D4AF37" opacity="0.12" transform="rotate(315.0232033387165 119.7440395648425 873.5954477077884)"/><circle cx="105.60190394111154" cy="887.7375833315193" r="8" fill="#F3E5AB" opacity="0.2"/><ellipse cx="962.5310814217954" cy="1037.9496554564216" rx="12" ry="8" fill="#D4AF37" opacity="0.12" transform="rotate(0 962.5310814217954 1037.9496554564216)"/><ellipse cx="956.6732170455264" cy="1052.0917910801525" rx="12" ry="8" fill="#D4AF37" opacity="0.12" transform="rotate(45.00331476267378 956.6732170455264 1052.0917910801525)"/><ellipse cx="942.5310814217954" cy="1057.9496554564216" rx="12" ry="8" fill="#D4AF37" opacity="0.12" transform="rotate(90.00662952534756 942.5310814217954 1057.9496554564216)"/><ellipse cx="928.3889457980645" cy="1052.0917910801527" rx="12" ry="8" fill="#D4AF37" opacity="0.12" transform="rotate(135.00994428802136 928.3889457980645 1052.0917910801527)"/><ellipse cx="922.5310814217954" cy="1037.9496554564216" rx="12" ry="8" fill="#D4AF37" opacity="0.12" transform="rotate(180.01325905069513 922.5310814217954 1037.9496554564216)"/><ellipse cx="928.3889457980645" cy="1023.8075198326907" rx="12" ry="8" fill="#D4AF37" opacity="0.12" transform="rotate(225.01657381336892 928.3889457980645 1023.8075198326907)"/><ellipse cx="942.5310814217954" cy="1017.9496554564216" rx="12" ry="8" fill="#D4AF37" opacity="0.12" transform="rotate(270.0198885760427 942.5310814217954 1017.9496554564216)"/><ellipse cx="956.6732170455264" cy="1023.8075198326907" rx="12" ry="8" fill="#D4AF37" opacity="0.12" transform="rotate(315.0232033387165 956.6732170455264 1023.8075198326907)"/><circle cx="942.5310814217954" cy="1037.9496554564216" r="8" fill="#F3E5AB" opacity="0.2"/>
    <text x="540" y="820" text-anchor="middle" fill="#8fa8c8" font-size="18" font-family="Arial, sans-serif">Today's</text>
    <text x="540" y="820" text-anchor="middle" fill="#ffffff" font-size="22" font-weight="bold" font-family="Arial, sans-serif"> GOLD RATE</text>
    <text x="540" y="865" text-anchor="middle" fill="#ffffff" font-size="32" font-weight="bold" font-family="Georgia, serif">15TH JUNE 2026</text>
  
    <g transform="translate(540, 900)">
      <g transform="translate(-220, 0)">
        <rect x="0" y="0" width="200" height="90" rx="12" fill="#0a1628" stroke="#D4AF37" stroke-width="2"/>
        <text x="100" y="28" text-anchor="middle" fill="#F3E5AB" font-size="12" font-weight="bold">Gold Rate 1GM 22K</text>
        <text x="100" y="65" text-anchor="middle" fill="#ffffff" font-size="28" font-weight="bold" font-family="Georgia, serif">₹ 12,152</text>
      </g>
      <g transform="translate(20, 0)">
        <rect x="0" y="0" width="200" height="90" rx="12" fill="#0a1628" stroke="#D4AF37" stroke-width="2"/>
        <text x="100" y="28" text-anchor="middle" fill="#F3E5AB" font-size="12" font-weight="bold">Gold Rate 8GM 22K</text>
        <text x="100" y="65" text-anchor="middle" fill="#ffffff" font-size="28" font-weight="bold" font-family="Georgia, serif">₹ 97,216</text>
      </g>
      <g transform="translate(-90, 110)">
        <rect x="0" y="0" width="180" height="50" rx="25" fill="#D4AF37" fill-opacity="0.15" stroke="#D4AF37" stroke-width="1.5"/>
        <text x="90" y="32" text-anchor="middle" fill="#ffffff" font-size="18" font-weight="bold">Silver 1GM ₹ 217</text>
      </g>
    </g>
  
    <rect x="0" y="1820" width="1080" height="120" fill="#0a1628" fill-opacity="0.85"/>
    <line x1="60" y1="1840" x2="1020" y2="1840" stroke="#D4AF37" stroke-width="1" opacity="0.3"/>
    <g transform="translate(80, 1875)">
      <polygon points="0,-12 -14,12 14,12" fill="none" stroke="#D4AF37" stroke-width="2"/>
      <text x="0" y="28" text-anchor="middle" fill="#D4AF37" font-size="9" font-weight="bold">916 BIS HUID</text>
    </g>
    <text x="540" y="1880" text-anchor="middle" fill="#ffffff" font-size="16" font-weight="bold">📞 9443476183</text>
    <text x="1000" y="1875" text-anchor="end" fill="#8fa8c8" font-size="12" opacity="0.85">📍 89 New Market Street, Tirupur</text>
  
</svg>