<?xml version="1.0" encoding="UTF-8"?>
<svg xmlns="http://www.w3.org/2000/svg" xmlns:xlink="http://www.w3.org/1999/xlink"
  viewBox="0 0 1080 1920" width="1080" height="1920">
  <defs>
    <linearGradient id="bgGrad" x1="0%" y1="0%" x2="100%" y2="100%">
      <stop offset="0%" stop-color="#1f1008"/>
      <stop offset="100%" stop-color="#0d0804"/>
    </linearGradient>
    <linearGradient id="goldGrad" x1="0%" y1="0%" x2="100%" y2="0%">
      <stop offset="0%" stop-color="#D4AF37"/>
      <stop offset="50%" stop-color="#F3E5AB"/>
      <stop offset="100%" stop-color="#D4AF37"/>
    </linearGradient>
  </defs>
  <rect width="1080" height="1920" fill="url(#bgGrad)"/><line x1="-1920" y1="0" x2="0" y2="1920" stroke="#D4AF37" stroke-width="0.5" opacity="0.06"/><line x1="-1880" y1="0" x2="40" y2="1920" stroke="#D4AF37" stroke-width="0.5" opacity="0.06"/><line x1="-1840" y1="0" x2="80" y2="1920" stroke="#D4AF37" stroke-width="0.5" opacity="0.06"/><line x1="-1800" y1="0" x2="120" y2="1920" stroke="#D4AF37" stroke-width="0.5" opacity="0.06"/><line x1="-1760" y1="0" x2="160" y2="1920" stroke="#D4AF37" stroke-width="0.5" opacity="0.06"/><line x1="-1720" y1="0" x2="200" y2="1920" stroke="#D4AF37" stroke-width="0.5" opacity="0.06"/><line x1="-1680" y1="0" x2="240" y2="1920" stroke="#D4AF37" stroke-width="0.5" opacity="0.06"/><line x1="-1640" y1="0" x2="280" y2="1920" stroke="#D4AF37" stroke-width="0.5" opacity="0.06"/><line x1="-1600" y1="0" x2="320" y2="1920" stroke="#D4AF37" stroke-width="0.5" opacity="0.06"/><line x1="-1560" y1="0" x2="360" y2="1920" stroke="#D4AF37" stroke-width="0.5" opacity="0.06"/><line x1="-1520" y1="0" x2="400" y2="1920" stroke="#D4AF37" stroke-width="0.5" opacity="0.06"/><line x1="-1480" y1="0" x2="440" y2="1920" stroke="#D4AF37" stroke-width="0.5" opacity="0.06"/><line x1="-1440" y1="0" x2="480" y2="1920" stroke="#D4AF37" stroke-width="0.5" opacity="0.06"/><line x1="-1400" y1="0" x2="520" y2="1920" stroke="#D4AF37" stroke-width="0.5" opacity="0.06"/><line x1="-1360" y1="0" x2="560" y2="1920" stroke="#D4AF37" stroke-width="0.5" opacity="0.06"/><line x1="-1320" y1="0" x2="600" y2="1920" stroke="#D4AF37" stroke-width="0.5" opacity="0.06"/><line x1="-1280" y1="0" x2="640" y2="1920" stroke="#D4AF37" stroke-width="0.5" opacity="0.06"/><line x1="-1240" y1="0" x2="680" y2="1920" stroke="#D4AF37" stroke-width="0.5" opacity="0.06"/><line x1="-1200" y1="0" x2="720" y2="1920" stroke="#D4AF37" stroke-width="0.5" opacity="0.06"/><line x1="-1160" y1="0" x2="760" y2="1920" stroke="#D4AF37" stroke-width="0.5" opacity="0.06"/><line x1="-1120" y1="0" x2="800" y2="1920" stroke="#D4AF37" stroke-width="0.5" opacity="0.06"/><line x1="-1080" y1="0" x2="840" y2="1920" stroke="#D4AF37" stroke-width="0.5" opacity="0.06"/><line x1="-1040" y1="0" x2="880" y2="1920" stroke="#D4AF37" stroke-width="0.5" opacity="0.06"/><line x1="-1000" y1="0" x2="920" y2="1920" stroke="#D4AF37" stroke-width="0.5" opacity="0.06"/><line x1="-960" y1="0" x2="960" y2="1920" stroke="#D4AF37" stroke-width="0.5" opacity="0.06"/><line x1="-920" y1="0" x2="1000" y2="1920" stroke="#D4AF37" stroke-width="0.5" opacity="0.06"/><line x1="-880" y1="0" x2="1040" y2="1920" stroke="#D4AF37" stroke-width="0.5" opacity="0.06"/><line x1="-840" y1="0" x2="1080" y2="1920" stroke="#D4AF37" stroke-width="0.5" opacity="0.06"/><line x1="-800" y1="0" x2="1120" y2="1920" stroke="#D4AF37" stroke-width="0.5" opacity="0.06"/><line x1="-760" y1="0" x2="1160" y2="1920" stroke="#D4AF37" stroke-width="0.5" opacity="0.06"/><line x1="-720" y1="0" x2="1200" y2="1920" stroke="#D4AF37" stroke-width="0.5" opacity="0.06"/><line x1="-680" y1="0" x2="1240" y2="1920" stroke="#D4AF37" stroke-width="0.5" opacity="0.06"/><line x1="-640" y1="0" x2="1280" y2="1920" stroke="#D4AF37" stroke-width="0.5" opacity="0.06"/><line x1="-600" y1="0" x2="1320" y2="1920" stroke="#D4AF37" stroke-width="0.5" opacity="0.06"/><line x1="-560" y1="0" x2="1360" y2="1920" stroke="#D4AF37" stroke-width="0.5" opacity="0.06"/><line x1="-520" y1="0" x2="1400" y2="1920" stroke="#D4AF37" stroke-width="0.5" opacity="0.06"/><line x1="-480" y1="0" x2="1440" y2="1920" stroke="#D4AF37" stroke-width="0.5" opacity="0.06"/><line x1="-440" y1="0" x2="1480" y2="1920" stroke="#D4AF37" stroke-width="0.5" opacity="0.06"/><line x1="-400" y1="0" x2="1520" y2="1920" stroke="#D4AF37" stroke-width="0.5" opacity="0.06"/><line x1="-360" y1="0" x2="1560" y2="1920" stroke="#D4AF37" stroke-width="0.5" opacity="0.06"/><line x1="-320" y1="0" x2="1600" y2="1920" stroke="#D4AF37" stroke-width="0.5" opacity="0.06"/><line x1="-280" y1="0" x2="1640" y2="1920" stroke="#D4AF37" stroke-width="0.5" opacity="0.06"/><line x1="-240" y1="0" x2="1680" y2="1920" stroke="#D4AF37" stroke-width="0.5" opacity="0.06"/><line x1="-200" y1="0" x2="1720" y2="1920" stroke="#D4AF37" stroke-width="0.5" opacity="0.06"/><line x1="-160" y1="0" x2="1760" y2="1920" stroke="#D4AF37" stroke-width="0.5" opacity="0.06"/><line x1="-120" y1="0" x2="1800" y2="1920" stroke="#D4AF37" stroke-width="0.5" opacity="0.06"/><line x1="-80" y1="0" x2="1840" y2="1920" stroke="#D4AF37" stroke-width="0.5" opacity="0.06"/><line x1="-40" y1="0" x2="1880" y2="1920" stroke="#D4AF37" stroke-width="0.5" opacity="0.06"/><line x1="0" y1="0" x2="1920" y2="1920" stroke="#D4AF37" stroke-width="0.5" opacity="0.06"/><line x1="40" y1="0" x2="1960" y2="1920" stroke="#D4AF37" stroke-width="0.5" opacity="0.06"/><line x1="80" y1="0" x2="2000" y2="1920" stroke="#D4AF37" stroke-width="0.5" opacity="0.06"/><line x1="120" y1="0" x2="2040" y2="1920" stroke="#D4AF37" stroke-width="0.5" opacity="0.06"/><line x1="160" y1="0" x2="2080" y2="1920" stroke="#D4AF37" stroke-width="0.5" opacity="0.06"/><line x1="200" y1="0" x2="2120" y2="1920" stroke="#D4AF37" stroke-width="0.5" opacity="0.06"/><line x1="240" y1="0" x2="2160" y2="1920" stroke="#D4AF37" stroke-width="0.5" opacity="0.06"/><line x1="280" y1="0" x2="2200" y2="1920" stroke="#D4AF37" stroke-width="0.5" opacity="0.06"/><line x1="320" y1="0" x2="2240" y2="1920" stroke="#D4AF37" stroke-width="0.5" opacity="0.06"/><line x1="360" y1="0" x2="2280" y2="1920" stroke="#D4AF37" stroke-width="0.5" opacity="0.06"/><line x1="400" y1="0" x2="2320" y2="1920" stroke="#D4AF37" stroke-width="0.5" opacity="0.06"/><line x1="440" y1="0" x2="2360" y2="1920" stroke="#D4AF37" stroke-width="0.5" opacity="0.06"/><line x1="480" y1="0" x2="2400" y2="1920" stroke="#D4AF37" stroke-width="0.5" opacity="0.06"/><line x1="520" y1="0" x2="2440" y2="1920" stroke="#D4AF37" stroke-width="0.5" opacity="0.06"/><line x1="560" y1="0" x2="2480" y2="1920" stroke="#D4AF37" stroke-width="0.5" opacity="0.06"/><line x1="600" y1="0" x2="2520" y2="1920" stroke="#D4AF37" stroke-width="0.5" opacity="0.06"/><line x1="640" y1="0" x2="2560" y2="1920" stroke="#D4AF37" stroke-width="0.5" opacity="0.06"/><line x1="680" y1="0" x2="2600" y2="1920" stroke="#D4AF37" stroke-width="0.5" opacity="0.06"/><line x1="720" y1="0" x2="2640" y2="1920" stroke="#D4AF37" stroke-width="0.5" opacity="0.06"/><line x1="760" y1="0" x2="2680" y2="1920" stroke="#D4AF37" stroke-width="0.5" opacity="0.06"/><line x1="800" y1="0" x2="2720" y2="1920" stroke="#D4AF37" stroke-width="0.5" opacity="0.06"/><line x1="840" y1="0" x2="2760" y2="1920" stroke="#D4AF37" stroke-width="0.5" opacity="0.06"/><line x1="880" y1="0" x2="2800" y2="1920" stroke="#D4AF37" stroke-width="0.5" opacity="0.06"/><line x1="920" y1="0" x2="2840" y2="1920" stroke="#D4AF37" stroke-width="0.5" opacity="0.06"/><line x1="960" y1="0" x2="2880" y2="1920" stroke="#D4AF37" stroke-width="0.5" opacity="0.06"/><line x1="1000" y1="0" x2="2920" y2="1920" stroke="#D4AF37" stroke-width="0.5" opacity="0.06"/><line x1="1040" y1="0" x2="2960" y2="1920" stroke="#D4AF37" stroke-width="0.5" opacity="0.06"/><line x1="1080" y1="0" x2="3000" y2="1920" stroke="#D4AF37" stroke-width="0.5" opacity="0.06"/><line x1="1120" y1="0" x2="3040" y2="1920" stroke="#D4AF37" stroke-width="0.5" opacity="0.06"/><line x1="1160" y1="0" x2="3080" y2="1920" stroke="#D4AF37" stroke-width="0.5" opacity="0.06"/><line x1="1200" y1="0" x2="3120" y2="1920" stroke="#D4AF37" stroke-width="0.5" opacity="0.06"/><line x1="1240" y1="0" x2="3160" y2="1920" stroke="#D4AF37" stroke-width="0.5" opacity="0.06"/><line x1="1280" y1="0" x2="3200" y2="1920" stroke="#D4AF37" stroke-width="0.5" opacity="0.06"/><line x1="1320" y1="0" x2="3240" y2="1920" stroke="#D4AF37" stroke-width="0.5" opacity="0.06"/><line x1="1360" y1="0" x2="3280" y2="1920" stroke="#D4AF37" stroke-width="0.5" opacity="0.06"/><line x1="1400" y1="0" x2="3320" y2="1920" stroke="#D4AF37" stroke-width="0.5" opacity="0.06"/><line x1="1440" y1="0" x2="3360" y2="1920" stroke="#D4AF37" stroke-width="0.5" opacity="0.06"/><line x1="1480" y1="0" x2="3400" y2="1920" stroke="#D4AF37" stroke-width="0.5" opacity="0.06"/><line x1="1520" y1="0" x2="3440" y2="1920" stroke="#D4AF37" stroke-width="0.5" opacity="0.06"/><line x1="1560" y1="0" x2="3480" y2="1920" stroke="#D4AF37" stroke-width="0.5" opacity="0.06"/><line x1="1600" y1="0" x2="3520" y2="1920" stroke="#D4AF37" stroke-width="0.5" opacity="0.06"/><line x1="1640" y1="0" x2="3560" y2="1920" stroke="#D4AF37" stroke-width="0.5" opacity="0.06"/><line x1="1680" y1="0" x2="3600" y2="1920" stroke="#D4AF37" stroke-width="0.5" opacity="0.06"/><line x1="1720" y1="0" x2="3640" y2="1920" stroke="#D4AF37" stroke-width="0.5" opacity="0.06"/><line x1="1760" y1="0" x2="3680" y2="1920" stroke="#D4AF37" stroke-width="0.5" opacity="0.06"/><line x1="1800" y1="0" x2="3720" y2="1920" stroke="#D4AF37" stroke-width="0.5" opacity="0.06"/><line x1="1840" y1="0" x2="3760" y2="1920" stroke="#D4AF37" stroke-width="0.5" opacity="0.06"/><line x1="1880" y1="0" x2="3800" y2="1920" stroke="#D4AF37" stroke-width="0.5" opacity="0.06"/><line x1="1920" y1="0" x2="3840" y2="1920" stroke="#D4AF37" stroke-width="0.5" opacity="0.06"/><line x1="1960" y1="0" x2="3880" y2="1920" stroke="#D4AF37" stroke-width="0.5" opacity="0.06"/><line x1="2000" y1="0" x2="3920" y2="1920" stroke="#D4AF37" stroke-width="0.5" opacity="0.06"/><line x1="2040" y1="0" x2="3960" y2="1920" stroke="#D4AF37" stroke-width="0.5" opacity="0.06"/><line x1="2080" y1="0" x2="4000" y2="1920" stroke="#D4AF37" stroke-width="0.5" opacity="0.06"/><line x1="2120" y1="0" x2="4040" y2="1920" stroke="#D4AF37" stroke-width="0.5" opacity="0.06"/><line x1="2160" y1="0" x2="4080" y2="1920" stroke="#D4AF37" stroke-width="0.5" opacity="0.06"/><line x1="2200" y1="0" x2="4120" y2="1920" stroke="#D4AF37" stroke-width="0.5" opacity="0.06"/><line x1="2240" y1="0" x2="4160" y2="1920" stroke="#D4AF37" stroke-width="0.5" opacity="0.06"/><line x1="2280" y1="0" x2="4200" y2="1920" stroke="#D4AF37" stroke-width="0.5" opacity="0.06"/><line x1="2320" y1="0" x2="4240" y2="1920" stroke="#D4AF37" stroke-width="0.5" opacity="0.06"/><line x1="2360" y1="0" x2="4280" y2="1920" stroke="#D4AF37" stroke-width="0.5" opacity="0.06"/><line x1="2400" y1="0" x2="4320" y2="1920" stroke="#D4AF37" stroke-width="0.5" opacity="0.06"/><line x1="2440" y1="0" x2="4360" y2="1920" stroke="#D4AF37" stroke-width="0.5" opacity="0.06"/><line x1="2480" y1="0" x2="4400" y2="1920" stroke="#D4AF37" stroke-width="0.5" opacity="0.06"/><line x1="2520" y1="0" x2="4440" y2="1920" stroke="#D4AF37" stroke-width="0.5" opacity="0.06"/><line x1="2560" y1="0" x2="4480" y2="1920" stroke="#D4AF37" stroke-width="0.5" opacity="0.06"/><line x1="2600" y1="0" x2="4520" y2="1920" stroke="#D4AF37" stroke-width="0.5" opacity="0.06"/><line x1="2640" y1="0" x2="4560" y2="1920" stroke="#D4AF37" stroke-width="0.5" opacity="0.06"/><line x1="2680" y1="0" x2="4600" y2="1920" stroke="#D4AF37" stroke-width="0.5" opacity="0.06"/><line x1="2720" y1="0" x2="4640" y2="1920" stroke="#D4AF37" stroke-width="0.5" opacity="0.06"/><line x1="2760" y1="0" x2="4680" y2="1920" stroke="#D4AF37" stroke-width="0.5" opacity="0.06"/><line x1="2800" y1="0" x2="4720" y2="1920" stroke="#D4AF37" stroke-width="0.5" opacity="0.06"/><line x1="2840" y1="0" x2="4760" y2="1920" stroke="#D4AF37" stroke-width="0.5" opacity="0.06"/><line x1="2880" y1="0" x2="4800" y2="1920" stroke="#D4AF37" stroke-width="0.5" opacity="0.06"/><line x1="2920" y1="0" x2="4840" y2="1920" stroke="#D4AF37" stroke-width="0.5" opacity="0.06"/><line x1="2960" y1="0" x2="4880" y2="1920" stroke="#D4AF37" stroke-width="0.5" opacity="0.06"/>
  <ellipse cx="117.72307798520018" cy="995.4612115653802" rx="12" ry="8" fill="#D4AF37" opacity="0.12" transform="rotate(0 117.72307798520018 995.4612115653802)"/><ellipse cx="103.90341787269912" cy="1014.4823418912832" rx="12" ry="8" fill="#D4AF37" opacity="0.12" transform="rotate(72.00530362027806 103.90341787269912 1014.4823418912832)"/><ellipse cx="81.54273809770123" cy="1007.2169166112296" rx="12" ry="8" fill="#D4AF37" opacity="0.12" transform="rotate(144.0106072405561 81.54273809770123 1007.2169166112296)"/><ellipse cx="81.54273809770123" cy="983.7055065195307" rx="12" ry="8" fill="#D4AF37" opacity="0.12" transform="rotate(216.01591086083417 81.54273809770123 983.7055065195307)"/><ellipse cx="103.90341787269912" cy="976.4400812394771" rx="12" ry="8" fill="#D4AF37" opacity="0.12" transform="rotate(288.0212144811122 103.90341787269912 976.4400812394771)"/><circle cx="97.72307798520018" cy="995.4612115653802" r="8" fill="#F3E5AB" opacity="0.2"/><ellipse cx="975.9704729271778" cy="702.0522484761218" rx="12" ry="8" fill="#D4AF37" opacity="0.12" transform="rotate(0 975.9704729271778 702.0522484761218)"/><ellipse cx="970.1126085509087" cy="716.1943840998528" rx="12" ry="8" fill="#D4AF37" opacity="0.12" transform="rotate(45.00331476267378 970.1126085509087 716.1943840998528)"/><ellipse cx="955.9704729271778" cy="722.0522484761218" rx="12" ry="8" fill="#D4AF37" opacity="0.12" transform="rotate(90.00662952534756 955.9704729271778 722.0522484761218)"/><ellipse cx="941.8283373034468" cy="716.1943840998528" rx="12" ry="8" fill="#D4AF37" opacity="0.12" transform="rotate(135.00994428802136 941.8283373034468 716.1943840998528)"/><ellipse cx="935.9704729271778" cy="702.0522484761218" rx="12" ry="8" fill="#D4AF37" opacity="0.12" transform="rotate(180.01325905069513 935.9704729271778 702.0522484761218)"/><ellipse cx="941.8283373034468" cy="687.9101128523909" rx="12" ry="8" fill="#D4AF37" opacity="0.12" transform="rotate(225.01657381336892 941.8283373034468 687.9101128523909)"/><ellipse cx="955.9704729271778" cy="682.0522484761218" rx="12" ry="8" fill="#D4AF37" opacity="0.12" transform="rotate(270.0198885760427 955.9704729271778 682.0522484761218)"/><ellipse cx="970.1126085509087" cy="687.9101128523909" rx="12" ry="8" fill="#D4AF37" opacity="0.12" transform="rotate(315.0232033387165 970.1126085509087 687.9101128523909)"/><circle cx="955.9704729271778" cy="702.0522484761218" r="8" fill="#F3E5AB" opacity="0.2"/><ellipse cx="144.62268247699615" cy="1004.1142139249614" rx="12" ry="8" fill="#D4AF37" opacity="0.12" transform="rotate(0 144.62268247699615 1004.1142139249614)"/><ellipse cx="137.0924785141708" cy="1019.750843574322" rx="12" ry="8" fill="#D4AF37" opacity="0.12" transform="rotate(51.43235972877004 137.0924785141708 1019.750843574322)"/><ellipse cx="120.17226379786986" cy="1023.6127721685979" rx="12" ry="8" fill="#D4AF37" opacity="0.12" transform="rotate(102.86471945754008 120.17226379786986 1023.6127721685979)"/><ellipse cx="106.60330511894776" cy="1012.7918887073125" rx="12" ry="8" fill="#D4AF37" opacity="0.12" transform="rotate(154.29707918631013 106.60330511894776 1012.7918887073125)"/><ellipse cx="106.60330511894776" cy="995.4365391426103" rx="12" ry="8" fill="#D4AF37" opacity="0.12" transform="rotate(205.72943891508015 106.60330511894776 995.4365391426103)"/><ellipse cx="120.17226379786986" cy="984.6156556813249" rx="12" ry="8" fill="#D4AF37" opacity="0.12" transform="rotate(257.1617986438502 120.17226379786986 984.6156556813249)"/><ellipse cx="137.0924785141708" cy="988.4775842756009" rx="12" ry="8" fill="#D4AF37" opacity="0.12" transform="rotate(308.59415837262026 137.0924785141708 988.4775842756009)"/><circle cx="124.62268247699615" cy="1004.1142139249614" r="8" fill="#F3E5AB" opacity="0.2"/><ellipse cx="997.9288572565921" cy="725.9575712587289" rx="12" ry="8" fill="#D4AF37" opacity="0.12" transform="rotate(0 997.9288572565921 725.9575712587289)"/><ellipse cx="987.9288572565921" cy="743.2780793344176" rx="12" ry="8" fill="#D4AF37" opacity="0.12" transform="rotate(60.00441968356504 987.9288572565921 743.2780793344176)"/><ellipse cx="967.9288572565921" cy="743.2780793344176" rx="12" ry="8" fill="#D4AF37" opacity="0.12" transform="rotate(120.00883936713008 967.9288572565921 743.2780793344176)"/><ellipse cx="957.9288572565921" cy="725.9575712587289" rx="12" ry="8" fill="#D4AF37" opacity="0.12" transform="rotate(180.01325905069513 957.9288572565921 725.9575712587289)"/><ellipse cx="967.9288572565921" cy="708.6370631830401" rx="12" ry="8" fill="#D4AF37" opacity="0.12" transform="rotate(240.01767873426016 967.9288572565921 708.6370631830401)"/><ellipse cx="987.9288572565921" cy="708.6370631830401" rx="12" ry="8" fill="#D4AF37" opacity="0.12" transform="rotate(300.02209841782525 987.9288572565921 708.6370631830401)"/><circle cx="977.9288572565921" cy="725.9575712587289" r="8" fill="#F3E5AB" opacity="0.2"/>
    
    <g transform="translate(540, 110) scale(0.55)">
      <circle cx="0" cy="0" r="50" fill="none" stroke="url(#goldGrad)" stroke-width="3"/>
      <path d="M0,-35 L6,-18 L0,-22 L-6,-18 Z" fill="url(#goldGrad)"/>
      <rect x="-2" y="-22" width="4" height="14" fill="url(#goldGrad)"/>
      <ellipse cx="0" cy="5" rx="14" ry="18" fill="url(#goldGrad)"/>
      <circle cx="0" cy="-10" r="9" fill="url(#goldGrad)"/>
      <g fill="none" stroke="url(#goldGrad)" stroke-width="2" opacity="0.8">
        <path d="M-12,8 Q-28,-5 -32,-22"/>
        <path d="M-6,12 Q-16,-2 -18,-25"/>
        <path d="M0,14 Q0,-2 0,-28"/>
        <path d="M6,12 Q16,-2 18,-25"/>
        <path d="M12,8 Q28,-5 32,-22"/>
      </g>
    </g>
  
    <text x="540" y="175" text-anchor="middle" fill="url(#goldGrad)" font-size="24" font-family="Cambria, serif" font-weight="900" letter-spacing="3">SRI VELMAYIL JEWELLERY</text>
    <text x="540" y="202" text-anchor="middle" fill="#c4a882" font-size="13" font-family="Calibri, sans-serif" letter-spacing="8" opacity="0.85">— TIRUPUR —</text>
  
    <circle cx="540" cy="520" r="160" fill="#D4AF37" opacity="0.08"/>
    <circle cx="540" cy="520" r="150" fill="none" stroke="#D4AF37" stroke-width="2" opacity="0.4"/>
    <g transform="translate(540, 520)"><circle cx="0" cy="0" r="67.5" fill="none" stroke="#D4AF37" stroke-width="5.602128481121854"/><polygon points="0,-10.456280832603834 -6.2737684995623,0 6.2737684995623,0" fill="#F3E5AB"/><circle cx="0" cy="-3.13688424978115" r="6.807987537056196" fill="#F3E5AB" opacity="0.95"/></g>
  
    <text x="540" y="750" text-anchor="middle" fill="#c4a882" font-size="18" font-family="Calibri, sans-serif">Today's</text>
    <text x="540" y="750" text-anchor="middle" fill="#ffffff" font-size="22" font-weight="900" font-family="Calibri, sans-serif"> GOLD RATE</text>
    <text x="540" y="795" text-anchor="middle" fill="#ffffff" font-size="30" font-weight="900" font-family="Cambria, serif">15TH JUNE 2026</text>
  
    <g transform="translate(540, 830)">
      <g transform="translate(-220, 0)">
        <rect x="0" y="0" width="200" height="90" rx="12" fill="#1f1008" stroke="#D4AF37" stroke-width="2"/>
        <text x="100" y="28" text-anchor="middle" fill="#F3E5AB" font-size="12" font-weight="bold">Gold Rate 1GM 22K</text>
        <text x="100" y="65" text-anchor="middle" fill="#ffffff" font-size="34" font-weight="900" font-family="Cambria, serif">₹ 12,152</text>
      </g>
      <g transform="translate(20, 0)">
        <rect x="0" y="0" width="200" height="90" rx="12" fill="#1f1008" stroke="#D4AF37" stroke-width="2"/>
        <text x="100" y="28" text-anchor="middle" fill="#F3E5AB" font-size="12" font-weight="bold">Gold Rate 8GM 22K</text>
        <text x="100" y="65" text-anchor="middle" fill="#ffffff" font-size="34" font-weight="900" font-family="Cambria, serif">₹ 97,216</text>
      </g>
      <g transform="translate(-90, 110)">
        <rect x="0" y="0" width="180" height="50" rx="25" fill="#D4AF37" fill-opacity="0.15" stroke="#D4AF37" stroke-width="1.5"/>
        <text x="90" y="32" text-anchor="middle" fill="#ffffff" font-size="18" font-weight="bold">Silver 1GM ₹ 217</text>
      </g>
    </g>
  
    <rect x="0" y="1820" width="1080" height="120" fill="#1f1008" fill-opacity="0.85"/>
    <line x1="60" y1="1840" x2="1020" y2="1840" stroke="#D4AF37" stroke-width="1" opacity="0.3"/>
    <g transform="translate(80, 1875)">
      <polygon points="0,-12 -14,12 14,12" fill="none" stroke="#D4AF37" stroke-width="2"/>
      <text x="0" y="28" text-anchor="middle" fill="#D4AF37" font-size="9" font-weight="bold">916 BIS HUID</text>
    </g>
    <text x="540" y="1880" text-anchor="middle" fill="#ffffff" font-size="16" font-weight="bold">📞 9443476183</text>
    <text x="1000" y="1875" text-anchor="end" fill="#c4a882" font-size="12" opacity="0.85">📍 89 New Market Street, Tirupur</text>
  
</svg>