<?xml version="1.0" encoding="UTF-8"?>
<svg xmlns="http://www.w3.org/2000/svg" xmlns:xlink="http://www.w3.org/1999/xlink"
  viewBox="0 0 1080 1920" width="1080" height="1920">
  <defs>
    <linearGradient id="bgGrad" x1="0%" y1="0%" x2="100%" y2="100%">
      <stop offset="0%" stop-color="#0a1628"/>
      <stop offset="100%" stop-color="#050d18"/>
    </linearGradient>
    <linearGradient id="goldGrad" x1="0%" y1="0%" x2="100%" y2="0%">
      <stop offset="0%" stop-color="#D4AF37"/>
      <stop offset="50%" stop-color="#F3E5AB"/>
      <stop offset="100%" stop-color="#D4AF37"/>
    </linearGradient>
  </defs>
  <rect width="1080" height="1920" fill="url(#bgGrad)"/><circle cx="540" cy="864" r="100" fill="none" stroke="#D4AF37" stroke-width="0.8" opacity="0.13"/><circle cx="540" cy="864" r="160" fill="none" stroke="#D4AF37" stroke-width="0.8" opacity="0.118"/><circle cx="540" cy="864" r="220" fill="none" stroke="#D4AF37" stroke-width="0.8" opacity="0.10599999999999998"/><circle cx="540" cy="864" r="280" fill="none" stroke="#D4AF37" stroke-width="0.8" opacity="0.094"/><circle cx="540" cy="864" r="340" fill="none" stroke="#D4AF37" stroke-width="0.8" opacity="0.08199999999999999"/><circle cx="540" cy="864" r="400" fill="none" stroke="#D4AF37" stroke-width="0.8" opacity="0.06999999999999999"/><circle cx="540" cy="864" r="460" fill="none" stroke="#D4AF37" stroke-width="0.8" opacity="0.057999999999999996"/><circle cx="540" cy="864" r="520" fill="none" stroke="#D4AF37" stroke-width="0.8" opacity="0.045999999999999985"/><circle cx="540" cy="864" r="580" fill="none" stroke="#D4AF37" stroke-width="0.8" opacity="0.03399999999999999"/>
  <rect x="30" y="30" width="1020" height="1860" fill="none" stroke="#D4AF37" stroke-width="2" opacity="0.4"/>
    
    <g transform="translate(540, 130) scale(0.55)">
      <circle cx="0" cy="0" r="50" fill="none" stroke="url(#goldGrad)" stroke-width="3"/>
      <path d="M0,-35 L6,-18 L0,-22 L-6,-18 Z" fill="url(#goldGrad)"/>
      <rect x="-2" y="-22" width="4" height="14" fill="url(#goldGrad)"/>
      <ellipse cx="0" cy="5" rx="14" ry="18" fill="url(#goldGrad)"/>
      <circle cx="0" cy="-10" r="9" fill="url(#goldGrad)"/>
      <g fill="none" stroke="url(#goldGrad)" stroke-width="2" opacity="0.8">
        <path d="M-12,8 Q-28,-5 -32,-22"/>
        <path d="M-6,12 Q-16,-2 -18,-25"/>
        <path d="M0,14 Q0,-2 0,-28"/>
        <path d="M6,12 Q16,-2 18,-25"/>
        <path d="M12,8 Q28,-5 32,-22"/>
      </g>
    </g>
  
    <text x="540" y="195" text-anchor="middle" fill="url(#goldGrad)" font-size="24" font-family="'Times New Roman', serif" font-weight="800" letter-spacing="3">SRI VELMAYIL JEWELLERY</text>
    <text x="540" y="222" text-anchor="middle" fill="#8fa8c8" font-size="13" font-family="Helvetica, sans-serif" letter-spacing="8" opacity="0.85">— TIRUPUR —</text>
  
    <text x="540" y="300" text-anchor="middle" fill="#8fa8c8" font-size="18" font-family="Helvetica, sans-serif">Today's</text>
    <text x="540" y="300" text-anchor="middle" fill="#ffffff" font-size="22" font-weight="800" font-family="Helvetica, sans-serif"> GOLD RATE</text>
    <text x="540" y="345" text-anchor="middle" fill="#ffffff" font-size="30" font-weight="800" font-family="'Times New Roman', serif">15TH JUNE 2026</text>
  
      <g transform="translate(60, 380)">
        <rect width="300" height="120" rx="8" fill="#0a1628" fill-opacity="0.6" stroke="#D4AF37" stroke-width="2"/>
        <text x="150" y="35" text-anchor="middle" fill="#F3E5AB" font-size="14" font-weight="bold" letter-spacing="1">1GM 22K</text>
        <text x="150" y="80" text-anchor="middle" fill="#ffffff" font-size="38" font-weight="800" font-family="'Times New Roman', serif">₹12,152</text>
        <line x1="300" y1="20" x2="300" y2="100" stroke="#D4AF37" stroke-width="1" stroke-dasharray="4,4" opacity="0.4"/>
      </g>
    
      <g transform="translate(390, 380)">
        <rect width="300" height="120" rx="8" fill="#0a1628" fill-opacity="0.6" stroke="#D4AF37" stroke-width="2"/>
        <text x="150" y="35" text-anchor="middle" fill="#F3E5AB" font-size="14" font-weight="bold" letter-spacing="1">8GM 22K</text>
        <text x="150" y="80" text-anchor="middle" fill="#ffffff" font-size="38" font-weight="800" font-family="'Times New Roman', serif">₹97,216</text>
        <line x1="300" y1="20" x2="300" y2="100" stroke="#D4AF37" stroke-width="1" stroke-dasharray="4,4" opacity="0.4"/>
      </g>
    
      <g transform="translate(720, 380)">
        <rect width="300" height="120" rx="8" fill="#0a1628" fill-opacity="0.6" stroke="#D4AF37" stroke-width="2"/>
        <text x="150" y="35" text-anchor="middle" fill="#F3E5AB" font-size="14" font-weight="bold" letter-spacing="1">1GM SILVER</text>
        <text x="150" y="80" text-anchor="middle" fill="#ffffff" font-size="38" font-weight="800" font-family="'Times New Roman', serif">₹217</text>
        
      </g>
    
    <circle cx="540" cy="850" r="135" fill="#D4AF37" opacity="0.08"/>
    <circle cx="540" cy="850" r="125" fill="none" stroke="#D4AF37" stroke-width="2" opacity="0.4"/>
    <g transform="translate(540, 850)"><line x1="0" y1="-62.5" x2="0" y2="-12.5" stroke="#D4AF37" stroke-width="2"/><circle cx="0" cy="18.75" r="43.75" fill="none" stroke="#D4AF37" stroke-width="2.8954379334072007"/><circle cx="0" cy="18.75" r="10.045608039056518" fill="#F3E5AB" opacity="0.8"/></g>
  
    <rect x="0" y="1820" width="1080" height="120" fill="#0a1628" fill-opacity="0.85"/>
    <line x1="60" y1="1840" x2="1020" y2="1840" stroke="#D4AF37" stroke-width="1" opacity="0.3"/>
    <g transform="translate(80, 1875)">
      <polygon points="0,-12 -14,12 14,12" fill="none" stroke="#D4AF37" stroke-width="2"/>
      <text x="0" y="28" text-anchor="middle" fill="#D4AF37" font-size="9" font-weight="bold">916 BIS HUID</text>
    </g>
    <text x="540" y="1880" text-anchor="middle" fill="#ffffff" font-size="16" font-weight="bold">📞 9443476183</text>
    <text x="1000" y="1875" text-anchor="end" fill="#8fa8c8" font-size="12" opacity="0.85">📍 89 New Market Street, Tirupur</text>
  
</svg>